<mxfile host="Electron" agent="Mozilla/5.0 (Windows NT 10.0; Win64; x64) AppleWebKit/537.36 (KHTML, like Gecko) draw.io/24.7.17 Chrome/128.0.6613.36 Electron/32.0.1 Safari/537.36" version="24.7.17">
  <diagram name="第 1 页" id="Cmd77ARTDq-4s54f00k7">
    <mxGraphModel dx="1050" dy="629" grid="0" gridSize="10" guides="1" tooltips="1" connect="1" arrows="1" fold="1" page="0" pageScale="1" pageWidth="1169" pageHeight="827" math="0" shadow="0">
      <root>
        <mxCell id="0" />
        <mxCell id="1" parent="0" />
        <mxCell id="Tr-p309xJlKuGFnzpVve-1" value="" style="shape=image;verticalLabelPosition=bottom;labelBackgroundColor=default;verticalAlign=top;aspect=fixed;imageAspect=0;image=data:image/png,iVBORw0KGgoAAAANSUhEUgAAAoIAAAFDCAIAAAAhzvjOAAAgAElEQVR4Ae2dz48dx3XvvfHmbbLxIskiwYPxgAv4xsgk1xPZw4zkIfXsIYXQw3nW8JkISc0oMiXexKQDekRTMiVaepYSmTEpWpFkWaJMSqZBCZYJA/FiABo0QG+8EcGNFwQEGFn7X3iqc+rHqV99+/7quj++xIDo210/Tn2qur51qqq7P/E//9dnivz96Z//ZZF8ken4CKBOx8e2mZRRg81wRi4xgT/987/85bz++0Sr3cEfCIAACIAACIBAEQKQYYxCQAAEQAAEQKAYAchwMfRFhl3IFARAAARAYKIIQIYhwyAAAiAAAiBQjABkuBj6iRqOwRgQAAEQAIEiBCDDkGEQAAEQAAEQKEYAMlwMfZFhFzIFARAAARCYKAKQ4UZl+DOfXfzs33yhSAv4m8/9fZF8KzL97N984TOfXawIgEvDEADeYeghLgg0RmDsMnzx0isXL73SWHnqZ7T8xS//6I03v/v8C8ko3/jmt65cffeh/Q8nrw588l9Pnf7xW28f+OqhgVMYLOLRrWOX3766+egTg0XPxbp46ZUfvfHm8he/3Gp3+q3oz33+gfM/ePk/fvDy3/7dci59nB+YAPAOjA4RQaBhApDhRmX4b/9u+d9f+sFbl3/SsBJ/5rOL33nmuavv/HS0SjyMDLfanf0HDv74zbdrKvEnT/wq/vuTf3y51e58+nNf+tT6M3z1U+vPNHwLTWx2feGd2FLAMBCYeQKQ4UZluNXusBL/+M239x842GTzYiV++ydXDz/y2GD5Vs8f9OsNsw0sFf/+0g+qfeJPf+5Ln/j27+I/luH/8di78tKUKvF3n3/BTi0EFVRxKQgZ/KyJN4iFnyAAAk0SgAw3LcPTq8TjkGHrE/dUYr4r/uKBr33i27/7H4+9K28S1mDrFstLU3RcobUVl3oWEErcExECgEBZAn3I8Heff+H6e+9ff+/9az+7/tR3zl25+u4jjz7O1nMHzVevv/f+N775LVuqwEmyichgjzz6+JWr7z71nXPXfnb9+nvv86LsN775LU4wWKPtmZfNIohoTZI2f/f5F5Lhg7Xhh/Y/fOXqu7b4tuCc1MVLr1hTmUzPRWX2iX/0xpv7/uGrgWHSvCBHtuqp75y7/t771nOy9l9/7/2ey/DsE19+++rX/nEzme83vvktm3Kr3eGCf+Ob3/q4yFw7bBKvqcvKlccysEwtmaNV4u+9+FK1T9xqdypkuF8nWNapNdIONWyd2ktsvG2Wtgpk671y9d3n/9+/BQ3Piigjsilc+9l1bkhBk5Y5Ji/JkzaRHNu+8FYkgksgAAJjIlBXhr/7/Au2c+H+y97//NMKAHfBduuT7J1tf9RqdzgYCzYfc+9juxj50ybeM6/r773PWXM6NmKMz2YkTbVllDIclIi7UTvUkOujHNImEmcqz/zt3y1/78WXXvvRj3mLk7wU7Hh66jvnPk651e5w1rJQFy+9YrN7aP/DL7z4/SCd+OdnPrt4+szZty7/JDkrnpPhVrvDxCyuwEhb0VxHzGf5i19+4d++nyxgYNi+f/jqj95489nvfi84H/xMyvCn1p9hh/iTJ35VU4ylkVwQ2d7sGJGD2SJ/fGCbvS2abL1y4MKWS2gs7bb6ZGqtdkfeHUGpg0sWdavdsW0jiBL8rIk3iIWfIAACDRCoJcNBn8Uiar3hoI8IOhTbZTy0/+G3Lv+E5YQLZi+xP2EvfdyD286OtccqTc+8pCchpTRGGeu0LKaMa+20idgzgeWBtTZ88oBl+Mdvvv2/V78SBJB9t7wUkIlzl4FzxyzDP7nyzsbXjsZhhpfhwaxinXjx38/HJskzSRlmL/mTJ37FYswLxjJWfPzd51+wcijbc9wqbJOTzUMmyDJsh2Xc/m3ijzz6+FuXf8KzI3LEFg9rbEYycT6Wl3JtI44lz9TEK6PgGARAoBkCtWRYdiVsluxqL156xboL9qrserhL4t6KpzTt//aSFfVYyQJFrJMXmyEjxjO3cXcmz9i4fFJ2smwh630gWrHxuVpkDb789tXclml2fO34Iy6RNCOXS3yeNfidd69t/VP64aWgRFJ7JB9O2Q5HYs+4zgy5NW/fP3z1jR+/9YMLlwablOZ0eL80K/FfPPA1m3jywM4526bII7+4jFYC47uAU5b3gj1j27/Ue4mLQ8ozNqPY4OBSsm3EseyZ+nhtFByAAAg0RqBRGbZ9U1C8oCOzEsjB5M+akh9HDHKMfZHgjM10HDLcU4OttTx6sGJsrbIFlN6/jZU76KnBsbQPJsMWZh0x7kskkt7wp9afsbrLu6b/bPWfcxD4fNyQ+PxIZNi2meUvfvmV/3zdTvNI0bVmWL850Fppf/JS0DZkeHncF14ZEccgAALNEKgrw9d+dl16hHJ2NO4j5Bnb9cgOPShbfRmWKXMi8ozNiy8FohVkGne40gwZN0hWen6Sg7XHqmaQI/+sr8EcXnKTVsmp1GRGwck6Ghx783LGNSYmychjm3VgsD1vD/oViViG/2z1nz/x7d998sSv/uQfX7aLxJ/+3JdsFskD2WxkgLiMNqSsCBlFNht7/hvf/NbFS6888ujjr/zn63ZpPEAUJGgzsonYg9ylIAUb3h70i9dGxAEIgEBjBGrJMAuPVRe++e3yLf+0g3rZcUvFChKRu0uCjizou+XP+nnFihIw5Q7Xbsbhn9a5lJlyiexkuJTeIBaHtKCCHPlRpe+9+FLFXDRHsdt/gi0/0ioOWXOLVk0NttlxYQNEQW0GP63GPPLo4x9vemfzYoMlkwFEIpZh++4Ono7+xLd/19MVtjsEbZ3a3W1cZHs+2Ojw8Xnb7G0dBa2XC/jQ/od/9Mab3/+PizIpngm3Z2Tdxc1VLiRLjDZfW1lyfDwkXhkdxyAAAs0QqCvD3OfyQtqVq+9yv/Cx6rCVrI581fZTfMn2zvanXY2Tyl1zbdh2PXXykp1XTJM73Bf+7fs/euNNTs1qcNwnsr5ysEBlrVbxEyzbp58OAsis//XU6ctvX334/x6RJ+NjmaYdKMRWcUS5zJnrkTcffeLK1Xf/6ViPqVpOkJce+ck0ZmiTtRxYS2Tl2mMbxj57Fhew1e78dWfpwsuvXLj4w8///Z5kgOTJT3/uS3/xwNdiZ5fP26npZNzgpLTTNtpqGWZVtg2YISRlOB502lGLra+gndhK53YoZVheWvs/X7MtVraNoHT18XLifDPKY76p7aAhSB8/QQAERkWgDxmWWea6HhlmPo+rtf8zn1383OcfKELmvl27i+Rbkelfd5b+urNUEWCqL9lxiS1FfMZeGsdBTbxSeuUxZHgclYI0QSAmMKAM5xar4gzm7UzDXe284Z2W8rKG2VkENhttY1qqD3aCQJME6srw9//j4seTeGwZT1oGXUyTRk9OXstf/PLFS6/Yd2Z9PINnpzcnx0hY0jyB5DgVMtx8RSBHEJh8AnVlWD53W7EiNfkFHrmFdqmPF1PtYGXkGSHBqSDAS87Bui9bDhmeihqEkSDQMIG6MtywWcgOBEAABEAABOaBAGS4Mw/VjDKCAAiAAAhMJgHIMGQYBEAABEAABIoRgAwXQz+Z4zJYBQIgAAIg0CQByDBkGARAAARAAASKEYAMF0Pf5GgLeYEACIAACEwmAcgwZBgEQAAEQAAEihGADBdDP5njMlgFAiAAAiDQJIH5k+H73tt58t7tJ3fOtiHAM0FAV+i926pa77x6X9lC7T3zm9Ov/mZrfQ5a1/pPT7/6m9Mv/vD+vjosjnXmmbLVhNxBYIIIQIbLVsaFa0/e21k70VdHVizw4vrd7qlbD5Ql5ufOGnzkQjEmodxOlgwrzfuvry6HRvoMB70KGZ6YVjeaCkVxShEoIcMLe1fWNlfXDi0uoPUMIcMkih91T/FfE+o4mAz7diprN1a95v7AUVuKj7pHX+tHFY6u3ZkAD1g24/sf/68xKp/HrQaoscpwv8Zw+OUf/surv/mXx7ckNByDwFwTaFiGlxZXN1dX9y7sOgQZpl5pQBk+s+/4R91Td/ct267wtY3+BMxG7ONgMBn21GL5g01PhrkgYgyxemtz/YwXper+JBmeqPUFyHBVfbXaHchwH3dc7RsBaU41gUZleGFlc2WX+r5su4gMy0XE7ntHRRM/e+Te7SMXqE9XBy0T8toe6lPUT7XoqIKpBch7t/3oNjxdlapw4tWul+BtMwWt8+LUxP+1JqhJDqUGe01QOZfHP1jsvLahHWXjYpIEBu6mTEod+xGNIoqkbJrqQMhnhwVV+7WBv+tQBzK8eit2jl3gHh16q93JyHAWuwXlqtLUiLq0Z0dtGtC1v3O2Tek8STXYj1U2l+CAFEitp/pLqmoeW62wPrPFl179zWm9dEpngsVXmgrmtWcV8cwzLGycrFmT3vrqi5SLTVAfyAlqL4yJ2KuYsgicZrjKO1CyGtRXzr914+b1S9sBN/wEgdkm0KgMW5RlZNh0MaoL9nWUztzZOXKBOuI7O907r95nuvJ2x6msXoNULqxSa0qQBVULdpul2m4UMv243TqkOvp7NnCrPYg3TIKn9NLy9A7sHK/WQlI+FlS6FGmnSYokWUwaRxpJAWR0k28g8BTRSLgJw9amZDgdMlM6rkTCqIdEYhBjKqUaO1WfbQAsulybKtk7O92ds1wv3Ts7aycySl9pnmlpouzkJYvJ2OUfbpmJWV5Odhu7hL8Y+9YU+Kd7KWUTUYtrHLiTm5RmNbUKStLe/0QxKa5NRJlEZ9y4YeurL2pTa+Ha++yN6zduXr9x+esJgLVSEMARHgSmhgBkWFUV+UakndS/k0tKXTl31rKndtLLXm+so1KkWQ+kfxyED37WaTdCVpO9FWmt9JVJtnnKOlBWXxRZhoUjKyKSYTkZNv636wQjvTeX/BzbzoeWBpvAvWlkNLIKexyFzgS1T5VIte+uJmnXPKn82pzOkZpGfirLm5BkouGlE0X0rqrwGRlWEZ1YqiJQUv1IpqqjWIYjA+pXpQoJb7hmc0Kw2SIAGVa9lfOPnbcayrBwYXn20nXc3iWZGs9qWscr0XTGJcMpn1WVlKaXzSpyIKvBz3anFehrHIBK5KWpy6j0PqWsoQxTN02DA95r1qdnHGsqJSjqLmSeukTDLFWJ5A3TI08kw+Qij0SGM3JIylotgb5/6acTqWmki354zq7Ds9+eF5sVbBMlxEjno+xYmPMDjsrUklngJAjMAQHIsOoahpNhOwWtexnyrdkDTnX6XqtqWoZbQkqVsytlT1zSTkx9GZbpqAIGbrftf5MyrK+S832KF7a1AR4rm4g7GFCGzYKCzoVkWE2BjEuGabo462v28ESFlKqQQj6HkeHQNVe52MedSV/FunJm5TiWYVVfVBy9Mp2J2Ktaa9Y+goHAbBCADKs+ffQyrD3gccgwe7RmQTfu0bITwqxeVgjVgeewjlqGvcS1nTZ3J6XejUQ2hE80xWU0Z0YowxPqDbfZeSXVVFO+UthGLcNyYtwQ9monOJmWYVOzyloh7UFc/AQBEDAEIMODyLCT7cQeK+ng9pRhChA4Z6Zusj0gCW1K5KgH7CHDPNV89DUleL6WRzKsZps9Nzcz1Rw4zfFstitRJgUbYOwynNhc7bR8XN5w9VM65D5mfeVOq62c6Rd/eL9yWL1goQzTQrLUac7XO0ONKozILqy/WmzU1FZNfFAtw3IAEcdNn9k+jy1aaTI1qgMRp5YAZLh/GXbrxypusHYoZqQ7rd5rw2J3WD9tiJ8gkkrsnhvuKcM8Yxw/KRTIcCId8mWDR56U2XTeCbY/I/3AUbtQTdPOQvsX1++KHWFm6VoE6MXEKagXsnr049Z9lSbZGWn9wBIvMbgwQf1mx0aeAXGnSVorfNlwp7Snr2F03tgcrbn6akqiGEopuaThyejhXW9GukdBhG2RDC//8F/EnDltEBNF7o2ue5l2St9869mDvQPXtxMhQWCyCTQqw/Sc0uaqeoWW+Fvd226EEfWn5sFf85QLP6frvFsnsaIr553SJkr82iYvZW9DlkgkW0YKYxKv9dwwJ0Uyad8/ZaWO9lV5T/TGPRqruIvCCbInal7LlVmjJYk1YUQKrND6qWI5PjDiypciifVL4TvfosfP0BtIhjv8nJh93sntsBubN0xVQCvE5nFeIY2k0JUyrLc+hZPGLO36QWT3tLHPykg4BRMp5M7HrSV7JpJhvTfblLH/92gefPqdm0qJ8eiwX4nZKkCwmSDQqAxPa2OyO2lnosqNLpr90rZQgTdsz+OgOIGkp0uboYSc9x61jPgGTMnwkFnwo8Pnu42XpXgVw4A5JgAZrnHDz5oMZxZoIcOT2hHEi76kdv6kdOPGk1XhjuvhZJjWht85v7fxsgxndo0+BCUCgTwByHCNW2imZDhYxxXFhwzn75OS3TSt78o1V2NM8zJ8/+M/td9rqjGX3gdPPR2NVWFTueLG7AMjYk0lAchwjWqbERk2y7puL5VfdsjwhPV3dvk2pcH6Cd2mJ6VpIlo/Uly9nj1hMCFvIDCxBCDDvhSh7wABEAABEACBBglAhiHDIAACIAACIFCMAGS4GPqJnSGBYSAAAiAAAo0RgAxDhkEABEAABECgGAHIcDH0jQ21kBEIgAAIgMDEEoAMQ4ZBAARAAARAoBgByHAx9BM7NINhIAACIAACjRGADEOGQQAEQAAEQKAYAchwMfSNDbWQEQiAAAiAwMQSaFqGvY8sNfVtpYmlD8NAAARAAATmnECjMqw02Env7qW1TfETXikIgAAIgAAIzB2BRmU4GPKQZ3xocWHuoAcc8BMEQAAEQGBuCUCGMQgAARAAARAAgWIESsrwwsrm6tr6QoNv0J7b0RYKDgIgAAIgMJkEysnw4vrq2ubqyu7J5AKrQAAEQAAEQKABAoVkmDXYbdcqNhvQAGJkAQIgAAIgAAI5AiVkeGHvyhqmozHyAAEQAAEQAIFO4zIMDcZaOAiAAAiAAAgYAs3KMDTYcM/NTuA8CIAACIDAXBFoVIZpa/Sm2pkl/7BCDG0GARAAARCYVwKNyvBcDXBQWBAAARAAARDoSQAyjA0CIAACIAACIFCMAGS4GPqeQyQEAAEQAAEQmHkCkGHIMAiAAAiAAAgUIwAZLoZ+5od4KCAIgAAIgEBPApBhyDAIgAAIgAAIFCMAGS6GvucQCQFAAARAAARmngBkGDIMAiAAAiAAAsUIQIaLoZ/5IR4KCAIgAAIg0JMAZBgyDAIgAAIgAALFCECGi6HvOURCABAAARAAgZknMO8yvKd7/uxz23vku0z3b589fWxRnhHHi4fPne1uzHyzQAFBAARAAASaITDfMrx/++xz5w4ss0O8scV6vHzsJMnw4uFzW/uNr2xOtvZvswzv6dqIJoxQ62YqD7mAAAiAAAhMO4FmZXhxfZK+rbSx9dx5z7VVqnx+6/Cxk90N8pK9q8oPfu7cgcPbJw9vHDh9/uxz508efnDaqx/2gwAIgAAIlCXQrAx7/uLupbXN1XJfOSRZ9aejyTwtwOl56QdZgD3x9goFzxgEQAAEQAAE+iBQUIY77V2HVtfWF4rI2PKxk7E763vDgbMbeMNuvrqI/cgUBEAABEBgJgjMqQwrlzf0dxNrw87rTawNY1K6j+Fe2Tkf5A4CIAACE0ugnAwv7F1Z21zZtVQADXu9dvtVMJ7CTukACH6CAAiAAAiMjUDjMkzqqzdqrewuoMFtWt+teOgIMjy21laiuuGygwAIgMBEE2hchkUXv7Cyubp2aHGhUUC5nVlQCBAAARAAARBonkBJGW611WbpRuelkzuzxMig+QpAjiAAAiAAAvNMYL5kOLUzq1FffJ6bGsoOAiAAAiAQEygow0uLq5urTT6wVL0zCz4xCIAACIAACDROoFEZpgeFN+2LtBqdju65M6tx9PGYCGdAAARAAATmjUCjMlwQLnZmFYSPrEEABEAABHIE5kWGE+/MgvsLAiAAAiAAAqUJzIsM54YhOA8CIAACIAACBQlAhrFTGgRAAARAAASKEYAMF0NfcPCFrEEABEAABCaEAGQYMgwCIAACIAACxQjMiwwvPfDlv1r4/ISMfWAGCIAACIAACDAByHCxERCaIAiAAAiAAAhAhiHDIAACIAACIFCMAGS4GHqMAUEABEAABEAAMhzJcOX3htFiQGB4AuoTI8/pv5OHHxw+QaRQhAC9m+/82YqPl5d+L0QRLMi0XwKQYSvDG1vPbe9pd1rLx06ePrbY7iwePre1317FARN48MDpyep3pu2rWQSQWxr66IknUN26eDiFgVS/qoPwAYFSMqy+NLza4MeGa+2U5k8wHT52sruh/ZVa49yEMjX1Cmvu041rRaOHoIJH/XNj67nz/fc7Kpb1/+iARjy2F6bvQNsA/Yx+EvBHXeSRjsAm5TNfXCOiFnQVmJGoX19+jce1ee7A8kgp2YZR+GDaWldhXDPZBpooVBkZXljR31lq7CNLtWSYGrEW4PqSRv2X3091qgfRo9EJ6tDlhFgT7jsVth+ZjBsxdW0CL8/siTQfPHBayEOPnmWwYUFsVUNnqHXVL93YrNKi6+RTNvtwEBm0tBG0gbGVq0dr6TffKWtdo+lYRsywX+bzGL6EDC/sXVnbXFpUDvFkybDvDQfKmm3iKpbrzigYuQvOk/a8B6E31OB0h8jOYu0Omk3NzJmrLlXlLvLVshcY1tFhtKl27E8H5A8ZCO6M9VnpQBbcCxMW093bvg1UfJNLH3eglg3faTv73HmRb017/ExtbRLhhOPepjGWyVdansdusyCTXMOw501F6GQlVcouWZsK3bkDy7qYyhJtc+9WpIS2e+zAaYNr//ZZngEi21RBxDipRQs0rpGrXHpnkblfMpVipd1h9yCo1OSdIs0z9ogmoePSGc9UecYW00U0VePOmIrmZq9bV4WRup2LW092Diqiso2HnsnWleEmmwqOZ41A8zK8tLi6ubqyu9WeNBlOrA1LXzN3e4Sug+kvTAftq4767LHrF/huNMpBPZTsX5x0Bc2uOiRfPXfSahL1GpRLHFGZZ0ylq93tLRORzPN6Q9mLeUB8NfXL5RtvO1wunR/RSzNbfJdgbKFOwU+2yp4gF+oot7rnjA4F1Uc/bR05sJ0Wf9D6dBK7NVjStic7LJ+mGbDMW+z52lS5b291lZSSopxTexrI/p5TxHu6qtL5f7J8e4/7IDc3gw2vLkRJKS+1ecILUOcnVYq9p7y6U5fOKexa4MOGSg3PMlHETKNlSTt30m1ZcFXmZUEWSuPpeHvrtGn/ooxctDg6nd/Y0mrtMvJQ+Ol4lqtLqsoyrat/pHWwI8zEE2hahtu7Dq2urS8oLpMmw+Ye6G+ndNhfqBtS3Wymy5DHQWvwb1fjcziR9u5tGTeK6Iek3sFIqbpE3R/38tSziCy8pKoiUhapwirD4v5InbEdpTQv6toozedsx2RqQZY3f0x9nCiODtmHPdI2UwWeMaLjjosvi0mZprHrS+xRyf9VpfgjhqC+7JSGFWlXm1R3pGrMkJqcOhkDCahubFmfrLuxePgc1ZRKhA5koUxE105MfaUc9wCm/5MgGHczLCaXRVgusPs3VNQYqA3IbYNkIWckWj4ZI23QBRGtNCx4pnUZJtTsRXQ6X1mb1Phl6xKmRuXy6dlMcTCDBBqWYSm98njsZOuvDSsRte5O73tD3ti6FJ7U0W2Z7Bm9jsaIpfUVKm7CHr0D5yj7O1kK1d+ZIQLPr9rCckT705jkBCDZ7wTDDp1XAguXKGm87p5Uz95TQmRTyfRifhmj/lemEB6TeWaqlsriqon4CBq+21qNnZKKhiAqd6+1MD1KSvfv+WRFao62OilrUFeHX0yVJnFWTZ18aBVMJaJK5xTXxRJ5uZN6AkA0p4pG641NVXasgrq6KX05bpM1K49l7nzspRMZoArllNJrGATNa29+YDc9EGdKZ6hqZHvoWZtR6wpyzGSUrEScnCECjcqw2pm1uret8e2euLXhAeo1cStSvyC7QurX2AdyPQJ7kMmVpx5mVPc76W7UdU/SYHms1dRToLBHDsIbO51QmTPcp4vC2v4lguOiaMv7UeJ0L9aPPdYwPojNc2dYKqQv6wleSr0cdiom9cLBOIPSD8ZMknM+WVdMFz6VmiRMx06qXUTncaYU10EISpRw5aPsOAqV3d8tL0odkRE1S0am2hJXmQqZH7xKIPI4OwkhMhI2JAvlibpoP6JcquwOcoTRXQraIX7OF4EGZXhxfXXt0OKC5TsTMpy4FbN3L/dEevjco3OxlOKD6Gb2+wjqRoO+XibizHP9uO2dfc8m7BwThTVujRx2pP1jtsHlHnboXIq86iTCp3uxFJ+05RKLM8/r00U1hTT6w54BxaMxv+OWNSiPfQKqmKwZIkwvvMpmF1EmaBMJWoUKQ5Ui9Elwq1tfqUpxAOmqhCBrVh67KMaG6qtyvidoA5HlRMBNFAn5NHn5uVtiAqPi77Ufb7Yjqp3AJD99kWzaAASYGQLNybB9SGmVnhiW/zewX7qPSel+bobw1q1SID3vZ7qz6J6snS/pgegv/IiJbtQLYLq8qAuIIoYWpvqdpLqYLLx8qSuJ+r7gRkrwjBOxZ6IiUGpxj5+3xybFB1GfLossjwOzW7K7D9J0P0OelIg66XfcXrCoUmyPrILxkM6FUfZnG4ax2UU0Z1SaJpGYFVkYDLN0oSiwN69rzQsPTPrheQvB3BcqgNcMokqRZkdz3WH6ptY8qiYLOVqNCp5uXS79VImIlRxPyHWcqCAqhXr0vCK7FuWMQYCpJtCcDEeYZsYbDhaf3M89tIvVFtzrXPy1MRum1gHdz8GMqOnFot4kummVGbSh10ThmzmImOp8MyJK5bKz2V7XTHmZXbVstuukvE3jquCUvq9JlR0NJeiXQoWvsKcHXr/n9dOpdAp7riN6k5NeoagvttoZYA8qRUR0pqowGoI6KaVFhLfNwEWUV01GAVKuspNCDqkAACAASURBVHSaXNHWcpla4jiEae1JkfEVjjNy5drTdceUrPuZqF9VBNpH7Y8kqrNQ6QQopMHqmKzSaW5smcSrajMkb5iHKSfoJcqFWDNEADI8dKNXd5dd9Ap6Je5B7NWgvwiuBl5RtWHUX9t8nbap87EyebcxG2w6DnPJTzCTCPUypjguU618moM4b3bi6CihYbqXNwn29uRCJty563xFibzznj1hCqb46rwXK7lfzKvr82KzW03sQfPQxkiqPqJsskJ+VJjQLc73UCKiRGEyyhaQAvv15ZsqU0sfZ/GqTCWZWJ+8O0XuivLVNJmvKpqfvhFRe/uEExI6Hc9g0bp0m3GspPG8cS/R4CPyhnm+smTjxPEMEygow8l7ZlwnxzQpPY0tg7oDr+NQpaAeVnZw01i0IW2u0acP3j6jXnjwpIYs5nxFTzu1kEA0vwkiABmeoMpoon/MyW3okcwZFuWRxE7YCCGMNfER2jljSWWw5+4COKYgUIIAZHjG+p3K4qQ9AxUFvlr+IatKpPVuWpp2jmYg6sVtYnA2m5aQBseTyT32UY6gulFlINAXAcjwXNx1pLJqvSoz7ZzvsGazg05VOi31ZfikwtciwwuT8drkwAkiYg0CNNxUOwYy2wJoVBRs1KiRbK0aRzog0DcByHDfyPoa5iAwCIAACIAACFQQgAxDhkEABEAABECgGAHIcDH0FYMjXAIBEAABEJgTApBhyDAIgAAIgAAIFCMAGS6Gfk4GeigmCIAACIBABQHIMGQYBEAABEAABIoRgAwXQ18xOMIlEAABEACBOSEAGY5kWH0L3XyNoL8nBS9ce/Lebf7rvne0v7iRGZMZfXH9bvfU3X3LA90eq7e6pz7qHv9gcUoKO0gV0IPCmcdVe0Kj51l7vRJ8EKtmGLh5/dmA9+xskxmkdHiouud9OvIAkGHbUje2+Esyy8dO0i29ePhcHy9z2LNz+8l71/Zwaide7d67feTCyGurfIIPHB1cR0nCP+oefW1ChGSYsuSKMNRbEuklKtlXrNiG2ufBeF5TqjrrwZRv9PbgBdHcJDJv7sy11fT5kSTSZxNNWzJHiTQrw4vr8jPDdLy+0Egd1Pq0A79H6fCxk90N9ktyb+EJ5fC+93aevPPqfaLdqDM7ZxspWmjMODM9s+94kzr62sapj5QDHf1trp8ZupgDlUUrpfimlv8yptFrjGhUAxV5PK8pHbyzHr09Qw19hsXb5N3XK6+RDEdGksgsUW2iLM3L8KHFhSYKFjTZWjJM3ZwW4D5G+sr33Vk74ed44VogzAP1oX6aBbgFBihdHIUEBsn2/EmSOeLZ7IHKEnRS6qf8xO/oNWboZjO421qVdcChj5Y5ensmb+jTsz2PJcBIhiMjSaSq5fTRVMZCaSJtgwyLZuF7wzU/p3p07c7txEqwluGzR+7xVXXAy8bBZDXNZutLFEDObCt1V451Mq5YihYpq4yOXGjpZHfOtmmG/Ml4oCAKrpvm8gebpz7aWG216YB8UH8Z2AaI43ZkLO2/asF2qVHiflwzM0xCy15vYtY6K5l6ojuMSG60lG1tw60HOi2VY+Red7ngvm3xHRt1UqS77psN1RpDge3Hld2LpsV537eWH6CkxkleuMuuqp9y4WWO/muWZRgx7qSRqMxFzwFs7fc+piumBHLvKhc8ZV65D/3KMMKeqmK6r5LwkEgVNrxzB0pWZUrVbYopqkYlqPhUVZzMVOwVUGzVT2etmdunMyKkDqPP2OkHNx9jiunOGFO5xmUNehVnIprakaYmvs1sgsW3A86MiABk2DayxNpwjUlppYUsnEqPtV7unG1LGd65Zt1lbwm5Q9rsZrMpBTuVrVLe6d65bbxqumoCUzrOBSepJjPINT+ys9N97yhNle90713bU3OtmlX26K3uKSVX7U7og1bsz2I5VBLOPNVuLJbwM/uO8p6sMDUOqUTx6C3nZNM2LpcOp5aWf1ZuNlUPApyn7gxotTuRKndaFWXJ31qB6JovU9n+Lu5JbevivtJ15U6wl49tHX7QdvphF6mU4NxW95zxuSmd2hLFQhKmSQX0tTawXP20sfyQqkQxB1PvtryZAxI2m7KMRblYPmRPvWKqiN3tLbOmHtjmGx8UM2Mk8WGJNbtDfOxKt7a33Op4kGxY12KXCadz7qSxtkUSSLn4WSgbZC3Q1XwxW20WWgtQFs2H6XJUYXw++NKa5NbccfMyvCmWhxtaGG61O/UnpdWNUe/+V52IkkMlnEZBjeCRBL56X+yJkrjyDLaKa2SV7nzrOquUtRMsArjwIhGKSGZwSM6RjkmqaaeYOuk0m6Mk/uedzFqDlQ2kVUbntB/pfroUIpkMIlJIUs3Q02UpFRPdUVIqrqepuu8mp1YaE6SvfpIqcxYypEohiq6TdYVK3ISqz/Laht915jWG+nTZRXKvuuFlStFNv29y156KixvZYEImLff7XJtdoFW6OxZFUwHop69GOi/qu51JNtneB7XtiYjlikkaY1XNuLCMsWcxswZHdkp7mIloCV5typBR+j2tFVQ9G6oiUi5+U3SNIT6vktIjIZWFHUQqwv21LpdLrnZwvhaBZmXYq7alxdXN1bWGlorHJMN6Blj5vuwTmwMtz+on67S5Ia2Ckl56s9l0xk5Zk4gmtdNziwmpGQR0WmQJb9IWwYxVHv+ofbBH6xzKUIZJz+RMr0khljR1JgyZnFgmP1UIfz3F1Q5uZKo/6b16q3v8g31qCjrUYO3oh2MCU0emXCEur7c184q5flMmQn1oNN8YOoVRn2j8TtNpKnsCG2QuieOMJESJUI/v27Ox9dy5A4e3Ux/HjKKHoBKWMNu69tR3uGnsIhSxE/qXEnuimGlTQzXiXExSNAqR8/BC2DwXNkrcTydsb34D8GyIi0lnxKBN2iDyDYNJ95fqUYy9+m1dof21mwEiBgQKynCntbB3ZW1zZddSYNM4fvYhw300JiWcaipYi647UBKop4V9N5R8XBJXq8fmnnGX1BkhoiaAMcxzmtVJoeiUCE+Su2DKPOFVm3RCzmk1dRpGkpmQrsANNZPAQcikm0snIzUNVDMl/9pxl6u8QSwzqe7sl+VNjglkgNQxqalY1/R1Kz9VG3WFQipc5SYlinp8ofTVvXxUs15Xbq9yny4KErhEXHayR4qNNTXT49v08wcV9ghFURklaSQqhZTVi2vFrF4xE2nKhVtDSWQRqZes39geSaP6qkxHHrfl2MLUQpBUEN5kypXorRk73Y3qkRIJWnWKj7HB5IIwQxIoKsPt3Utrm6sru4csQ53oY5FhpXlK3qzgmQOli0pryaNlUWQjnbgKveRLKq5ZZm61XZpR6XynWU+Mm8eU7YCA3GJ2pilTu+ScvYVitfN1N6mjKrVQ0mKvWt2uqYnl+GRNN5qy8LePReWiUcXdfeu3Ek8qZ8sS0RbJBh1f1AelNUb3oXLqj/pxfzIwMx8Y+Z2Z3jZjdhSdbe5VEJUahTl5+Jh+mF4Wtj8bBMCcK5+wJ2O5NIOOY7V2A5dEstKY/HEPNYrUS2Vk6lce17DWrziXctCWqJgmC0rWFZNzyeQbBpMmRfVIgZMDrzwrmSCOByVQVIbpMeKlRt6pNBYZ1ppnddE4uEaeI/2zIfXSr1NoUmXhs4qQYdUGl+in2QitcuSJbiHzSuDtXHeYmrvBQjUNNZIc0HDzlIoeRCTxjjYep1aLw7VnvZeqjhudFHVXFl76JZ1WihsJdq/oKUpxj+/3oaQcztUQxgRdpPrpPeZE6SSFx/XLnFfcHfs2iExVEcLoOnDU/4aJkIXkFSmrQvcoKE6KVZigDpOxh7IT7iYPAjzVySQYrWVKBe1ZzKzlGTs5fJSsJ3WVcFTIZAvRlpg2ECUSRQwtzDXO3HnFMygI/XTjiSycoI3h5wgIlJNhmpFuxhXub4tW/fa3Z4c0TwnhztoJEl01R21lzzjHXE+sl9YrVZqt1ZEl84je7UU9jlH0lDHkN3M6LMk7ZmWaf9Lbu5xbrM3LdWTmfOAgkujK6WJ+isnK8OL6XXNVutEkyUdvxconZrzP7DuuJ5BD3zewgbilHV8KmXBzKQrlZdeJpXleYY395mSP2ynqCsPwfgCz8d70d1rMqIdVO5/D7lh1rHpn/rJ6gYyyKugo+95BkxsZUF6hAaY4JIr2GYGE8JNVoTanGmoEtp49ZEC99I1u6dyDcgU/TQF7m0rJ8jv14sChRlbb8OCBrn0zbhAyYY+ifVrto/aLH0RMlYugeUMZtrwKJqUjWtrJ03ZDfsK2qDYRZmQEGpXh9q5DYpv0ZjN+MLeecXnD5HqyAN/uvneWn1nSG69Yd80jv1Z07Y1NU9b0jJOa2fZcZ+HLplo/STg9HKWmnV1gJ95JtziVlG1JpLvigdrIg/SfuPU0jEWRHsZVOp30NYMwKl8SSOn7piIK/fbtFwmy2TRESPjiyUlyPqnLG+4m8zNiREFXaLmJA+1P8FObckGXVzrdeV+wdQokeC6MsqFHjy+yto0qOPBMkv4ldcFm4dM+a6sMs6MBTopT8DVbmFrt3kUW1rJH2hml4BfQsyRULz0fIFdGfXmrSJyqW/DxxyWychVJP1nJVpYlDhkZQKqZHqIJY/zsdCK67jiY2U1mWhG3K/5fmMTZqSjqJA0C7KAhss0nn7pHEGVAAo3KcMGaG5cMV72x0oliwYLXzTo5aYwbDwRAoEECNKoQMslZ09gl4ek2aFjdbgQmDUQAMjzg+EW1S+WG5ncgOyd1iCwGqtRB7plwfngabG4MDjICgQYI5OQ2nBTBvTlrBCDDQ9Wov/qrJpbdris155wX6Qbu6n6yiOaHh8IyyDigH2uRPgjMGgHS4ORsM7nIchoc9+asEYAMD1ujtGHKLACL13GIjVTDZjH+HofWWb3l3sm3GRaCwCwQsMvbmWlnWqX21+bH3yHMAtgpogQZRoMDARAAARAAgWIEIMPF0E/RYA2mggAIgAAIjIkAZBgyDAIgAAIgAALFCECGi6Ef08AKyYIACIAACEwRAcgwZBgEQAAEQAAEihGADBdDP0WDNZgKAiAAAiAwJgKQYcgwCIAACIAACBQjABmO0O/fjt7pGoVJv2vCvepZf+YoHaxmanMWTL9tGK8pGGe90zuEM8+njjNf/0bgtx8nX1UxJm8DyYLAJBOADNvex3wSZ/nYSXpYfvHwuT46LPpOg3mFlvjSkd8B9d8URpiULenYDnJv46sDIf1S+7GZWsekSQqT/BpEv81phO9jGsIe/dWEPm6uSaqIfpkjPAj0JFBEhncvrW2aTy2tLzRyj9X6tAP7CofVZ+b050rkh0oq7IxfLq3O2G8aDqMlU/V9iOl5+a2uX/HVmrO5D9tV1Htzl2p836mGMUNoZ9CGR2NPz+4JAUBgHgg0LcP8rcMmP3HItVhLhqkj0x10H2+PS37Q98K1kbxQeqq+DzFCZ2vM997UqUiNb+T1luERlnok9gTSjp8gMKcEmpXhhb0ra41+Ztj25rVk2PeGa65duS/7ev2gkWHjKOtvEtNHgs3cNbU5Elr66vC9286Bjr5VTBHttyK8jxOrfD2nWb3O+sgFPqlTNi+7Nt+iEOmrkHVbv+dE2qkCvawrv2lKx2Yoo2KpwOI7rOaSPBkBt7LhIoZheCpbOLX1pjrzKmIcevum34SXLMvrCtKpKCZx85a9xRlbTDqgsthiUrAI7HPnZTFlGBvR1KlDx5/djQLkqt6LaLOTecnv+JoAqggqC4nItJOeSFUirkKD7/05ODpfQd4UNlcWnAeBiSbQqAwvrGyuru5t1+70R3h31ZDhxNqw/dZ33hKlfyyrQmh3zipdpM8r0XeWdrr3zKYt0j8jihzFqLJ3iXPMfR/CqKlpW57TzOnc2TGGtcS6NSn0zrUn7+2snVBZiEv5MupchHKoM9HaOXXcps8VqVEHevrcSSsePNzZrxLZ09XiFCRO0alP727biNSPu96ZogQ/PakTNhhQ3PYq1rCVbdtbXfs1+7BQQaat/dtG2KqKGVhOBbdZUMTu9pbhEweOz5iikXlWkARYFYB+GvM6LI1GL30g4S0ZlPrBA6c9sNX2nDx9jj8jz41EHy8f2zr8oLKK4DurXI2c2+qeM4Mehmk+Qc+ibptWMoWwCNUFxFUQmCACTcrw0uLq5urKbiXGZm14ZdeS6VDGC6WGDBsD+toprWRMrQEb95Qk8MgF+ylirc1Gd1vtjlPQSAJNIsaSdkKYCZfJxXY9Kin7UUW9YduoO38XmccKFNFqsP5ksh5G9KoI1TWHvac1INe9qgDUpxuNsR1xoAdK3qyc6GSjiEpXjO7KYxXe77ilYdFxXkXU2EI5W84S1sgNDSfM1NZUr2KGwi91LipmGJj87MTSdVxklZSpI3lMdlYZLwvC+m04R/T0GCJhj5ZYV0d6KOAnFZVOsVW2nTcarIwR7cGvAhM4aD+9Wq9fwFShkAIIlCLQpAzv5p1ZbmF4cX11bbMZJR6TDJNzqad/SfaMc2zkWQVwAun1BU6PuVPg2WlvitibanZNhEJqd5bievqdSMfmywot9o55+m2DJQ+oN5RqGvRluV6eut1e8wpRV2t0XSgiayS7ZWkF6pWLLhd5tP5Mr9FdviS6eClmKSMthB7FlOn4OscRjQGqlkOhyuQbBmO11poXDzXojOfUuhZlS8EHbFJSaFWAjD1GIM04INmK/LKbfHn0IyKKLEihRY1wM/Cl3aSTLRECgMAEE2hchld2y1ulsWnqPmS4j9pSzqVSXyO69kDpovKAc+6sXs01S8L6c8XOf2UbvKlm0amF2unnoq5mHNxq/e5dcKUluZW5bC8fdaOyAZhjX6XYkiii8JCi8BRY9OMCV1gu0cUnL+UUkcQpm0VkrSkaWyIzlcfaEZQyw66hOBMVlsxm6dLVwfUiLBeshAEigG9ehIuKw4lHRU7b401Bh2Bd+sl2QqMfOURwWUThiV52iOAy6lHAvIWICAINE2hShvWktCzhdMuwUjU1FWz9WnOgdJG81Yw7a2aDpUcrsejjUG51F+P5vmZ9l/ZkqQDhVdndRAkag/vsvLiPtmt1lEXU7+s0o240lVfk2Jk+XXbNQr2i8NSPexuXEjw1CtfFR2GiS6qkxvGKMpXRexbT8ZFp0hK7y8KSlDKTyTeSLglWsOJSp6pM2p87ToDN2OPPJEtjvGPHQVdHyr0WWYTh6ZKcI8lZjvMgMC0EmpThTiS6CWEeE7ixeMNK1XbOsstrdiYrZTXyTAcZx9Tf25wsdU5Qfe0kV1gs9/pXvR4wSpDmqL1pcC980io+GXaO+YnKKGQqC1+Z0llQ/6s9M9FNq8CsMVK6XBcfZUeBha8pAgTJ8gqlTTa6Kvn0LKbR6VDpo4hhACqdGQqIcpkEhf3uaiDD7EHaZeNklNzJuvZUTVZnDeNMwyyoaLrIPp9hCpIrIM6DQGECjcpwix5YsovB9AzxocWFJhCMS4bNzPPO2gkSOSW6SghZ2yLvU3TcLJ9imdZ1VQaIip5QcZW+frSJEjmidj6bCW0+k34GKVTo3KR3bMn+bW/ZVSqiCay6S6tY5mS9rtlb7dvT5f43EJJgTVF13NokZcy5k6flvioD0JnhzsguXlQHBQhHA4ENrAHOQbfbvGsVM21nkAWVK5g6TtG2g49oxliXVFQHZSF3qqewWBR7ut6kQgJXzh7ai5ezx6TvVxxPqFCCcmAkpVcaQOfFlvvKgpgcXdXjDAhMJoFmZbjdYSU2O6UbeoVWq90ZpwzzPLB6JOns2h213Gv2RUfeZ9AjaEfWrRBHjikprl45ttPO8oFg43xbGc5Pgzuv3ZhRNUowYUxPR72hWRhOb9SiHtYsHpteVZ3s1TW7bcZnXeAwIhngJNB4wOdpRld07sbg3P1G+uQKopY/jeyFWSR0hZVYRzdl1Pb3KibzCfxaPunsSSbiwTfWqgLqaQAbXSbuUlZp0iDgwHJYrSlKXhlTQyuznzxYkI7UNJW4jGtqs9boh8rY3SAUsph1SoQwIDDRBBqX4V69ZPLWHf7kuGTYvXBjoqt5eIATnULWP5ukSkkaWU+6Jhp+s3e08PInqXKbhYD2MGMEIMND3Mx2DRg3YVEC0+AhBZPPptWFjqA5X5TnBPdxfUx7THApUMsg4BGADHs4+r11g9XWo2t3zBrtUMn2a8a8hZdrh/yUrbd0PXEaxquz5p1QwrxoGhzNxifgzxaQK4wZaR+RaE7z1g/MTHkhw8O2aW/51qwKz0z7mNiCyOXS5HrqRFhOKqKWn/2Hu4xtWXk2AYZtnDORjlvkTi5Uz0QZUdFzTQAyPNfVjy4MBEAABECgLAHIMGQYBEAABEAABIoRgAwXQ192/IXcQQAEQAAEJoEAZBgyDAIgAAIgAALFCECGi6GfhFEYbAABEAABEChLADIMGQYBEAABEACBYgQgw8XQlx1/IXcQAAEQAIFJIAAZjmR4/7Z9yXBVDdHrfMVbhaN08Fg9CIAACIAACPQiABm28rmxxR8IWj52kt6ev3j4XF5l1SsFJvetEb1qvWp4gbggAAIgAAINEmhShncvrW2abyuJg9W97fEXuNanHdjBPXzsZHdDf4cn/fKjDt4vDyEHARAAARAYCYEmZdj6nfZACbP9/PBIypNLpJYM02hAC7D8nFwwSvDfc5vLEedBAARAAARAoCeBkjLc3nVode3Q4oJV5TEe1JJh3xvOzDnjPcBjrKae7RUBQAAEQGDGCBSUYZqjXtndDNAaMpxYG068kR9fpgvmBvATBEAABEBgCALFZLhJV7jV7tSQYePkVe2UxudODaUh2lwzAy/kAgIgAAJTQaCUDDfqCo9KhvF12Klo0zASBEAABKaIQBkZbtgV7k+Gc34edmblyOA8CIAACIDAoASKyHDTrvAoZBg7szAdDQIgAAIgMHoCBWS4eVd4BDKMnVmDDvSmaGoIpoIACIBA8wSal+ECrvDQMoydWaMfADbf1pEjCIAACEwggaZlmFzhzaXFprv1PnZKR24fdmZNYMOFSSAAAiAwGwSaluFS1AaXYezMisYlpSoR+YIACIDA7BGADFf75diZVc0HV0EABEAABIYiABkeCt/sjctQIhAAARAAgSYJQIYhwyAAAiAAAiBQjABkuBj6JkdbyAsEQAAEQGAyCUCGIcMgAAIgAAIgUIzAvMjwZA6CYBUIgAAIgMCcE4AMFxsBzXnLQ/FBAARAAARa7Q5kGDIMAiAAAiAAAsUIQIaLoccwEARAAARAAAQgw1Mtwyde7d67/aT+21k7UbZBnz2iLCluRgzhCxf/+MiVmwtz/DqwR48f/vClhx7th8CZfcc/6h7/YLD3zi6u3+2e+qh79LV+cowrbg7PvHH1zH//+szvX75/ZGVfeej264cvr0xRR3f/L3+pIPz2Ow3bvOcXrz/24euPffjUnpHBr9f+IcMN13SQ3YVrg+sWa/DO2Xo1PYKGdd97O0/eu7YnKIL7CRkeAeQ+a3Ph7B8e+fmHX6iOdfDhD19/7BcHXU3VsfO1jVMfba6fqU45d/WBox91h4ieS3bA88sfbJ76aGO1TqlHEkZJ6S8ffnoga0cvw+3O80899uHrDz8/kD2DAtn328EHE0VkeNfllwoIMONtXIYX9q6sba6av5VdS4NWc399yqTmMoQMkyg26nr2kuFJhdzxveF39//8j4/4f/uf0M2JVC24+ofd+ye3sfWWYeUMPXb7+K4+a6dh6Vq9pbznxN/dfct9Wh5Xlkp8FOnEKafPDCPDQxc2aRJpTJ/TIcNZMowMJ4sw5pNF5wyaleHF9dU18Xkl+jnfSjysDFf4psPdRalGP0MyfPDsC0k+pGoTrbuB2T1lWHlCg/S/TUuXKRfJ/8BeeNLhoxnyWw+kmnQy/NAnJ0+GO60BR2MDQ5s2GVYzRsWm7huV4YWVzdXVvW3XypcWVzdXV3abO3DgKq8fUS6m3nn1Ph3x6NodtcJ65IK1xDuj5EcF5klXFbL73lFXik6L9Mms0cpZYsruyAUZgP1Xnb5Z1jVx+1lYzYgipSxtkEqvjq/t6YjcZUimocIYe/RVV3B3SYWxgwAZwJ60MFttmabD3moTUp9PKnpUv/tvHvz5H3bvZ79Wqabyd3/uLQCTPgm/1q0Nq1gDybCKuP+Jjkg5mg1+4kPnZ1981xIwYvnC7ivGJG0PFcHZRiWlRNhBVxHVVS6pimssd2dcjsrF902izjcxHa0mjWndl2eP43XcaulysbT/akTOObV3Qy/WutcVYTqtdlb+1SS5cZdF4pSstwjN6R//YJEvuVgmurfgvffZG9dv3DzfjdqYvMHj482Hf/9rtX5Jf4++wQG8k/aqmKD+zqP//esTv9zs8MyzF7ctT0bLoiplP2Iw6a1SFjmqY2OVMT4/Nb19/sbN6++c32tC2nZbfSBK4Razn375RGSJMsysdtOE89V9LcHKXOq02no6mlJQ5ZUGqOz8iMHisbRH23B1n0yh6ni+ZHhtXeyU2b20ttmgN0xiYLSWpMhJAgmJ+cmyakI6EdVn4nQCQTLptK3qmzN7dqR6sT71ObEsJc3q5b3bT2rJ7CnDSmJ1Qcg8OaQg88zVjjLPQmjr0UaVTCZHBpSmLSOPAGwiRr+l8YZVRadAMnzwyh9271fCdvDKHx65+G5LqZd2ZEmVnSDFk9JGzLz7vNVmic15w0b5tL6SpgoF5aGAnd9uPfGhPSYZjkSU0qFLXo7SeBtRJyUUmvsUCuBKGnQ0amdWclGQZPjWxnGz+kvSJVZPK/ZnkRw6JaOQeivWaxv2IN6fpUTx7sbRu91TrNnpLNLyT+ZZF5kGAUb4Oy0vSqzKHTI4t1ns4NPv3Lx+4+b1S9sBuqqfJCFOPDYf/r3f3Ss9CGSSG7MVSx2eVCcISYkHAmNFy2SqfE2lSSJZE4UuBWlysNwWge5lReDGjae/Et4OFRBI85zSv3E1SySEwgAAG5VJREFUUM2cN2yF1oQnJsZ4Y4AZr0gDjMrqTEnvTSJ6EGPsoTQNK5NmRX/S7rTmR4ZbbaW7q2uHFhc6+thzjuvxqqaZvxrpk3FVdRSrSfbA2BOocpu9SVYOJYpWY6jRSJGmpIxA2qsifBzdZJoviG6aSc3zbOOkZBZkm9Bdn0kAJLIkk6O7VRIB4jQ9vN7op47SMxYlw39U0ttm/5J0yEoUXbUS2Gr3WBuWIWNRdKVjl1TorieBUaYionagZUZuZEARxbBAib39yTIsIlJ5E352VFkKVHbXCUmgt4Uq2JCVlS7Sb7l9OojIpU6dZCdVa7AKFiWVOUnKajVYlUsldVd42yo7GkOQ2W6IQMbE0T1Wg3jDKZHggvP/1TIs5YG0xIgHt+0KGba6y6pjtDbILtAnYZjaCZzaJTCAN2ycWrY58X+1DMsip0KmCJMMO93loYnR7yCR1PgmYaRoCfMkw6rYamqat2g1Px0tfTueERWa5LxemoJ2zTdWF+XhkdMWereqgEpadLKe5LgEXYOQGinahAuQPxlbRbF8ZSWP1g0Uwuy8wJkEndkDBKAoYtihiiMzFayopD2zYDJO84RLamTYU0cK7zQvAss6F8heZprXE0jjOmtPNM7UcevhZIsitDvSpw+y4ASDslTmm+t22UEUitimM07qctIVn6czwo0mI1MnyWc1zreqa+lGW1ako77n6jm7KmJCa1WYox+kn7AKNdvmNfiBnlAVkuC3q0AXXUbkpRnloAbvR1Qh8zIsI4osQslJSLvOJTsscxbG9mTOkCgKjzwMFuiiLWxobTrrnAybkUcIiqCJ8U3PUYK1Rx8MuoUiTCddnBBOGKvRtWHjDdO8tN4yzZ5xaNZghamMRY6gv7SppmelDGuFCLzb1GSsJ8PhJCp5eOwrT5UM20LlGk1PjYwDxGc0ZA2tuAxrf9r4uKRq3hSxaFRVMhyoo4il2nZlsp70qnQqnd0go4FkOKOmTobJcw3FNeGG8oTwXeGYUsFTyhfMJIfCzz1AbBirtb++6+x0/UZCm7kZRyoeVM2gP5XMmEVQ6dspk4RGOgtVRmOR4SBZMkz4zaKAo5ThVrtDeq8hCAnkIjcrw6lJaTlqERD8GtFPc/X9OF9FggNcalKGaUNWtDbsb9oKGQ1QpEyUeHY0yotd2yPB8u1AMgxvmDvBrAzrxeAJkGHe3iWd2kFkuFIOe8kwTXeTR66UXkxBc0Rv6XcUMhypLGmVU9OcdEXnSfw8r1rdfVGwlO+b8pij2Wbj+/r+cTRM5Dn2W/vW78YKnZz6jlLIdBpRFxFHJGUN9kM1LMNSDtXIIK3BVYsUgxdfASHX023CYmgNy7C2wQyMoj1uccX5Z+bHG6aFYW8xOBbmGu3ex1e/AYU9fpgOuctq1poEWy7oRloikgqnef1dVz294RqDg9BOgyiyilHIKV91hsYWZlo4tNYPbAmYLMKsw+gh/IRJcQG9M4IkZZpIIWVM5aR0MK/bosD5t2gp5bMOKKnpIDJMmXoKKuFUJqsKqAJcubmg5tU90aWI8kzokYeF9aos4/1EMhnOD0eeqy5LEJF+Jt60lVI+JdhSIynu3cCNDtKnsoS2eQVU6LQGq+eR1PDCbd2qF32QteHAhmgGNTstPBZvOCd48Y2TW6QYYG04SDyeBI7PcBQ6L+eWA5j8M0KamGOQs/ep8PIG7H08P2vDvCq8ZF+PR88NN/fAEnXxYhuwbEmkDVZ6g5CBNrDTbF4mRUrm5qWVrth0WNH9ee+gQVB4Fz24WvUzsMq2ZmkeHYsXTIY66suwfpDJaHa0UzoeoNhM+SBpkrTHn5H219GpOpIpBLm0O6ys5DWKhVWzNtzivVR6apd06wo/9iNrnI8pulC+Sr0MJdDXSE5KSHi4U1pcypRIPI+kTfWz8Bx33TZ4kCHmsWWbSe+U9mVSyJjh48vhmX3HjV4KN5rDbByN31hJCep9Uq9t8EHk+/o2sM0yoisFjQmMAcZCA5CNt1fJO/ddZ4oeaLNLvD3ITumnXz4hJzxpldSflya5jeZpg9njsCzaKqkuppjxgrFwuHOCF6U/yp3S+34rpTRcmlVZE5Z4+Xw8MpyEZunVOZgfGVajfrs/i3ZpNfi0EjdKcvjECjE/OUNa6C0Jkz6ZB3tIG8yjtPf05ixRtTowJ+uJLqm7dya6N9xDTX2+kDmvWMKenbOUvlHWHjKsOgKj3FRePXUsui0PoHnuyDtpQIm4+TTH4g0bnaadVkr8lJiZ1V/tHNu3aPkCpkLaS/rAyme1DKuaVTPGNrpImZK16cRtoGO2fIdhQntsKUTzY0fc5CtdZ/3ShuC5YZYu8xBt/GSRMo9nmznMXemzkqrReaWvlJQve8owUmt6xtfEVWfMsUo/GTEholxMlykvEgtp95Ol3dfheytlWeJXWg7mDZPGmLVhKUimXryJYhugyhumNV233syJG3WPZEbIsN7VZedj6SDWP3qlZfpFLgN5w2SSzVSOS0x3QYprSmQGJZUy7KepEzf0vCJHe9k84JypiWjsSd535uRcyXAtIqYpT0rgvOBNioWTRgz29E1AuPUiLsmwr6ziap3mF7+0QcmSnB/uM8E6mSJMcwRYurz1YNY/I+Fcv7kXucxE7bMGe0OBBBajuMkiQ4aba7LJCuh5EjLcExECDEnArXZ7ncXwMsxvMRQfjYnmh4e0HNHLEkh52OSsSxmmXQJpV9hrb5PeFWdQR+XttNo0u+CNTipLOkfvlM5AnPS6hwxPacVNjdlquttuE5O3wwhkWL8hyL63IZwfltnhePoIxG4fCbPcLx3PiExfMSvv5dgbJmHua780feWw8U8cckU0+cBS5WCkknLhRgMZnuTamWrbeINVRoPNA8dDTUrzveO+N9xjy9LU3qRT3QyGND5aUvWmZ4v6eY113dHasJwMqNmqSYnxveHG6gwZgQAIgAAIgMAkEIA3XHOghGAgAAIgAAIgMHoCkOHRM52E4RVsAAEQAAEQmAoC8yLDSw98+a8WPj8VVQIjQQAEQAAE5ocAZBjeMAiAAAiAAAgUIwAZLoZ+fsZ6KCkIgAAIgECOAGQYMgwCIAACIAACxQhAhouhz42McH6eCaj3gfd4CXnYYun9zPpTCn2joy80xJ9n6DudIZ98rY6uHtwf6PMn1cmWuqofFh/B4+CpalIveDcve6emMmP0StXaOPOFDIedWqplFwqD14ZUfEF9nHdFsTbgf42qphlDvSOav5owMa+YzpXF/3BZP/dj5i2hNdlmgw2T7BhlOP0tmcHpzeRdNnmFalyGF/au0LeVVtc2V71vD/dza/XPcSp3Sk+eDPMr4oIvn2S7qv6rKU5K5djXl1IoU89O9bmV4IMzyW+/9GiB9F7JPx48+4I1kr+nRGfobZT220o//6P7oBPZw3HNR5DoK0zxt5Kous23sHoYY21otRt+R7T7epL4RpP68NFd+SGmAau+oixpgREcMsQG1kstlvzJrPDLV+JTm5l8ByQwVGp5uR2UXolS9K7TmbOqWRmmDwzb7w3TRw/XFxphChkeunHzh9jEK+I2H/7ty/cPnWyPfmcwGfasUq/YlTJMBRHSHnw+1osrGqeWUiefWnqtDAuFDr89THF7TEKG33wUWedMovOl3hFNkjliN7qyLIMNUwaTYfp2tV+hfvUNlmzdOu1xU6TbQ/WofTB6YzUYiRsCTcrw7qW1Te8Dw+QZe2eMWel2NsTVQjJMg9AjF1p0D/CHeH13hwLo7x+71S8a1arPDwd/esknut+8HlxNbKqkRCL207963cj/IHGte578S6HBXl2Qc3l1H3+cnH1l/XlResu8+dSozkgmpY79iPp1uNFrclMuuPxEqxRav0S+DNO7Z/OBvXJ56Sjf9+LN3VeMY/TEh/ST/ePwU8StNom00ezeMhzVqb4FaO1WfbVeL+Ke+qjrLwPbAGnLI+d1Y9WKd+JzwpSImRkmoaXPBsef6eWPCqc9YPl5YKfTnJr8ODHbpoqjcuSM/P9VwUW5qEnbxuxdksH42Pv2s5io2P+Ei6iHVnzVfR86/dHJesmalkBCzvMfLkfpYZu2YSxXEfc/Qd/G1tb6wt/msZ34oPXPvbkZrxMQ0Ez63CGk6H3l/Fs3bl6/tG1D4qBhAg3KMImudYWpnEuLq5urK7sbKHNJGVZqaiTWW/xTonj7yAUuPkmjCcZ3Ua5rjs57dyBlofRbpyznoyjH9CXXN6Wqo/qrYXaO18gbqS8JKl0SrmfwATKSZDdpHGukCuBFN3b6Ah9/YsWVIiHDfX16RedIMvyu6rhVf/0C6zGfZNEVzpOKQl281mw6DnpVUxCqa6r9VBfJKrtx1OyiCn3Qqv1ZJId37VyxEOzXNrQckv5JaVRWqZMbR2/Zeebk1yBEag41x3UDBRJaLfx6JGGUNVblTlVZ+I7wbh8PoLTBO866raxqtlLksCm4lMoomyylo3RUpyybgTVMNZuUDCvZ1qOBYCjg/aQ0lWbbBFttdWv7Q3x5lY4z9PY+e+P6jZvXb1z+ekq8RRZRggg/IgINynA78obbJMONrBAXlWHZvbq7Jep5jetsqzaSW31LROdjGZY3pMiIZFhsxBWXKu8xJ6vJYCzD0ldWss1OcKisviiSDBvxVgV3EbmwGRk2/rdl1Y713pjq56jHAWrBWBpsArsEwzNacVX/++EX9t88SN1oLxnWfSX3m25tOOyCo6q3ZmjP0iklaZX7mdRRQhdN8KqkfE+aVdM5rFxk7QQn9dt1yqnUYh1V5on0SeCVO05mp4zpuqK5vCyNOmLjAlNxcnqpvFUzscFRyH/V2mZ9Weci++0hl6w/C6KKkAqZlWHRMKjNmFFCmAiJvbRNSaw/iA84qJ+u8/HYwhtOsPKre8wBmpThDi0GH1pc0CVs7zrU2EatkjIsZE+0/kTP66lpu8NT2d6zB9waashwIlbqPhylDCd91naHZ6rtvHQgq8HPFqup+Fh3FIAaD01Z2zSZKul9SllDGVYpsPfME93eV+Gy95tyR9jf/cLFPx688gd7TO6L6hYDb7glu3UvWXaYTA+bqhfbTkjYvN1PvgyHzrEf0dM5PyLfgxTdeqvaSJ4rFnKYUtyU/Eep0RjCyXmbHeKjH+w7Hg8I6u01S9w1tsjpg1DAdOejhNA4rCZiUInsE/MksKwsSiGTrF6MkALpVb3IXSguGRDkzrMpJt+wLYWB693I/dNLGW9w6bLg5/AEGpVhNVO3sqmkl/5Wdu2ei0nptAyTYxqt/nrPjEZyq+s7Ou/pd2bqieKGw+F6d2+nVccbzsmw99CRcnal7EUqG7q5UQC6+UmGZTpGWaVjbbqJlAybO4cm239N69M9ehwnw6Svun80bk3YLZpJ6WDm0JgU9qphvRjz2GsUiqj9SHvGn/UVRQjcUC1ywjGlLCKPWStlhfBzEVLyT9PU/hKvNw7gQiX94KwxokQUpn8hyeilqThTIyojVYlmTlicN56xNwmcSTabiF+QXO5yJOd5w7wwbJSbLnmufL0buX96vtlcg/h/5ASalmG/APE0tWj9I20BU+EN+3AmyRvmDVPCSfVNzU8IcyVaIVQHnsMaqeyQMuwlro20uWdalLLB20qdbIRChkU6pj9NyLC6FPpbJmXqxEWfm5PhWO183c0s0CY8S3JMw51WyeiR7xspeie9P4uyMEu/pqSCVavNq7+nbu1bvxsOCIKV43T0Vrt/Icnopak4mVGiEk07J4U2KqhOZpIdmwyTAW6jmafBrXYHMmxqSlbo1BwXlWH1/NJsP7BEvUbaG6aNi5lLpklleufQG1bBnBs9Dm+Y54p9BTVGdvRMct4b5gC/f/l+JXi+locyHLm5manmUK3j2WxrXiYFd4smZLh7WW1aeef8Xqci6T7a9ObRVeqmE64VJRh5Mzl1ibzVQCOzyhfMD9NPu+XKFipIjc5Hc9e+8HPcpH4nT9q8rAarzc8qzVCwU8bYSjQHmTuiffDpd25ev3HzfNdVq4kSVQ2bpHxcX8ziM854UkEpw+Q6i4GUzZdCjnpS2veMbV7iYJi14fb2eWzRcnUtqDZ1spgMB+vE5p4ZF4LJ84a1s2v2MycLTr3zk3KHFwcj3dUboel47DKsl3g9X9Y9N9zLG3ZrseGksS/DqXSUL6t3e3mNhM7beWnSWpv4/b+8+vDT+haiaWeh/W9ctcEIZsrR//ol1adfv3Hj6a/Yekn35qZ/9K+yBudcYZrkDHrwtDcTCBuJ7l2789lMIFs9O7PvuL0q1m5ZktXOZxuSSZLi6nnj1zbsgbepih+UqogoKoUEO3ZzqSIoLzfXLcwzhKmw1n6RrAnQ7rRyQ0zeZJR+6oaXeM0iq+tY6bxTVimf7+5351XuVMvB+kIuWZmOsNzlq06a0ZsM4Dchnakxu2qIwInkBigiixw9HnTeuPnWswfT2H3jEWbkBBqVYb0ni9eGG3lOyfKaRBlWjduIqFkkjrZWeQHcVXKI+ania3toSso61rmbzWSX2UQtbtfsXUcyqfYY059zf1PyGSTCauei6OzIEzUJZtZo5XYq7+ElUmJtTOCpc3Zsp9Bgag9+Kfy1at1ganvD1EF/+AVeVnRzhkGXTd2uu+o7YQwqnOEgPqS7YrU1t9SqH7r1NYxEkR7DVecDRde144dRJwM3utNKOakJEY0SFA8lp3xxLpq/O4ylWpc3JefeHgidIzekCm/YLPoa/mKJl6VUP4nrDYz0QMo+pGvk0MuUFDdMtkqGWc7dhnmKa/KtlGFWbpOXTsH3ufNw9L2WD6Dp4dFhqxcNHzQqww2XTWZXSIb1DSAtmdNj0sVgb3PL270176xUL+nPfETzw/ONKDlS8XRxZvnQPgN/9BbPqRAfOcj2uppKevzocGpKf2aRenBKtyLIMNpZEwRyC7T+pHQTlkzU7ecZQx2lXKRI7Y2aW0RV2yw8jKW71DEYE8yfUxsgf9140rpV0Egu+fRwNT1aG/Z2QsxtMytTcMhwGe5juFcnuCD+Oq4sO2RY0uC1T+PQRPPDMygwdRttPFXgcZt1MpE3zNPpvn+sIKR3k+Tp6elorAqXbU6Q4bodQdl6mtLc7bKu3UsVFAQyHABRe7V4mb/OlqVZlx8NR80TJJ28Obp5SYntWnX8LkyLQu0mcZtI9FuA5p1ecJdN2k/IsG2+OAABEAABEACBpglAhpsmPmkDMdgDAiAAAiBQkABkGDIMAiAAAiAAAsUIzIsMFxzpIGsQAAEQAAEQyBGADBcbAeWqBOdBAARAAATmhwBkGDIMAiAAAiAAAsUIQIaLoZ+fsR5KCgIgAAIgkCMwVzK85xevP/bh6499+NSeHA6cBwEQAAEQAIEmCcyVDLPjS2IMJZ6TNz+gmCAAAiAw2QTGJMNLi6ubq2ubK7uWwjHFwt4V/sKS+r+hjw0HNjx6/PCHLz306GRXTGAzfoIACIAACMwkgdHLMH3N8NDiopLbUIYX14U2s1QXUGIlw68//DxkGARAAARAAARKExi1DC+ur67ubbc7LfJ6fRkm3fU+M7x7KZbq8ROBDM/kiBKFAgEQAIFpJDBqGbYiGsswnVladDuTyW/e1LJtI47/ADI8jS0VNoMACIDATBJoUIbVjPShxQUtwwsrSoAXdh1abX6F+ODDmJSeydaMQoEACIDA1BEoIsNuLpoc4saXh1ceuv36Y7eP75q62oLBIAACIAACM0agcRmmrVt2arqMDNO89/NPqWeIIcYz1qBRHBAAARCYLgINyrB+VMnNS7faHZ6aVlu6mvwjb/gXB5vNtMkCIi8QAAEQAIEpIdCgDLexUxrCDwIgAAIgAAIegSZluNOi54bNjDSpMj/d1OyYBTulG517aLZyUTQQAAEQmC4Co5ZhPfOsXqEl/sRENCmxvlRCg1vtDmR4utoorAUBEACBGSYwahmeBtcHMjzDDRpFAwEQAIHpIgAZ9ubop6vyYC0IgAAIgMC0E5hDGcYXljDyAAEQAAEQmBQCcyXD5nvD+LzSNKwdTPsIF/aDAAiAQB0CcyXDkzL2qVMxCAMCIAACIDAPBCDD0GYQAAEQAAEQKEYAMlwM/TyM8lBGEAABEACBagLzIsPthV34AwEQAAEQAIFJIwAZhjyDAAiAAAiAQDECkOFi6CdtRAZ7QAAEQAAEmicAGYYMgwAIgAAIgEAxApDhYuibH3MhRxAAARAAgUkjABmGDIMACIAACIBAMQJjkuGDT79z8/qNm289ezCxUbt7+fqNm9dvXP56g+9ymrThD+wBARAAARAAgfbCrtHL8N5nb1y/cePp7vm3EjK8ff7GzeuXtr9+CTJcbOSFdg8CIAACIDA5BEYtw93L1985v7fdaX0llmHlIp/vqtdlQIYnpwXAEhAAARAAgYIERi3Ddp45IcPufVWQ4YJVjqxBAARAAAQmhwBkGJPDIAACIAACIFCMAGS4GPrJGYvBEhAAARAAgVIEIMOQYRAAARAAARAoRgAyXAx9qZEX8gUBEAABEJgcApBhyDAIgAAIgAAIFCMAGS6GfnLGYrAEBEAABECgFIFRyzA9p0QvyVJv0TJ/N57+in1c2J40B5e2E2/asg8+jeigFF/kCwIgAAIgAAIVBEYtwyNSzZELcwUCXAIBEAABEACBUgQgw5iUBgEQAAEQAIFiBCDDxdCXGnkhXxAAARAAgckhABmGDIMACIAACIBAMQKQ4WLoJ2csBktAAARAAARKEYAMQ4ZBAARAAARAoBiBeZHhkW+9RoIgAAIgAAIgMDwByLD7/OLwNJECCIAACIAACPRFADIMGQYBEAABEACBYgQgw8XQ9zVcQmAQAAEQAIGZJAAZhgyDAAiAAAiAQDECkOFi6GdyWIdCgQAIgAAI9EUAMgwZBgEQAAEQAIFiBCDDxdD3NVxCYBAAARAAgZkkABmGDIMACIAACIBAMQKQ4WLoZ3JYh0KBAAiAAAj0RQAyDBkGARAAARAAgWIEIMPF0Pc1XEJgEAABEACBmSQAGYYMgwAIgAAIgEAxApDhYuhncliHQoEACIAACPRFADIMGQYBEAABEACBYgQgw8XQ9zVcQmAQAAEQAIGZJAAZhgyDAAiAAAiAQDECkOFi6GdyWIdCgQAIgAAI9EUAMgwZBgEQAAEQAIFiBCDDxdD3NVxCYBAAARAAgZkkABmGDIMACIAACIBAMQKQ4WLoZ3JYh0KBAAiAAAj0RQAyDBkGARAAARAAgWIEIMPF0Pc1XEJgEAABEACBmSQAGYYMgwAIgAAIgEAxApDhYuhncliHQoEACIAACPRFADIMGQYBEAABEACBYgQgw8XQ9zVcQmAQAAEQAIGZJAAZhgyDAAiAAAiAQDECkOFi6GdyWIdCgQAIgAAI9EUAMgwZBgEQAAEQAIFiBCDDxdD3NVxCYBAAARAAgZkkABmGDIMACIAACIBAMQL/H0ZHL34YA4SDAAAAAElFTkSuQmCC;" vertex="1" parent="1">
          <mxGeometry y="110" width="397.52" height="200" as="geometry" />
        </mxCell>
        <mxCell id="Tr-p309xJlKuGFnzpVve-2" value="" style="shape=image;verticalLabelPosition=bottom;labelBackgroundColor=default;verticalAlign=top;aspect=fixed;imageAspect=0;image=data:image/png,iVBORw0KGgoAAAANSUhEUgAAA7QAAAMFCAIAAADLMy0pAAAgAElEQVR4Aeyd22scV7b/58/phz4DgkbkFxnHSH44LRmcRhxZYEjkHuNwIs3gFxMPiuOTYQIZCIZcBmwTiCHXwQE7wmQIGBQ0oDw7+CUPBoPJs/+FH3vtvfZe+9rV3dXV3eovGFOqy7589q6qT69eVf2HVruDfyAAAiAAAiAAAiAAAiAAAq125w+gAAIgAAIgAAIgAAIgAAIgoAlAjhE4BwEQAAEQAAEQAAEQAAFDAHKMqQACIAACIAACIAACIAAChgDkGFMBBEAABEAABEAABEAABAwByDGmAgiAAAiAAAiAAAiAAAgYApBjTAUQAAEQAAEQAAEQAAEQMAQgx5gKIAACIAACIAACIAACIGAIQI5ncSos3Xxx6cGTV0d/BfWHa1++vPTg5fm3Z7F3zb4p5uwPd6/8sC04rJ47vvvGvVWxZnTOtRayvfXk7pUnQWtnpG1oBgiAAAiAAAgsDAHIcSW/2en9enz98c2mpsUE5fj84fYCSfOpex9defLRucv+wH3w7pUnd7c+8Fc2q+zRrFPK7kv8TDUPjQEBEAABEACBhSGQk+OV5W6/2+N/3fW2JLK86Tb1+ivL0Z1e7nwiludNjvMjkpfjVz9RwWbv35eHS/M8fHkJTkvzFP348u4bscRPsT2oGgRAAARAAAQWlkBSjtdWev3u6hpDoT/Zj9unLnZ7F5eXjH7RnyffjxdFjufchnnG0uQsx2Jp6/HuKe+QMT4J3Hzz2fHe9zujlqA8Popw19U2lAMCIAACIAACIFCdQEqOVWDY6W+r3SED3qQgIkWUnTd3Wm2lzqunVqpXWcOeZx8fX39m/r35sSyQLDa16ZXvH1//9fYrHSUx+thAZdQOvMllUHz8nVtptz4bIsWCIrUcjhVpxFEEVwVu2U05reKb8xzK3b75oe6m2u2Tb2gHtdDi8jm92GQbU40v1s67EHIiMEyF84Ed2QCJlJddYy498Erm1oqqTUfUmu2bH+qqVRfefhI3jMt3Ta1lzUDdzMeVR2qJmT8j5t4MbG0tTFAICIAACIAACIDAQAI5OfaCwUur/a6JHJMccxRZlb60vtpsZoW22+/OssGcfczLV2/vSW0lr7UGzO77uHeVoNBWK9a0lTd1Wq98/9huoljgiJFjMlfrtUpkP/nGDMlAOf7yhUsOJqfUFksK+0KVo1a+2P7yxdp5slJbsg5e0lYpx7l6zfp2UY6pAbYjWs2tVRtTf6A8mEojjVbtITn+8sX2zQ/VPqpHT15tq628Jw/iqAFX2/hoQT2HNyAwTA/Aec/qjdsM/VFKfQaL2jNgDeR4WGLYHwRAAARAAAQmRCAlx+2OsmGOB9OyCCSTDXd7FEjWy14geYAEjNsNsli2Yb8uFU72vYQCzGZnLcdCeb3vweNjfU8aUY5zhtru6Iiv9cuW76aBfWrL1HFlisJS4NYJK8kxR50N4VzVkZTbEclHjmP59mqMWms9m3aj126Ifaw6+8PnA2/9+dutH4/if2t/Lh5lC1HiO/CVFBUE2hbYznyHIGYUkdSf0J6lp6grLewF5NjOQyyAAAiAAAiAwHQJpOVYtck9dacTKuTt3D2u13BCRUFSKaIcfKmthMbEgyOr9uRYq3Pg1kJlCvWWxs/kPHhJCGb/SFKlm5JKihwMrc5kmW43kmPSa09VTfmjyTFnceg8EBPfpaYGsV7ZQlpO9ZEixyr3o90R+1STYwG/RDizm3q+bfD7KOixvHfPjlB++RD95Yb7IiLTSFHIUJouz0QsgwAIgAAIgAAI1EwgLcc6ckyvoTAe7CRYR4t1ZoUR6Niea26l1QjPaH3nSG0SuRNlOVZFydBgINmdEeVYFUsuaKRT+O6QcmxldLJyHISfNeGoqb7sSvENxt2FnBdQjqslpistruDxAVj8CQIgAAIgAAIgMCkCCTmOX0AhMiu8N1coZ202s6IgqTk5rhQ5lp5tnvbz/LhQrxX3AQsU6HU/7REZp7NeE2cVJi2SLtxuk4gcDyfHpoVCfINpOoYcj5dWMYHIsfzsJB7NrCetApHjYObgTxAAARAAARCYGoGEHAsVNs1yupxQ4UiXpWjWvizTiIPC47xhuWZw5FiMgTxQ1xKvCWqv8qdMdQjlmALM7KY2TszC7VIRxpXj/PNwruSwL85xuT3emonIcdgGMTpVNtWfc1ylAVqg/cT3Kq1td5BzzFOrCmfsAwIgAAIgAAITJJCQY5Nt7B6zI/3VT+C1dZaFez5Pe7NLuqimAmPcCPUDT8I/grdV2NdT6DQJG9gryvFO71f5BBXljHqRY/X+iuvPjm1p1bq5dPNF+Mid+1Fo57su9SIjx0pb+UCnsKNFjnUeMJcmB8KVHPfO1aXmYmDDwZ+iTOfQYh/Z8cnN7Aqx2HrfVqFniHsJ4HBdgxyLaTMcOhwIAiAAAiAAAvUSSMmx9zQe/UiefHeb8WP+8bxm3+OmO0/yyl9te8Jq3hWg32TsPRFVlONWW7z/+Hrm1xxU8JgrrexA5LX8s3PsvmYIKXisH307/zYZp91BbFI72PUiv0K/Mzh8IC84UOc6i8OpatJTfvbO6ntJjtsdfkWx7ouX8iHEN9CaKcrx4FhsvT6ayuoJaJT+rLcx9V4jUBoIgAAIgAAILBSBjBzHsUOsAYH5IlD+Dbzy7+c13lPI8UJddtFZEAABEACBWSYAOS7F82Z55NC2gQSUcabfdkwvcZuln2tWTxDOUnsGssUOIAACIAACIHBSCUCOIccnmABJcPTCY5LmrQ8aDw+XLiL1JkDPVNfQGBAAARAAARCYKwKQ4xOshuhap9VWT+Z5vxGtEioG/njeNNCRHz8JWjtXV5OS/aMjIAACIAACIDAnBCDH09CgOZkccB0QAAEQAAEQAAEQWDQCkGPIMQiAAAiAAAiAAAiAAAgYApBjTAUQAAEQAAEQAAEQAAEQMATmSY5Xzvz3fy39v0WL7aO/IAACIAACIAACIAACjRGAHONzEgiAAAiAAAiAAAiAAAgYApBjTAUQAAEQAAEQAAEQAAEQMAQgx5gKIAACIAACIAACIAACIGAIQI6rToWbbz47vv7sce9qOuXlle8fX1c70L9fb79StVhT2tnHx9cf3wxf8fa3tR+Ptv5154/B+vcu//7zvvn31Ua6PcEhlf/8/CtV8m+fvlZvsSehtDM7z/eumX8XurX1SM2c4SdM5QGtrZ2oEQRAAARAAAQWgwDkuKrFluRYm/GbH48oInR4SrtJjm//LVPsa48e7f8OOW76RD39sH/teY1y3O7Q1Io/GlWdmZnpUT784+8Kn/SaRlpuKraCAAiAAAiAQKMEcnK8stztd3v8r7velvfL5U23aXVtpHvzKJ2c2bdV7PR+PR49+Kc05Tgt1lOQ41FGU0ayTUj76qP+KEM8Su1yZjaxXL8ct9pXb+89O977fqeJ9utxgRyf1PmJfoEACIAACIxLICnHayu9ftdZL/3Jftw+dbHbu7i8pCsmh+ZNkzab2ZbjESN/JNa5Y6+s/Otoq9nI8SiDqOT4BNtwcI5NQo47rey3B0Htdf0JOa6LJMoBARAAARA4aQRScqwCw1Z/VYdJiDeX2p3W0vpqr7+yLChQFNlbM7Ho17TkWCdU6Hzi786KvnNPi4Kb2F8IaNlRRpRjnTesk5LD7OFElPfy59QRedQv73nNvvHp1d8fbd1ob/zCuc5esYPkWJacPFDsIBrz1Yaq92dKHelv/UZVy4aJo6omSd+5cO353s4dHjgaiO7RnkiTWN58ahOL93YfyqlujkrJMR11dMZBUxX1N/ddRXSUKTlZ7NDJFTzrKOqsk92D2LNKZOc8eP5qgo7ilXarSLFQs12WQ9bO056nqyiZN3VUyepAtY+uN84Ueuuzw/sHBzded6DEuYCVIAACIAACIDATBHJy7Bnw0mq/q8PDkTe32iquvHpqpYGb3LTk2HTNswQaPKEIzkKyORKp8VYlFB7GGkGOyV+VyFJ12iltXjKZMfulv6fVODqE9zFtNpJqw8NeOZ1WSY79WlLtMfqrGkBZ1NR4Jb6Prv721YYu/LdHVx/1vRxrMmNj0q125/OvqoWu6aE6abEttcbaavdIGC2ZtN1kh28EOfb8e39jV9Roi+20aDpZ1xx4QlnNZQclK/Uk2E4tbxOVzJprx50XBsoxTXXzXQe1wdTC7eFKE91559bB4f2Dwy/e3x7YO+wAAiAAAiAAAtMikJLjdkfZMCsvLXMgOY4ckxyLHAxxs+fbbV19mzk55g6SFuRSI0pAQhHhApnY0HJMFuuUsdXu0BojjmSc7M3+Jq6x08rLsTBmpbwuBpyX43J7SHxFOaZJqv3kvtRsEnGqy6mz0Wgr/SG3AnPPU1vtThTiFcdSPPjpxmkHR1U0tByTDctwdaoEVXJWWP0GmBZqGZUyLaZTVFT4MSzagRmKQqgi7zOhOioXV47ak6gCkePkUGIlCIAACIDATBFIy7FqonvqjhIqzL1TP6jn1miNhhynXsQmNIvNwx97+kKcQ33+Jn3ssHIs9ZFrd7Ibbo3NVbXB7c8lCGflRsZyzK+W03kXJnQd1hiWH0SgBSXn8W4frzSy51Fe1uGrqnLlSH9tx5NbU2pbSqtI7J8x8oHzwTZMLZCMcphWoFOQQxU2Oc3CpBPmqgd3sBxnZmz0ETFbBc8irztYCQIgAAIgAAIzQiAtx1p5KZPYvLZCJE54L7JYWV7gtAo2kkgLKt71B8qQkuNzf7+SmSski170NF5jZNdEeZ1odlo6gdg7nJo9ohwnsxqGao8HbaAcc1DcSLkLY/OgZKCpT31P966ZzAqVUyFjuh1SZ36ZMaUIR+qckF2vTGqA0F+KVbs8Zi5c5G9wUwfOBw9RQY5pUyKxGHLMqD2SWAkCIAACIAACkkBCjunxuyjn2H9EzxWRSLSY1I3nxKVVDJSh2uRYZ0RQqFiEeGMzHj1yPJwcmwwNT9a9aVNFjnkSkoLLNI8BfuzsVimseGOxNmORkTypyDG33OuyeaFbJi4bH1KQ40TkOGSSDesichyjxhoQAAEQAIGFIpCQYy/JmO6psS5bRmrTgrzKzUu+9LRm1MgxvaBAvhkgNBivFsucFxJx2ThTQqzxcyFyddUZOdYZz3EONK+pR475Sb7A9ffu3T84vP/1rfW4pyZgrNxXqDBJsxfQHVmOKVrMRYkocnlAs8LKI+4dXpLj/FzlorIfzAI51kFoDjmrFmbeya3TPGTmfaI76+8f4IE8HgJvNLESBEAABEBgdggk5NhkGwfvOe65PGNufZh/zOsnddE/cZHjVG6oNLnenXPJn482+yTkOEyWINPllIPk/tFg1SrHxfbo11zsi+f8XGMGRY43frFv5OBoN3fTFELPfuVeHEZafGHHf9saPZxn31xB2RfPExnJLvAsJjzZsAlC0/KeeJWbLkqEqMWBrssjva0ik3NsfnUvu7WV30E6tzbj4+vPapLj7Rtfq7dV3D+495ac51gGARAAARAAgVkikJJj72k8+pE8ERs2T+DRj+eJRGRxj59Y96YkxxQt41e38ivbZIQsjplVp5GIrjlzysixeRaNXzms32csFJPensZbxXqTf6z35/9tOoR3FG81IV4RftZd84PQKgBsy4n77pXstWecyDFJPLczZdiFyLF+SUVOfE1+8M6dttJcm3OsAsBR6rALPLNMP6dotMrQ4MgxDSgbM5fgDuTzJQjZumnAOwRrpMUGm/SfVm3NpA2/o6DgMU9sfh+cGj7VEr2e31tckxx3WnpQ8KrjzJgmxxErQQAEQAAEGiaQkeOZvHZPSY5j26tzzUDFqW1CaJv0cg90ti4nOczkoNfW/Rnv3eBEiDpn3fSo0quOk7kuMz5AaB4IgAAIgMDCEIAcT905KDIdRvUm0KpUmJaC0JDjCdAe7gpCQdwG5sBwraofi845vrVXf8nT0330BQRAAARA4KQRgBzPwIhS1DD3nFNtd/04cky6/LsXS54BGtMWuNqAV+4IpTF4iTrNt2HiNZqECmQb4xQDARAAARCYdQKQ49kYIfWrDZPXIz9P9/efU6m6lZVu4jq1IC1RH41KT86BMwiAAAiAAAiAQJMEIMezIccLIoLoJgiAAAiAAAiAAAjMNgHIMeQYBEAABEAABEAABEAABAwByDGmAgiAAAiAAAiAAAiAAAgYApBjTAUQAAEQAAEQAAEQAAEQMAQgx5gKIAACIAACIAACIAACIGAIQI4xFUAABEAABEAABEAABEDAEIAcYyqAAAiAAAiAAAiAAAiAgCEAOcZUAAEQAAEQAAEQAAEQAAFDAHKMqQACIAACIAACIAACIAAChkBOjleWu/1uT/+7uLzk81paXzWb+t3e5lJTb3JeOfPf/7X0/5r8iRTUBQIgAAIgAAIgAAIgsFAEknK8ttLrd1fXDIjlzW6vv7LMfkx/rp5aoa3aoRvyY8jxQk1NdBYEQAAEQAAEQAAEmieQkOOl1X63u9528WAyYLOGlq03q32USbMrs0C7Y+tcAzlufn6gRhAAARAAARAAARBYKAKxHMf622mfutjV6ROUUOGiyG29KZDpOoVYDgbkWNLAMgiAAAiAAAiAAAiAQO0EYjnuRJFjbcCUeaxyKlwKst5zyarzZALGts+QY4sCCyAAAiAAAiAAAiAAApMgkJDjlpdV3GmZx+8COXbZFC6uDDmeMIFJzACUCQIgAAIgAAIgAAIgYAmk5Ljd0X5s3lbRXXexYR05XlZvq7DJFZBjSxMLIAACIAACIAACIAACc00gI8d+BNQlWsgoMu/jtvKaCRFBWsWEwKJYEAABEAABEAABEAABTaCKHKsMCo4Tx4/rufyKSTOFHE+aMMoHARAAARAAARAAgQUnMEiOg/xjzrjwXNl779ukXlXRancgxws+WdF9EAABEAABEAABEJg0gZQcD/wBPDJmm5Es3og8QTOGHE96KqB8EAABEAABEAABEACBlBxPOHV4ZOiIHI+MDgeCAAiAAAiAAAiAAAhUIQA5nmy0u8oYYB8QAAEQAAEQAAEQAIEZIQA5hhyDAAiAAAiAAAiAAAiAgCEAOcZUAAEQAAEQAAEQAAEQAAFDAHKMqQACIAACIAACIAACIAAChgDkGFMBBEAABEAABEAABEAABAwByDGmAgiAAAiAAAiAAAiAAAgYApBjTAUQAAEQAAEQAAEQAAEQMAQgx5gKIAACIAACIAACIAACIGAIQI4xFUAABEAABEAABEAABEDAEIAcYyqAAAiAAAiAAAiAAAiAgCEAOR48FT7/av/3n82/X94bvP8wv+/y2qNHquS6i623kdMp7c6Fa8/3zL+jM9NpQ+Wh/HDty5eXHuh/L9bOp1p7/nBb7fDk1eLPs7/6yctLXx4uFfep3KpUM8KSr97ee/a4dzVT5t/Wfjxa+3OVcirts7+x+3xv9+Fydmc96E83Tmfaow88/bB/7Xl/cz/sS7bYuDR1Uj/aujFGCXGZrXZnkteKbO86t4+2bv8t2Z7prvzj33/a+vFo68efVnrZxk+3hagdBEAABJIEIMeVr9r9rd/qt1jI8SD+y5tP967NvBxzL95+culBg3JMwn3+ba59eNW7+eaz4+uPb6YPvLLyr6Otf935Y3rrKJUq9y1JLVnv4OHuHu1dGyTQA5o3ITk2F9mJXCvyPerdOffj0bm/X0le4qe28s/fQounBr++cxZdAIHFJJCT45Xlbr/b0/8uLi9F1+XlTdq62WCIq7Ny5r//a+n/TW2cGr7h5a9uMjplQtoTiIFNjXPQ8RMjx0G/Mn8OFzkeT453er8eX//19ivR2U1tU/HIH7/tZNo50vQg973QHelY0cg6psSJkuN2p6VMtM4Y/7hj1O7MbDx7/K6hBBAAgRNPICnHayu9fnd1zXSePHjFfRNqti6t9rs9yLG4Z9epEaViJ3tfb6oXVU+tOkyoal3j970QOa5WeINy/PF31/MJFRSMrDGhgoaghoivKufMTjk3o8pwT/YkmsYH6bo/zBSnx+DJTF87zGSyR5XpgX1AAAQWnEBCjpX1dtfb7vJHUWSzRi1rUYYc89TZ+IUzkn//+eqjvu+17122+cq8cPlzxdYkVNDK8Kgbn16lhEhX8m+fvsbVUV5jMVQsQ8vyQFXsz5c/l1VzOeqQrzZoB7XQoru7nwztGpPoppstsvup3FCSXfedOP3JucWpbNSkHEcro+/rlYdxsTt30s2TTe20KAq7ffNDy7nV7izdfOGlSSj3tbnFqezhpBybbGM6MJVPTLXYYoOcY5nN/NI2Tzm0a4lb9lIsZGs/+Ub2q9XuUNg4l1BBYb84oSIYu3anFa9R5mrJqwWXEhONmm0S5SLro9KDJXZI7Lb+/sH9g8Nbe/6AFgfdyDHPc3+qq3JyJxG1edC5kJdjc4rRFUOem6pY71qhrxK6R6q6X97riGPlVu513ckVNEOeHb/5sR2mYRYgxzwuxXk4DFIUCAIg0ByBWI5JhW3YmE7s9qmL3ShIDDm29zN7k9N3L/d0Hd3t+E+6obKMumui2iclx+r2yeu9cspy7Nei7/1fbejq7M2VG0w701Zyhau/fbVBd+irvz26+qhP+m6OdXtSURu/xB1J3QPiB7BojRWg7pHIQKWHsSI/ThpVtNKTY9/YqFhbY+HUIg315JXWWK08f7htl9vaWSM/Tsoxk0lGhUlzXTnBPq9+IjKYSXatH6uByKdV+Fr/zfkHLy+5xndabfUcXt571HN4qRxW+sgh8yL8gQhG0B/rTjwZzFmwvHmkn8DzB85sbetEZDeC3lgrtts3vj68f3B4/7N3+JDCKJtNZsLzKUanBp9u7dJJpBWWzyAjrHyOc70ZOSbhZq+lfWw56uMon6f8yZn31O35mT61qv7SiZk4AevPEW+dfXx8/dnx3vc7PIcrE4Yc82QYGh0OBAEQmD6BWI47UeS4Q3IcZh5Djs1dyt3SwvsW3YDdE/H+DZjHPi/H4o6r7tb2PhoUK29XVIW9p6oqZKW07L0ZwxZFt22SAxJxqkvcgzM3e1l1ejnUnWLWabgzIfL1y9QSrZTCJJdp/6rf5vtCWVJPVSypqhepNSuFzvr3xUB8VSGR3Sb2cYVE+h4dbvi0lQ17Gh1Y+yvfP77+7LuzPAldFbQm+yhV+FWA57tRtkMwEOrPPee43FTRhmhYW22t1PKoxBQaMXLMZkwtcR//iieR/MSoWy5OE4sxeb5EK+OKHBPv87Av6+ak9k5zfSC9HaJqmrgJDF9/pvTX/Yty0Gmq5J/aFMNnu68WIMc5MlgPAiAwBwQSctyiJOPVUyvmSr20vqqezIMcR2+rCGI/dG8QN7zwrik2iZmRlWN584vk2CVyqDfBsTeHNaoRFLdkaoANj4k26C+RdSzK3ZVlaXR7HullHZ4hpezHCUE7ZbHJQ6KVopa4kIROiUolB88pyZVdTDc8JCmmgYN6utCJxTeuIt5H1htuTbYh6ejBnioiGGkQt7bgWIKz4qb+NIHk0JtbOuLrwszxDpI8LUd63aIpwVXo/ePxjcrhjkh0wbL9WMjr7Wy3C6JYexINOOX5ELu/aEni9E+d+6Y9Xgne6c+feOX1gevNfqrhHUR7uONVNqn848KESRQ1kZz1Kk3FPiAAAiBQA4GUHFMqIb+qQuUfLyGtwrfM1A3MDIYnoE40Oy393agXZqZDUjfI6D7q3R2j+7qdB3RfD6oQt3Ovbf5t0pXp2hxYAv1ppDxt2Il7pP/4lAo0ijwKjgt6KapPg3fcRh6saolWOmmjTUHaq/rTWZrFlVgQ9qnCtF7wtU1262f6jhk5HizHJLVeerFM/AiUl8eUinWJyPZw19pR5ZgehuM4rjcKkbPSVjGaaofyKARpGMmBpgaIPGbucnru5be6Cc/78JriSeQ5q5k/idMqtZsq3/9MGzxvEO/A3x15p//05LiQhyNOJdLiet8AOOzgYn8QAAEQGJNARo75hqFLjxMt1LNKeFtF6hYovZaWxR0x0FYNuRE51nfZxF2cB5rNwDwVRPsHcsz3P+q1y4fmEvIT0WqTih0KW9LfmEvRsXtyXSkPVhV5WqZ2dnKcDD8PbiTXaEO/yju9BAnlzXJNUkzt4akahXmb6gbIsTZjkSsclpBsQzJyHLRnZDlW5E1euGCeGZFqT+PZmeMVqBscxpIp/MwNsAeOsOAmvCFjndgu8JSQH4wHnfKmJRV3E4NCZiw+c3olTESOJ5tWgcixGNwR5icOAQEQmC6BKnKs3t0mXuXG93XIsX4yxlNeeWcNb2npka5TjnWGsfd9ayTr4gYsLt/OFbKR45QriBJae/fUQ1Ff31qXK2nZBIyFVxGK+Hv2keWYopImJk3FDooTv/WZeoTri/e3o0ExAWOlrTJGS1m83jNtSTEdUo4pcVkouLZhrpfUWWzVoWveSi338kBcX5Jtk+MyYs5xR+c5qBdQBKMZfFyhP70XrtFbLNybK2RjzHJq4AI5pkLixOURc47lM20kozo9SZ4yGqlYI09wfUbEa7xcJjcoqTOdt6prhXpLjMUykhwX8mFcybaKKgt4IK8KJewDAiBw4ggMkuMg/1j0H5Fjdb9xKqnulH5oNnXXFADN7Sp1yxQ3Y30D9jzbiWxcWpC8IW75UfOE7A7MOX7vMqc1x9005WjdvH9wcON1r2TVTRKpowu7wbfqKlJoo4BGp7zQMh8ro8u6cLJhY8C0vCd+eo0USoaoDWqH651bB/R+g5TKkxY/Of/lS5eEoA70X0+hJFjlLfj76Kf0PJ2VVYdxX1WsfI8Eme6XQsqpFk7t0A1IvugtkRgdxrld3zXA0d5W0dGZxE83No9kVFgVLkZEi/KFHc9i9Ur+GfD9jd1ogPwS9ODSUWZPEuWniR+OHvltFfZhWTpVnSv7quqfRMVTnme+p7a80rxC0fvsytODGqBes0g701VFvF3OO/35ROad3cjW/LYKvMqNR8eOIKn8RV8AACAASURBVBZAAAQWhUBKjs0TePrn8cKf+SAntj+exwv+q98mdE2Z0i/k0Z0yTBYUdya+k1EGoVjP38b6iYYcuKXbp79pn95trGbeGHLMyc3cYE5btMVyA9w9VW1ywu103zMGapJNEfG7qYvKR47Ns1mhThnT4vzgnTteRgQrr/fSXM525cwKfezRGcrQkNnMrNpcePiGuHzk2LxB4tKD2DhJZHXO8ZeHSzI6qyO+fjqyDTwr2w42yVdJuGOVVZOaH9ofnpTHnn878Uif0WsuX8q6PFY1wAs5j/SeYxpo+kgTfYYxyeU6fVzRjhOI9YF6RJ4GmeVUMh0SvsY4WKkKib4WGCFyrB3XnYAyaqsa45318iRSF7fsKe8dxYV7JwulT9jzSEaLxbGPtm54eq02RZ9OvWJVq2rOZMCPgCyKBEzofo1iQWCuCaTkWLvO7P0/JTke9RKp9de76frxodkjPNdTGY0fkgC9giD3Ew9kWqlXHY96OmC2T5iA+oW8+HdbJlxpfsrhVW44U0AABOaYAOR4YoPnQrCuCoobRSGfqd3AXMPyNznsc2IJ6O/Nc287pp8j/mmld2K7f6LmvHqJ21HdP/c91tCr+YOfj8a1HQRAYD4JQI7HugGU7q9x5Fh/G+vFkidW+3xOxxJP9GgCBG6+WXh/LQX/fqz6oxIYu6kRmMkwPz0diA9XuMKDAAjMJQHI8SSHLUosDpMXJ6A7U7tDoy9zSUA9mfe4dzUzbdTvSM9UPDLTzkmexTM/rDMboyU/Ptr6EYq80PMT5ywIzCMByDEuWyAAAiAAAiAAAiAAAiBgCECOMRVAAARAAARAAARAAARAwBCAHJemwpy9H2Pmv/+dx+9W0GYQAAEQAAEQAIGFIgA5hhyXCCzUyYDOggAIgAAIgAAIgADkuKSGiBzjDAEBEAABEAABEACBhSIAOYYclwgs1MmAzoIACIAACIAACIAA5LikhlOOHL/y/ePrz46vP76ZSSaml9Q+O1b7PDvO/dRZ5thW++wPd6/8sB12X799qfa3d9FPB4sffw5bpX8sOvyR5/D8pB+FNr88vL315O7WB2E5YXfCEuT+qoQrT1IQSkfJErAMAiAAAiAAAiBw4ghAjks6NctyXPz5hlKnyPxO3fvoypOPzl2OJvRkXt1/+mH/2vML3ax0kvU+3yvYM/XozM7zPSvQ2S5ka5GdXT13DC2WQLAMAiAAAiAAAiBABHJyvLLc7Xd7+t/F5SVPtpZW7aZ+d3WtkovUgbt5VW2+xsowP/5ulGixGccP3r2SC7tORo5VYNhEfMeYCfsbu75Aq+D3k3fPVobmpvHl3TeSnw1GKAqHgAAIgAAIgAAInCQCSTleW+kJ613e7Pb6K8tGLJQZWyFeWl+Ve47hPVWYNq+qzddYhQPto+Q4/8NmzgITBZaDpn/+tv5ftKLA8NGZYqsqTB6Vm9Hf3Jd7UmpEnByS6LU8qt1RHw9SgfOBB2IHEAABEAABEACBk00gIcdKf7vrbScTFEX21jjLoSjy5pLb2W2qHVzzqtp8jQaayTamZOK973cSeEeX4wFemJJjCtnafAY1xJk1157v2X9ify8dQs4QSrfQh6STLsQO6d1GTK4YACEBXDYbyyAAAiAAAiAAAieWQCzHpMI2NkyW0D51sdtLGzDkuPbPALJAlVjsyfHV23v8BJ5+Ds/8/+vtVyrOUZWKcLx7StbiLafkuKXs9poM/foZDlphXcZwEOLNPY23v7HzkL6RiFVbNUknIjtpTudmqASJu2/cW63YfbMb5NgbdHwYAAEQAAEQAAEQYAKxHHeiyHGH5DjMPKabaymoXPvdt/k4bvM1BtAiObYKOGrkWOUhFFUyKcfyNRFq6pANc4aDL8q81Umtt3PQQf1nVEJciHFlKeimqHKWCE/0oF7IcQAEf4IACIAACIAACGgCCTluUZLx6qkVw0gnFvcSckzS3Hd7ZkSkLtbNq2rzNQasapdjirMW34CWlON2ELVVf7KnqmX/TRSJnf0drOKbhSDSrCBEsWpaI1I13GQbFAt3e9p6RzjEHosFEAABEAABEACBk0wgJcf0jTa/qkLlHy+l0iq0GbuH8xIKUjO45lW1+RpnQ46/7USjqfyVg8FeoDd+2C7w2jDqHM8KCi1z4ZqAVwU1JpeboV/YXEoU8fpCL7gY8wXJXoFxd7AGBEAABEAABEBgjglk5Ni//ceJFjq67D+3N3EKzatq8zXOrBwrWzV5FH5gOHzYTucfixBvuEM8T/wCrQpz2oZiovOP5Ro3RUcIA49wSNxsrAEBEAABEAABEDiBBKrIsXqzm32VmzYVFVfOvL8i0Lsa/2xeVZuvMcBVe1pFa2DOsZNOf7orx1WP3AlLph0C91V/XpNvI6YYsHDluPw49tzuBIkWFDZ2oWuPEnKOY6RYAwIgAAIgAAIgMCqBQXIc5B/bjIvGzbjV7jSvqs3X6Glfu1O/HNOvRheSEDq3j7Z+PEr8fLRS2N2HG0aRXTtl1gSJ8tEFG2NO2POdCzZZmeWbfFpnMO9v7NoF+2N4JMq7TzM/I4K3VbixGPUqgBJAAARAAARAAAQsgZQcmyfw9M/gBW9wk7+c1/Tv5DWvqs3XqAdmp/frsfemNvX6Nv8nP0Z9W8Wg37/IyjE9k2eF1U4gfuexfr2xCi0HQV/zagt+/zE/xsdmrHxOZ2JQCS7zOFipUi9Sx9J7jof/kTy8rUKOIJZBAARAAARAAAQsgZQcz2r8qXlVbb5GOzATXKA8hELweIJV1z61Rs0SgRzP0yjXPm1QIAiAAAiAAAjkCUCOZQgzXD6ZcqyDx+W3HednzCxJFb16YviwcavdUckY+Pno+Rjl8KycpRmItoEACIAACJxAApDj0qCeVDlutSkbYb7faDbiD0cbtVIh5ys/bJdGHxIGAiAAAiAAAiCwgAQgxyU9Orly3NGvB55jO1R2W/w1k4FhUfJjKPICXvXQZRAAARAAARAoEIAcL6wclzpemDHYBAIgAAIgAAIgAAInmADkuOSIJzpyXOr4CZ7x6BoIgAAIgAAIgAAIFAhAjkuOCDkuTB1sAgEQAAEQAAEQAIGTRwByPHNyDCM/eacZegQCIAACIAACIDAvBCDHkOMSgXmZx2gnCIAACIAACIAACNRCAHJcUsOpBHGnUmktkwmFgAAIgAAIgAAIgMC8E4AcQ45LBOZ9fqP9IAACIAACIAACIDAUAchxSQ2nEsSdSqUDJk1/67ef93/X/x5t3Rj4CmHs0DSBj7+7/uy7s+FkPv3Pv9z+z1//8c/XBoxv060N2znHzfvT//zjP3/d/78T1KPhJ8Pmt3+9/e//OT38gfM77nRm/WlzUbq8vv+fv97+T9zfq7f3nj3uXZ3fcUTLQSBHAHJcuqtNxVOnUmlufgTrP/9q/3fI8czdEdUt6njv+52oYZDjYALX/yfkuN2ZbzkeaQTnT45H6iafLzk57rTOPj5OfSznA0u3V+wDArNMICfHK8vdfren/11cXnJTvH3qIq+nratrjXWveWtsvsZWuzOVSlvt1x494thwPkickGMdVJbG/N5lFWOWayJpa2zOLEJFN998dnz98c0k5P/70+0wrqnuc0Eseb7lJtnxxlaO5RzuujrXE3W+589II7hgcvza//47++XATu/X4+u/3n7lhEzmuT4T0fgaCSTleG2l1+9a613e7Pb6K8upqb+0vir3nPANqXlrbL7GKcvxIKPNyvHPVx/1zQxR+0COJ3wuuEvAK98/LkRuIMeTHoiR1MoN36Sb10j5kOM5GNCxJmpJjlvt7DdXc4ClkRMEHOaRQEKOl1b73e56200aiiJ7a5woRzu7TbXjaF5Vm69x/uRYxYkvP/r06m+f6sTWjV/oTxk5vvHpVZOv/PM+72bnycYvNlAtDFtPHnng719t+DPKC3WHxerotSt5//efL39up7TcGhZrG5Zc+Ob8g5eXzL8nr9oC22r99s0PW28/4a0vz7/NJaiVL9bOd179JHlsZ+nmC3vUpU++Ed0sFku1q7BxKqFCFMLNMK2tEDmm++htlWWYSDTUqRp6qxeBViL+l//9E33JHh6rKt3/v444NshfpLuvOUoEtlWZf9o07fnTZpt3+3bddZA+AJjWyvVudAIC/Kc8UOZTqur8joQJtfpbZs1H/V8p53hgsbn2UEcEur/eDrsp26NaTnCIVbhnp0UwbYOV18bY23qkBPD/hIFDrz3RVjc6qVGQx3pTyI4vNUluUoeoUXA9FVsHzi45J93skn23ECqOJnXhT5vp9mj+rqmpbF2ehAk+PMkVBDua1IVv1w26b9f1OLrW5mdXsZu6Lv9kpBki8BaaypuyyRXbN74+vH9w761EN/lYbAKBmSQQyzGpsA0bU6MplWJzKdUByHH5NjDC1qkYuUmrGCFyTHL8uUquUPZ5Q1uyXkkThgLJLKaUgyFElszY6enGL6IBZMYuIH3j06u/vOeup59/5Ta1SHZdsfQn70xVZIsNGuDKTwzc+cNtbcDULzJd68dWms0a8l0lxKoca8xGfD9c+/LlpS8P6YSi5Qd+OWZTp0XOTd6cKlY1Qz2HN+QDMeqeHdz5vMhfcGv80//8QwgW3Wj5Vhrsad3O7E/3XaOVLAqJTQrR5rdOAlpUjmmhWv7LP/5tLOQf//7LP/75GnuJOpCW7bFUi2htYhDtRczrl68I1C/xIKNfbNBr+tO65oAatYaaFkbFupb77Qm7qXotavTLaa/vs8p7wyo7bpSLDuSdjWxxG4yEuani1eJNg+FyjnXX7JB1Tv/zT2zz+WlgCAhZpEnCEKht/7GfGeTE67S0v2a6qcar+ghahro9//6LexbTa48p055lAa7SJNGt9UbBsKLR/Is6Gc1J8Zf//RP1VO/Mk5Y/OHnjVepm0PJoshVbay+Y6kJ0/ObH4c6v3/ri4PD+weGtPbsnFkBgPgjEctyJfZfk2Ms8NudAIeNCXEfCE2bUTc1bY/M1zmnk+HNKWf7lvdcePSJntXJMNsyeqk4JUl7PleVWOVUSKRzZmUNRZDbg4EBfspUNO41ud0ishWdnq6C4r9NWY64qWqwOITmWW8mkTfCY5Jj3VBBIncl3OajsOk47c9S5WGxbPw0zbLafumva27au17MouvVaX3ENS2mE9FRPagmj2Eq3aiso5gbMkh0yF3JDd25qrStBCHHUl0Ljw1r8C7RUBO0ZLCjk7i5u6rFKMfGIyUqjYgUfvzHtjobJ8ld84i3vdqp8w1yAUj1V5OPaBVi91YuIu45HNbpNsr/J5SEGSEwD01rZHtGjQH/9rpW7qQYr6k52BEWPqFjZHq+1ERDZ2misw2LleeH0V5WpP9XQXKWTQlQ6cHZlu6naxkrdaengvZj8VWi02p3MV1iIHJeGuyJb7DYVAgk5bpHyrp5aMQ3SicU9Ice0g34sz+0mzvAJ9aR5VW2+xinLsZeHsB9lMnQC7zSyq630vcu/P7r6m13mQLKXzxDKKAVuf95P+rHJqWDlLU8q0TBPlEMdV9buq3Ck75mKOMPBzXMK+ppgMFmslxEhrome74r1bZ1oYcPGepOsqFhsu0OPwmQexXPt9GrUgbSSHOu7rPg+1wKJPUMHsYxJS78Maw/lIFGUOMS5hXMpdwunYymc5rZyH7MGwDuIWmy/1II8UC7T/q495GEevWhnr1hZXbxn3H67v7+zVjE23aAvRCaZ2qHKJ9Oi0vThTF54VapSB9lu5QUuwTVD8HErkxyq7xl8JokqlTNKLqsGiJ0HdDMceu5jsvFypajCdFl1zSTnhO2pbJxOhW1dlphdEB+cRO/8CaMOD2ZXvAN3VrTcPxF4B9uYwsJI16IBs6VQHTaBwKQJpOS43dF+bN5K0V1fUm+oSKZV6JdaJDfVP++bV9Xma5yyHA8yUeGgZnyVwpqjlOkazWUHVfsHwq3+lHoqU4fleiqfEiRMCS77gjaR1HqF28bTUSzcXuKEEe6oSbxzftJSJNhlBtvM4/HlWMab1d1ICrFcTrRtpBtSfOeOA5NqH87CdHEsuona9XaBvyJXN2MZS5MNDisN3ULbm6uUI7XuBk9NooAWHasqpQXbDLdgA67lq2fcHXNgpBHOSyYpx9n2aEchvJnUapIkQ4+Hwxi/AfWPf/7Pvg0Yq3BywsP0JwSt/hZyzDAcuyHSKlKVSgPLTQPPd/W8kjNKLqutooWpGqkW9wknGu64y/EaUYWZ525N3AsvnUaeF8EyTXJ5FuhlCv+7SehONOqd/nIg7oU7d6iWeAdLXmxSvTDfNgRtG/DnSNeiAWXG2LEGBBojkJFje9rQQpxo4dpHceX0uyz8Qtwho65vXlWbr3Ge5Vhc6ViOSUY5iaI87kZ2Iz+mo4xkWz/WO9s/215IOzRgsVv1JIpousqAruip6VTRYsuR45Qccw5GsdgJRY7lMBkhM37sbv9yH7vs7tkxn4K+mGCV+GJXyLq7wZM3+HIcxsZsSyoskIkGHslmL1xBTwPnJROT41J7/O7QnvJ7cEGbWu6e4uKOUEq3Eqn9/zPPdaVjmbw/+6XgI9oQTwPBRzRGHGLPptKeuvHiC325c1SpnFFyWTVA7JyVY/cJSvTatnPggqjCdFm0NmzPwNJ4h1RrGaMr351oNcmx+6SkCnQfG7hqbl5pcCHHVShhnzkiUEWO1ZvdsvoLOR7mClJlZkzFyEd+IC+OJas+shy7hSqUihkOsiLSX0+jxdYoq1hWXazCjI55iCR4wlomUcQ3iaLF5uWYntXj5/Z0O9XOdk2x2DFyjqWJpj3JQnN6Gn1Ra/fRC+6eHfMJdUG6BS17HuZ7gN6kStDNdvuPpDU0yq40M+iyKLlMXXPtcRohlCgbL/c5lIottifgXI7UerWoYvf/b93FjL9d3/zW2I8cAg1BrnGQo9rDzyRUY8VwY6HYeJPALn1XU1VdY42Ty2pr1BH37Uew1U4GLsofsrjvvEZWYQvh06rkuGa+cTnBn7LL2U3uRCvJcVRUSMkrX5WpXwvjnYnePpk2630yOcedtz7DA3lVJ1V12tizAQKD5DjIPw5PD3ojcuYtb7W3vnlrbL7GuYscCysVlwDnoDprIhM8fu+yfDbOV97XHj2SR3nZEeTc9rk6TswwaRX0p4wW+5NWNdjL6xDNpj3X3z+4n3zCmhyXY7rBUUWLLchxW765IsipiP8MKh3tbRVaHdwtMJAS/00IFGg0mZT8sI7702+Pu2f76xXV8MbsuQUdyHZC93v7ajC1KS/HWhNT6dGDLj66FnYmaoDLCfH8UvVFeobEpZblKwv8mRa2ISjWw1VsjzJybirDZA9Tn1gYnWqqbJ752MMfKnTWhOsmDYorh5pni/LLCQZUjSYfSCP77+rfxdOxYgq5t1UUpoHvuwRWzii5bCFYYlSjDUj73aSifPjlQeStxMdWEZwm5nlKCzOcCVxIYj01j9l62N0kdDOHWp5Mq3D72ELK3dTjYofVHlVxIfO2ivY7t+haev/rW+uFXmMTCMwegZQcmyfw9M/jhfnEKsXC/HKeWshGlCfQ1eZVtfkapyzHQTIuZ/GGiQq0m/baQXKsrq3koyL5WJirX7K04U6rTULMTZIazY/ZmTJ/ec9Lq2jppAs+kPKSvTCzX2n0Y37pyDHdJMLM42oh3pIcd1rajzmJ2ZfvonPTKZYL2CTuu+KUpFu7TdJ193h9lLoN28THKAHR2+okyQiB+7ZaVDdAjo36mErNV/+6XnWPL8kx62CpwRkUbANaxKW5ymXqhfMS+6fLIlXlZHrti4X2Hgs2dPp8e1SlYquLmJryC6OpB4ubp/XIfS4KiuXdVLFFOeZMGNUXVZraOZonGez2I5YZMmmQsiPeNBhLjkN6spvcSA9vagd/KPkJzsJpYj+K8D4Se1RadLLwUYqSbo+bhE58QzkWRyWrK3XTnyrlFkZb1XuO06/N4VhD8EVcVIJHAFtBYPoEUnI8q9O0eVVtvsbpyfH05yLfqMZriTZj4d/8y9iBeY9Xy+ycI/QLeUO+6vik9H12RqFKSyLnrmfCV6ka+5x4AmPPLpLj8HNytSlKv5AXv+RYM9exhs/eqVYULk0gMCsEIMelkYAcz98VzXtVhRlcCl2fUDnWbxjNhG3mb/hOsMSMrS8YTRDIEhh3dqmgsoziZyuKzlB6FC8dNm61dc7xwY3XS/fZ6nVhTxBojADkuHTSQo4bm4i1VRRHjkmX43c211ZjdLdovGSK3Fwf9oXHpZnfeBcWoDHj6ssCIJr+qTS3kMeaXSI9Y9ghyP5wdMckVCDbeFik2H82CECOS1dDyPFcSlKUczz4NcazcTaOQVs9EPPd2dJkHqNwFFsHgbH0pY4GzP0kB4Q8gRFnF2chD5EyLtugPpYjpwuX1hNJAHIsT/VwGXJ8Iic9OgUCIAACIAACIAACOQKQ41CIJSnIsaSBZRAAARAAARAAARA48QQgx5DjEoETfwKggyAAAiAAAiAAAiAgCUCOS2qIyLGcK1gGARAAARAAARAAgRNPAHIMOS4ROPEnADoIAiAAAiAAAiAAApIA5Likhogcy7mCZRAAARAAARAAARA48QQgx5DjEoETfwKggyAAAiAAAiAAAiAgCUCOS2qIyLGcK1gGARAAARAAARAAgRNPAHIMOS4RqHoCvPL9Y/wIBX5kAQRAAARAAARAYP4J5OR4Zbnb7/b0v4vLSyl/WlpfpR1WllNbJ4Cm+Thu8zW22p2pVFpVgnPDCjnOkcF6EAABEAABEACBuSKQlOO1lV6/u7pmhGl5s9vrRwbs7DnaNClXbt4am68Rcjyups/V6YfOggAIgAAIgAAIzBqBhBwvrfa73fW2kwzyYG9Np6WM+eLysgoeQ47rHdSpGHmrffX23rPjNz9uUQz4+Pqz4+vPHveuiq7RDrT++Pqvt18xH4Fuvqn2jP99d5Z2iCLKav+973f07Dr7WBclCnl800y8j7+jPI2d3q9cuN1kP31t3/j68P7BvbfcXLWbsAACIAACIAACIAACoxCI5ZhU2IaNSTvapy52e5tLTkFUaHn11EqLMisgx8IgRxmD4PBpyrHSXBZfZa7PjOO2laoqdaY5QMLKu+lZEUmw6VS0PpJjEmtTMvm3UWeq0VUqNzHk1299cXB4/+Dw1h6vcVMUa0AABEAABEAABEBgFAKxHHeiyHGH5NhlHrsdIMcTsLGpyrGMzio91cFjsmG5icPMtvuRBFeXYxmfFhWRHNsYc7sjNtmJjsixRYEFEAABEAABEACBeggk5JhSJigwrNXHPHjHciyFWC5bT5rYQvPW2HyN08s5ToVmzVBGKtzueAHgdkcnY3CYWUzNSJq9A73gtDhK1evUXISrpaAH++NPEAABEAABEAABEKiBQEqO2zqlmN9W0V1fcmkVftIF5HgCnwSmYuQm51hEak3olz2VE39FerHcOZLg6pHjhFJzpZmgcg3zXvQOpYEACIAACIAACICAI5CRY9/5bB5FmHwMOfZB1aJcsyfHichx2FPI8QRmQggZVYAACIAACIAACEyeQBU5Vo/f0VN37vVt/Apkji438s6K5q2x+RpnMq0iSqJIzMswC8KIXSjNfibx2GkVb32GB/LcJ13INAiAAAiAAAiAwPgEBskxveRYvZgi4UMdvK0ijSXJqvLKqRh5Ma3CpBTbt1Wkek3R5etxTjDZsHkZBS1fD17lZl+IEUheaNupB/LeuUVvq7j/9a31ynhTjQ+qxp8gAAIgAAIgAAKLSyAlx5QswbFh+Qa3CBPSKibgZLMox6qbrLb8VuMoV9jbwW2l4LFOWf7uLL10wiYrjx05Xn//4L7yY7zqODo3JzAz8bkCBEAABEAABBaBQEqOZ/W22rw1Nl/j9NIq5tOu9KuOP3tnEc5V9BEEQAAEQAAEQKABApDjkhRCjhuYguNUQTnHBzdeLw3iOOXjWBAAARAAARAAgUUjADkueRXkeGbPB5NQgWzjWf2eZ2ZnDhoGAiAAAiAAAmUCkGPIcYlAefZgKwiAAAiAAAiAAAicMAKQ45IaInJ8wqY7ugMCIAACIAACIAACZQKQY8hxiUB59mArCIAACIAACIAACJwwApDjkhoicnzCpju6AwIgAAIgAAIgAAJlApDjmZPj8oBhKwiAAAiAAAiAAAiAwOQIQI4hxyUCk5t5KBkEQAAEQAAEQAAEZpAA5LikhlNJq5jBWYImgQAIgAAIgAAIgMCCEIAcQ45LBBbkNEA3QQAEQAAEQAAEQEATgByX1HB6keOzP9y98uTulSfvnsVMBQEQAAEQAAEQAAEQaIwA5Hg25Vi3ihQZfowfgQMBEAABEAABEACBpgjk5Hhludvv9vS/i8tLziDbpy7yet6hu95upLnNx3GbrzH4VHR5940nH5273AjeoGr8CQIgAAIgAAIgAAILSCApx2srvX53dc3gWN7s9vory8aPSY43l6aha82ravM1BlNQyfHdrQ+mQTtoCf4EARAAARAAARAAgUUgkJDjpdV+1wsGUxSZ10COm5wWkOMmaaMuEAABEAABEAABEIjlmFTYho0pZimFWC43jK/5OG7zNQZIIccBEPwJAiAAAiAAAiAAAhMlEMtxJ4ocd0iITeYxLXO2cS+IMbvU5Ek0unlVbb7GkNv2FtIqQiZIMgEBEAABEAABEACBiRFIyHGLkoxXT60YKVlaX1VP5nmP5bGvUHZyr6EU5OZVtfkaGSx/zFg9d3z3yvHuqXD9xCYEKgIBEAABEAABEACBRSaQkuN2R/uxeStFd31JvaEiY8D+43oTRdm8qjZfYxLgB++qdx5DkZNwsBIEQAAEQAAEQAAEaiSQkWM/MBknWrgWUFzZhZn9A91udaxvXlWbrzEkRpHjH7Y5kFwHxrAKlAkCIAACIAACIAACIMAEqsixyp2wr3IL1EqmIwebav+zeVVtvsYAGh7IC4DgTxAAARAAARAA7nzD5AAAIABJREFUARCYKIFBchzkH7NTmzaVtwY7j/1n86rafI3BYEOOAyD4EwRAAARAAARAAAQmSiAlx+YJPP1KijDVWKVYmF/Oyz2lN6kcgOZVtfkag8GGHAdA8CcIgAAIgAAIgAAITJRASo7HDvFOqMXNq2rzNQboIMcBEPwJAiAAAiAAAiAAAhMlADkuxbkhxxOdfCgcBEAABEAABEAABGaNAOR4luX47A93rzx59+ysTRq0BwRAAARAAARAAAROKgHI8WzKMWnx3StPPjp3eVazXE7qKYF+gQAIgAAIgAAILDIByPFsynGpVYs8X9F3EAABEAABEAABEJgoAchxSUOnnnM80bFH4SAAAiAAAiAAAiAAAgEByDHkuEQgmC74EwRAAARAAARAAARONgHIcUkNETk+2bMfvQMBEAABEAABEACBgADkGHJcIhBMF/wJAiAAAiAAAiAAAiebAOS4pIaIHJ/s2Y/egQAIgAAIgAAIgEBAAHI8k3J8/nD7wctL+t+Xh0v1vs3t7Seq5NGLPXXvoyvHu6eCmTTKn/2t337e/13/e7R1o95uorR5JfDh2pcvL33yzSgzal67HFyFPv7u+rPvzgYrR/rzvcvm/Pp5//evNhYY6Uj0mphOpx/2rz2/0LVDc/PNZ8dvfmz/9Bfqu/a6rn1z/sHL7Zsf+hXVjWt768ndrQ9cpbL8q7f3nj3uXS02gCj1N/fTJcjSRl0++/j4+uObkyt/1JJ3er8eX392fP3X26+M2rVRqy6OyMlvDOS4NMZTjxy/+sk4Fpvp2nhy/MG7V/KXuUyNg07Oz7/a/x1yPIjSwlyqTrIcVzijlSsc732/U+d8eO3RI8jxiFenCZ93oRy3Xvn+8fW8LCrLvPLD9gh9yUlwbv0IVWQOWT13fDcbT1EfBgZbafdo79rTjdPVxiJCWulUmsR5lwFSqT10rFJ2aPHYGKsDF3vm5Hhludvv9vS/i8tLUeOW1lfN1n63u94WJVabvlGBFUpoXlWbrzGgV+FWOgrJoJbqf17efePJ3TfurdZc6fByTDd7G3XWCwiMVTiJqo/19Pb05Hjp5gvzFUriuxTa066f0DcttVIdeEZXc4VhT8Dh5Vh+q8Mn2i/vDVsv9h9IIGVySomyXx2MehHOSXBu/cCWV9yh9DuvFBatIH/Lm0/3rh2dqVjjUCYty1Tf2OTD9nLPhpaLXyM01Ibp3Qim3MGkHK+t9Prd1TUDZXmz2+uvLLuGLq32u72UMdd6F4mHpHlVbb7GoNcDb6XB/hP+U13m6kmo8KfKiHIMG/YxTnj03RVgwhXFcvzk1XRPac/RE4Qa65GraMAZTVHDehIqPGIjyjFseMJTvdNqp+S43Sl+RlLJFcP/eGpOgnPr3aQdBwKpfC6hQsnooIQKasaZned7uw+FhJSaNJxJ+90sfiwpVeqdbrbMyh1MH07B7GyOja0FCxMhkJBj5b5eMJiiyHaNcuUpmHGr3WleVZuvMTj9crdSL5wWZmcmwmkmpUwnVOgAW3iUukSef7sjSg6NJHeZu/Hp1d9/vvx5W0RzbY4ExZ/kLTbpwcmVCkU2Y3LQzd6Le13+3F16+ECxw2+fvqbqUmuuPupv/KLiZFcf9TuqVT9Xy/eILsd3Llx77mXIqWDGc/MvusqrSz9vFdmHrTaHQMQONnyiqrjQbVHV+nC7Sc8itUNcrNp/9+Gybo9qidkt29qdO47eiNcgNY0/+cZMrU++aXFK/fm3XYFqHxkD5vlJR4VTkU+TkhyrA5U3q4mtS44TK8Vsl2mXrAvifDFNpTVBOdRy3cL8ScRd9voYpf4rJUokVOQnbbvDZ58lqSawmdJu4LgEt8bsT4ebvH/vqOjMZeaJA/1sZm6AOHnNFUCtufy5OfXEFaPCp9z9jV06odx59DT4kl2cI8/3wkkrz4XwQDrL+EzhczM6o3X3VTNc4a4xgbrxbiS++hz0zi8+6eLT0w5QfckVcpLL6cfT2Mx2sVtwuskbyou183amdfR5bU/nS3QH8edJKZ5CYeNsmi8xFFcwh72jL4w8ZLSPumwK2hasWuAxVWyjffxxabVrTq4wGcMjCi7k2E02f141sT6WY1JhGzamc7V96mK3t0mPhSW2Ntbo5lW1+RoDmOrqEwbG9KXKXr/o3u/28XRBX++kglD5tA/LB9dI5TywD0J55dA+FK549yzv72anvb/yzZX8Ut/wolts0oOTK6lYJalUoyhTzcnszb5ldGHfGjk5ri2HDmT9VSXTLVztTHL826Orj/pqn98eXVW3fLXVHuu6HEKIbqXqZuwuu3QTddbbPXKbOnQPsJfvaE9zlTc3e7kz3+8Tm1ptVaxzZS3QugEkx0/7uw+X1X3iaX9XGbYMzNDOViCollA1wu7TVaKwkqbxi+1PvmkpuXyx/eWLtfNyEgaTTW7Sn9bsbA+GIDjQ28o3e76dk9eKc4GOfcBb252lm0/4xs/nwgNTLxWl94xrpJ3N2cQHmvMx3pl8wp2tXoNb7VycKT9px5NjOjX4oyOdqnwK69PBnUT+4Or28IFtOjft52H9pzrFzA7uRKaz6bdHlz+nfX57dPW3T1+jrbaoAIj706qSmdWkwt4Md+eXFiA3aYM5fOeCPd1Ys9yx9txUZ6I9C2z3VTP0yUsNsDvo5tn22NbyDvK8pua5KwD96Rpgu1y2tFKugm2tv6AmJwuxraXTsp8e5aR1dwc5vfXJ6E4Z+lj48lLiNOHyVYZ0Lg2vYH6pEbTEfPI6OmDJt9r6g4cbfQdBXgbVJSs9xFUzPQZd9Fy9FI1OfehlStmiCogGHosdxiUQy3Enihx3SI51tFhlXKyeWhMZyV7GhZsQ2fEevcXNq2rzNQYAE3JMesF3cYIp7/oUoBIG4F3auHC6Z7vLnx4R2lPctkkIhJTQQxXJB0G0HFsZbbUp5qpvlqPLMcef7ETyPJVuz+mAU3SgvlubnYP7eqel79OfvkZyrB9aEvtYdbbNSC7QZTe8QNurebSVByJ1gZaeqmNatpx2R94J6JYvbvOlWsQNw90hxB1IqIYqVtaYuYWILgw+o+kmSvdUmqt0hxbiGE5pb37SPBRBZTFFW21RSDQu+sDgXHByEFYqexGeCzo2pouiYp0faN3n8zE6MKolcUbblmcfvhET0uzsJnkkl26TGKPU+RKdm15R0VZXmncmEjfvNFEN8J6vtUXRbuTfbh+qdPDnz8A+c9kIppFiPg/YM3vWqLPjqQ5Oi1NSnR1KZGOjpTV84kStpRNQbxWlUWvjosxULAdW1YPRH527bCfP4AU1Od38d/uHk5ZmuPxYKO4C+ozje4c7r3Vp4d2nU2pkPoOI6Em7lYgio03y5IFwkzYestzQ5xsmSuPLhRZf9TYJ71+YGUVlVnjukIs1owM5DoA0+mdCjluUZLx6asVMBfPsHcmxXKbxI29uyI+bV9XmawxOv/hWStcjebUyH/3NVY/kIysE5pTz5INrDC+d8hKp9snHAEq3N3tfNFULb+Y1nkzblfEN2CtK6wK/Bo4eGBJf3YYRLxGZpgNdlEucbK58sY931xc723bqheg66ysmxY2SD5SEV3ZPf823h4mokmqJX0VwYNhUd79xTRW3c9UM/bxLdO+JbypB3yv86aaxm5/Oa91WU1Ryfuoe0Y2cI1VGjjlrwnxlzHfucAJThMzKQVSpJEa1cDl8gvAOZACZcsKTSFq1LqdQb16GxISMaHtGq7ZWlePoQP0tCnsqnQ7uNXAiEuzFm017ZKUkvskPru6kdvuUrh6is24C88pw/vN6xdlNcjVqas8973VpYkyz56Y6ik49bbokymxpVD6t4VlB39XYjAs6RHxwFW2Lms1lin1M87IfllSluSQ30TXXNloZTU5TY7henDiJM1FOYLmsqgjlOPtlo9o52zsaEe+i5y5KMdhoYridPRTuEsdY4muvAZL7AocPjEeq0hpV7HCvnhhK0yu1YcwuLNbhKTmmiwu/qkLlHy/ZtAqSY+fNajyaS7RoXlWbr9E7n9uJL2HD65EaAnkvd87RUt8Uv7gkvjjmwhOXPF2IveXzscLCm5VjumV67qvv0xyfJl0YcAN2Z7K4nec9Y4JyHOS6ubumvu96yXOUR8FB6Pg+4ToV3mV9IUik5emkPbdbSo5pa9webQk8f1wbKq5xk3ZcOe5QpFYlx1PV3mwPGiPu8XpnKQHJU8D2S55QdqVbcN2hU48b439M1feqUBcSZ7RtdsNyTCdFfIp5csynm+t7+qOs9+WME1/bNbMwSTk2BiySTfkkUo2XJ1ogtX4eqn9uqgDk6Yf93YcbOzZgrA53J5EjI71NLgcQwtO28OEzq4+q0kbkmE6E4MOnSJQXJwJxCGf7SHIcsxVem6Yn48Tx4XQm0ojIaLT4Mk2fqu7/icpxtbdh6Ehz4vEDN9+CeYU/ayeQkWM3UdRgiEQLnVbBQWW1G+R4gvM1vPqkdNn32uByJr7/dWOaNAOpDjToSqynJseDkn2Hl2MTLZ6WHPMkMfbJ9+Bs9ELvP7Ic04HinuHuDe7mkZLjOpIo4ouUm8bjy7EXuB1ZjkuS6n/a5IFzp48WdJslIs4RPzitOIS6UKq3YTlORI5lH91nxZCA+B7Gbppy5JjMmM+pKHIsJiTN+VQysdrHPzf5lKEsZLVp5w6dHcq53UlkCWj/Nvp1UuQ4eadwXXbntZ454WwfSY7DS6IeMj24tCyDyuTN3kf38HDT2tCq9ViLK6SYJMPI8UTTKhA5llekxperyLESYn6VW6zCsS67k0dMuBpWNh/Hbb7GgFh49WmLG7OdK0o4jARH0bIk9uQlb5AcD8g55oCTbZVeCG+xFFWKshoSt9vwwKAjeTlOfK0s79xjy/HevfsHh/e/vrUuexreLEM39YZV7iyXZYFmeVQ5pntGFDmjO7erMSnH0e0n0artG18f3j84vLUXDEr2TzeNU3IcTlraJ/cLebSz/cg3uhz75QQtp0+YubQKBUTVu33zQ9Uvb7dBJ5H5Mkf6tKg6GynMT9r4gTxKBHLP1ZnhS50vLo4r2mCHu3ACxgd6a8aNHL/1mZpdX7y/Lc8aVlXbVHVqPDUvrIhOEzfJ7f52oTjD5YHqJNq5c8bFjI/OdI/Mqw/iQrw1BTkOOxLrHQ9B/sOS6ksmnbdwbiYv+4mvO+T56M5cbpUclHBrKMe5RtJY5MwvsFvNx7yqwoNsQ/48DVSxIV5udiDH9Gkqk2mTaxgXJQlUWtYCPUoYGDnH9rSdwsIgOQ7yjznjgl2ZgsrmRRYTb33zqtp8jcHJFl591PkZCIF/IxeiHBQl/kxeJQfe17NhgGLWoLxT0nLwsA5dcRJyrJ/qy74pInWz54tX0B76+tg+Dp/3DGcDYh9SDfnlsr5z3z84uPG6nPDy9kzLe+KxtjM70eXbRbnCoBf3gsZLFiurU8vB5d6LZtE93gZUzJ2gSlpFu0NvrrDaEVZKrXrn1oHSl/ATgtdy70A3jVNyrMOrJqVH3V9fbOd+PpoOF8k/wbngVSrv8dTsYIbTiSO+GwnfVuFZr1cyJx29tB9K+eTyqyBXEK2lQsIuyJJzISsxIWPIcorS8u9VX+VGxfI7JbgL3B53OvAaV3XQHnmOm6Rn/+VuXIJzaHdIcLa22unZFUgPTWn7LTk5k/EnM4E5h56eeZUBQjo13PlYODf1ScSPClADrtmsYn2a2M+ftNWd1MGfHlvZALW8+9T/+WjemcQoa1SZt1W8fusLfW5+9g6Xw/D1t44cRhFb/UkbfH6jOex/AvQLlA/IRnJceFLFvDQtfseZ5EOirPjwCIpx16K8c8QDZHpEMm3HxXZTjghdOXeO7AOXbmKrrtFnkgq/S+IfZSsKFqi0aqkUiQIhx26yBWAb+DMlx/LX75LiS8ZskpLt+48TQ1tzx5pX1eZr1ENO93XxhD5lfYm7LDkBp4KJ9Qq4EhHeFDyilNjk3kxZvETS4Oay3KLbmz/udJe1GcNqZ44c04Fh1qMMeoU78IHlV7nZt7mZx4ncUfwOOG8Nt9bZgLj3S/PQMzwZOXbfyapHf47OUACDL+gcz7Dv7LQ3dVM133d5B3fgqHLMjquzh59unKYqqkSOqUmsBZx87O76en6uv39Qpxyb70P0vFVRVTVR2U39SWtjxhqddyKY2c5360FyzJ8z+WQR5xF5MzcgfRXW0sB18T50IBeYeu2rarZ3dvsllN5znJy0NCfFaWJeHmxPIvpkGJ5i8sNeuIPN43eng5ml3Ef9pxZrU7KtjvZx4usfIh/4c/tQ473vnfKRYz5B5CdPc9/hT6R6E01gZ0j+fHbr6Vj/7JPnpi6T1+hC3LnpLJxOE97NlRmeNY6GiYYa1VauJlMFdI/K8cvsEyCFyHFuwg+88mdntTo35QSO5bg9ynuOxYgoqj4fN9DqE04w0ISOBJqnigOrP0HRerVSlaNK0LTd//X6aO7jbvKcilfW25i4fKwpEUjJsZsopSOjWTXxnZtX1eZrHJMqmYQvEKVI1bBDlglXzOqEGRMmDs8S0AGqVHQqe8gJmyTkAcKn9akUesbQNEiJKv1m2AnjOag77tPdoD2HZj6TBWY+Julplv0Sbwb7TiGV3KuOlTvO1M8159+hMey9spb9Ice1YByxEMhxCdy8yXHqW+b0XbzU68IVlq50V5JvOy4chU0ni4COTt17ayatohnUUVhan1Bjy7H53eDavtVthkYDtSyWHFOWaviuXD7diro54oV9kiNIIZXMK5l11kGup5NsVRLUzMm6+owUZ57wTGicTxLaiV0JOS4N7bzJsc6pkJFj/b2zXFPqb5WTTT0Ikv3Ro3ELr9IA7DNFAsMmVEyxqROs2mVOBxO+Bjk2uZjXsz+rO8F+zfBNd4HkuPztgUqomLfwBD3M/ST166qtGfo0SGHabJJ3cKY39Ge9CdCLeekYudeQ49Isnzs5TuQcy5ywem5+6ku9491TI885HAgCc0rApguLdxvLC0gtctzRvyM9M+E02cGpLS+OHBeDhXN77VVOv/VB+gakrHT6qUQqWj+Ln0jNI33X8W1S0xcfyHGJ+DzK8ZxqB5oNAiAAAiAAAiAAArNAAHIMOS4RmIU5ijaAAAiAAAiAAAiAQGMEIMclNUTkuLGJiIpAAARAAARAAARAYBYIQI5nTo5h5LNwYqANIAACIAACIAACi0kAcgw5LhFYzLMCvQYBEAABEAABEFhYApDjkhpOJYg7lUoX9gRAx0EABEAABEAABEBAEoAcQ45LBORcwTIIgAAIgAAIgAAInHgCkOOSGk4liDuVSmdwon/+1f7vP5t/v7xXGqahGk+/sP3y0gP1L/O22nHr+uPff9r6150/pl/qaQq/c+Ha872dO8V9hupXuHPvzrkff1rpjduXsNjJNRglgwAIgAAIgMBsEIAcl+xhKp46lUpn14H6W7/9vF+jHJue0q9qT0SO//zt1o9Ha38uzatW+/TD/rXnF7pVsZ/Zeb63+3C5XGa4tXP7aOvHbzuzcaGp2lO0FgRAAARAAASmTSAnxyvL3X63p/9dXF7i++7S+qpZabfSwupaAze/5q2x+Rpb7c5UKm1g+EasYr7kWMVrj879/cqgznaP9q493Tg9aDdz3o3682BXVv51NDCGXbEN2A0EQAAEQAAEFoRAUo7XVnr9rvXd5c1ur7+Si1qRLme31ur+zVtj8zVCjsMTb67kWAVrByVUqA4ubz7du3Z0hj9zDjpNVA5Gf3N/0G4hunanVVXWq7YkUcUIrcIhIAACIAACIDDDBBJyvLTa73bX267RFEX21rhbqdq5t7nkdnabar+PNq+qzdc4bTl+7dEjm+l79VFfjubGL5wB/PvP3iaVHPzVRossVmcJB1kQMnv4t09f8ydGtlizW16Ob3x61SYlR8XKlqeWs2kV35yndGRKSn6xdt4/9u0nOllZ/P/kVTv5yUSzCRUqNeKa+CfTJCjLQm7VKhwewoeLfAwKKvN6VYIsVjU+m1zx+q0vDg7vf/aOPxx+f23XsAACIAACIAACC0MglmNSYRs2JhDtUxe7SQOmsPHqqZVm7q/Nq2rzNU5TjrXdPtq6YWb/a4++4uX3Lv/+874VUG2l1oDZfS9/TgfSVmfPtNVsarU7n3/lNrWKxZbl2CuWWm6bV2k2JuWY3Hf75oe6hKWbL7yH9mgrpymTQ395KD8WqufwMjm+9Pid01YvTYKiyCL/OMq4oB1SORhaqd1TfekAcyYHev39g/sHh/cP7r1lhhtaDAIgAAIgAAIgoAjEctyJIscdkmORecx30ybDxlOxxoWSY6Wbzozl6UHh5K82hHTSGt6ZPFUorxfrjY+1JcebvGJLcuxVoQokI3cKLppqq/MXEnL84dqXLy998o04ltawAavXXPByq90hdZahZUrwvf03cTjXGD1OJyw2ejIvzrig+HGcg+EZtjolo6LMefq3tWQaNCLHfB1LDBk2gQAIgAAILDCBhBy3KMnYxYPNQ3iRHDcbNoYcT/gWrtIb0sHXVFxWymho1b65kjpT3kVwmg0q1vTXL02vlLWb3VQQWgh6UFf8ZyzHtMaGjXWxZMA6ccITZZZjkVPRzjiodlYvY1hYbCy+kUlHEqydWwWYRby502pHIWfT67y1x1iwBgRAAARAAAQWnkBKjumBIX5Vhco/XkqlVTQcNoYcGwuc0JRNOaipMbVJ5k6U5ZjDuiaV2fn3oGILtRvhdjnQuvAa5JizJkzQ1wsPx2kVXpg5J8eRs4o0iVh8KQHDZUq02h0RZuZQdPKRvtizzVSBHAtuEzp9UCwIgAAIgMAJIpCRY7+HcaJFq/GwMeR4snLcHhA5thnGuhkydjtQjrnllDVh49NZOfazIyru5s9YrjFvRZnIcUqOTXiYRNn8eoh6IM8z404rFzmO0iRIf82rKkLxpZ39F1OIMLPsYxhgpt2ip/GIA+Q4Pw0kUiyDAAiAAAiAABGoIsfqzW7By9qaDxtDjgcL31hzOpXvawrMJAdzFnJlOe602rIouaz1JV7T0S/BCNScnuQbFCfeu6ceOPv61noSSyzH7UzOsZFg9QRekHThj0jGQQM51vrLFhvIsfbmSskSgRxT2Djzk3u5kPY7t/BAXnJuYCUIgAAIgMBiExgkx0H+sYY1jbAx5NhXsQkEw+jdEeqlbOaUCN9WYQ1V5lTQCyj8J/m8WO/GL/zcniqWNrnMCqoxV6xphlea7TVp9M9+jNk/k9/67JDexnBw43V7lFhIyHGn5SVOBI/cxeosSqOqM2+rEMnBZMZP+7vWYimtwrzFgkR556gf/DgIhYS9lGWqVxelf0aERPnowq4fcubmZd5W0dIfHg4Ov3h/m0ecD/FJYisIgAAIgAAILBSBlBybJ/D0b+Al3mFMYePo+bzJ31Cbf3dE8zVO5TOAm/FkovzyYD80q9XZpPl6VjogcuyVGf0QdLZY+f5j++rlqF6Zduy0niQvHTmWrzG2ORLiuTryY36NsVjf7rTIp3mTPla+rcL84kbiPccmrGteQqyE2MmuToegFxWrtxdHCcqcXswvSA7eB6ffcKxylIMgtB3T/O+SbN/4mj4/4FXHk7922eHAAgiAAAiAwOwTSMnxrN4qmlfV5mucshzP6tBP/0TSZuzlGVMs+YEn0Nlf3JgW2OLvkuhXHd/aQ8AYBEAABEAABEDAEYAcOxaxgUGOYyYLusbPuNAQ1JuPfTnWP9e8lXzb8RT8mNKgsz9nTTnHuZzsKbS2dCYu6KzDKIAACIAACEyDAOS4dEuGHENKDIE4cqwTMLxYMs0lyvE99/crU0eXD2ObhApkG099jNAAEAABEACBGSQAOYYclwjM4JSdWpOinOPgvW+2YerJvGy8tinaKqHip5VeU9VN45O9BY4FEAABEAABEKiRAOS4ZA+IHNc41VAUCIAACIAACIAACMw+Acgx5LhEYPZnMFoIAiAAAiAAAiAAAjUSgByX1BCR4xqnGooCARAAARAAARAAgdknADmGHJcIzP4MRgtBAARAAARAAARAoEYCkOOSGiJyXONUQ1EgAAIgAAIgAAIgMPsEIMeQ4xKB2Z/BaCEIgAAIgAAIgAAI1EgAclxSQ0SOa5xqKAoEQAAEQAAEQAAEZp8A5BhybAjcfPPZ8XXz77uzJSyzP63nu4XLm0/3rj3dOD3fvcCbj0EABEAABEBgPglAjksWuIiR41e+f3z92dByPNpRg86Z/Y3d53s7dwbtlpBI8sujM6XBTRw1QkWTOOTMzvO93YfLFRt/+mH/2vML3ca6c+fCtef9zf3hOz76aA5fV2M0UBEIgAAIgMDJI5CT45Xlbr/b0/8uLi/59+nlTd6kdlipehf3Cxn+hte8qjZfY6vdmUqlbmaPprmjHTVoDoyuU/Msx0P2unvUbJgZcuxOlkETGHuCAAiAAAjMI4GkHK+t9Prd1TXTH1Jha8DtUxe7PafL9GdDfty8NTZfI+RYnkVDaqL49DXPcjycfTbe0+GaJ/Rx9NEUhcjpgWUQAAEQAAEQmASBhBwvrfa73fW2uyFRFNmsoWXrzWofZdKrp1Ym0bigzOZVtfkaZ1iOr97es0nJv95+xZiozFS2KcvHQyRmqMDnc/PP5hLIlXbrNT/FgtIJ+FiboavUjVfKBU6xCOOskbHJqm17hHa786LGlV5fVLO9NAnZJOqd2hodEjLsJPapmA5Bws30OK3FWykgyzK9fSy9qP2mqV7JPECKaujfXrF8lBiItz47vH9wcOP1GkcERYEACIAACCwugViOY/3tUHh4c0ndjaQoE7Wl9dWmMiuaV9Xma5xVOf74u+vPjt/8WH9c2en9enzd+bFaOWJaBWmTE8HukTStdicyV3ei3rlg3avTUkm6/hNspFPSt/iDlqrRmnQrrGJAe7gQ14wa1mjzkxBkC4OuRf2iDwMJX2yVixVmGXaBDnSIljefurapjofm6ooCPKS7AAAgAElEQVTyho8aJsYoRC0YJjtlZ8Kg9rTa79w6OLx/cPjF+9thX1zbRHVYCQIgAAIgAAJFArEcd6LIsZZjTqUgG+72yJX1shdInuBNqHlVbb7G2ZRjsuHHN91Moigyu7IyktHkOLKiQG4KcuzvSWFUq1PtjlbDoeV4UHv8St1U/+Pff9r68Sj699NKz+2TOZZaLu3Ta0Oo8vQxQBpn1HEzRuVii60a9DhgXo79YgOpHVmOB7Wn1e4gcpyZXf6IuPMX60EABEAABEoEEnLcoiRjlylhbJjlWF1hKX5Mj+u53SZ/5W1eVZuvcSblOFLhdkdlU+x9v2MHfTQ5blOkdu9aymLVrK0sx1E401NMeQKEuulXMaA99SsIBYa97gsXpLZJFY6BhN0xLSwWO6AXhK7wuoyqckyD6yLQhdGMBsurYlB7BnTHTlEsgAAIgAAIgEA1Aik5psCbex9Fd31JPYSn0yo6Le3KOgXZvLaCN1WrcuSbWfOq2nyNMynHlFPBr0B2icU1yHGQF+uJ4AA5Ns5USn71pNNMztAmfTke0J6Rp27uwKh2snx+e53niKr9UZw40kpdUbnYXGPEevMhgdKOw5yNqFXuswfVK0ZE5oeMLMeq46X2iGa7lmAlCIAACIAACIxMICPHvuaKRAt6kYV8XK/BzIrmVbX5GmdSjhOR43DCjRg5FjaTChDGkmfq1TuLbITQ2DLWqDWrejizEECVBEZOq0g2m98iHKVGUDzYe1ZPhJlle4rFCub+aS5LMMu6RpZ1vTIsnAvRZiw+kAz8HMItiQYrV4VOLvefy+RCuBmJXmATCIAACIAACAxDoIocKyE2r3JLqHCky8NUP9SdrHlVbb7GmZTjKIkiMcQquvy4d3WoAQ13jiQpSrE1JkQe5oWZI50KzYzrCtaTgPryx3sWEpdrE7Kg2epP96qKQI51UwtPE7pWFYvl3V6/9YV6ju3eW4nR5H3a+mFHD3XmEws1T6Z9R2kVudGMEsQpTuwVVWpPq91Zf/8AD+S5eVseUGwFARAAARAYRGCQHAf5xybb2OUf6/ccN5N53LyqNl/jbMqxft7Ovq0idRvWL3qTD+0JocnNwjM7URDX87DolQtcJkU0+VhjjRxw1fvolWFKgJ+ZwAdaOR7YnlxHRl0vLZ+Mdlf+cDS5su4CNfXCzlGQn00cRLDW8ImK3Tnqe1ZthfL+weGtPaZKvdjf2JUFijbwbh58XqnfYmF/2E+H9v20iuxo6qwJ8z0AmfGe+xG+we1pb9/4Wr2tYrDojzpMqQnvOo6tIAACIAACJ4xASo7NE3j65/HifGL3NJ7OS7a/DzJpNM2ravM1Tk+Ok4nFUnbDHaKfmPZ2iLamZYI0zmapxi5rXtMWvnPXJLCaA4/ORA/kKQ1izaK36grhc+uVXivVc/UObk/NgmUFXb/bWLUt29Q4sm6UlAG6PJNEsfxZggciHzkmIeYyUxFcj5LbQVSqkKq+hJWSWMejabyZR0qV74rVedil9rT27pEc41XHPLg1z1IUCwIgAAKLRSAlx7N6YW1eVZuvcXpyvFjzftIf5FB+swToVcdf31qf1WtXszRwLoMACIAACIxFAHJcwgc5xk0dBGafgM45DvJDZr/ZaCEIgAAIgMBsEoAcQ45LBGZz1qJVIGAImISKQY8VIqIMAiAAAiAAApUJQI5LaojIMSQMBEAABEAABEAABBaKAOQYclwisFAnAzoLAiAAAiAAAiAAApDjkhoicowzBARAAARAAARAAAQWigDkGHJcIrBQJwM6CwIgAAIgAAIgAAKQ45IaInKMMwQEQAAEQAAEQAAEFooA5BhyXCKwUCcDOgsCIAACIAACIAACkOOSGiJyjDMEBEAABEAABEAABBaKAOQYclwisFAnAzoLAiAAAiAAAiAAApDjkhouYOT45pvPjq8/e9y7mj43Xvn+8XW1A/379fYrJXpxCX/8+09b/7rzx8pv4Y5LwJppE7iy8q+jrR/p3+2/hY3p3TmnN/14tPbn4eZGWNSZned7147OjFdIPTPt9MP+tecXumEL6yncdlCBPff3K2PUwkODU6zmobFjhAUQAIFFIQA5Lo005Ni7VWszfvNjb2X1+9Cfv90a0pn2N3af7+3cqV6F3XN58+msqFVpgo1I0naz6QXSL+1e5MGezIk16lPQjz+t9Ebv+3BDP9nhHk6Oh2u5HMHhTxA5fzq3j/DJUwLBMgiAAAiMTCAnxyvL3X63p/9dXF7yb3LLm7yp311dG7nuYQ9sXlWbr7HV7kyl0ipjsdP79fj60NFiU7Iwpyp16X1G94zJ2pJ/Oki/aXb5g3evPLnL/949G4C9vPtGfuvZH+yBd9+4t1qtRzSIHBImURbBYxLibzuagLdntcJ9dHcuXHve39z3VwYddH+qMPPuw+VRKnKFZOtqSo7bnTE+VPxtbchPnhU6PiGeKBYEQAAEZp1AUo7XVnrCekmFV/jG0z51sduzukwO3V1vZ+8rdfa/eWtsvsaZl+PHN0ca69HCWpDjgsEoM7ZCvHru+K74s90hb2brDbb6f3p7lgfX+4STlGOOFo8rx835aIEwb2qyMSI2Xx6LYOu4wOu8UDM3lAkCIAAC80ogIcdLq/2u57vCgJfWV3t9K8rqIuir80Qvi82ravM1TlGOdbaxzif+7mxiQlPkeCQ5Lt25u0d7156bfzb4J1fardf8FAtSFj726cZpPfdUxJFXygXOXlUl251b7U7k37Jq254EjYlO9REKJ8fd+kA7E+nvD9ui2dtbTzhCrPb86NxlZ1en7n3kiXW+dhWe1N/dU4zTTyymrABKtCDD+5GjyK4i0Z7ESkleDWI0THJkaWjo+wE5ymZZhpwpd1nuwzOh3JhOOJFkzrFXr50kYfu5UpkXlJ60HvDRkitKp9iAnnq1J8YFh4MACIDAwhGI5ZhU2E+WoGjx5pJRYRs21rBUmHn11EoDV9jmVbX5Gqcox2YEKbHYk+Ozj/kJPPsoHi1UTj72vnD37r7kE047ukdSaxLm6s7POxeslHRaJEDSpVrZtApVo9zTl+MB7Wlgko9chZRjSqhgUVbASX/vXjnePdVqq4QKWmCYypuvPLkr9+dN3mCplfp7/3P6mTyRU0HN1lHPn/QzeZx9kS3K62kwgt7waaF0ihllXASj5mokwXXzxB9rt5vXEtVlqtFNRfozM0uDKlIft1xFAyatoU2fQEK2rpCotbQJchzN1TQo7AYCIAACFQjEctyJIscdl0oRR47bfg5GhSpHvmY1r6rN1ziLcsxjOmrkOPz+3U0Az4ESt/9RbUZ9oZF5IK8ox9mjEm1zvTDKyO9w4Nc18BNpOowabdWPtVGY0Lz8wR3oR2SZv6wxWib95XiwHxvWNnzWhIf9oLLRaBFXjkr2+04SlnuwUoeTt0aKGctPLPRpx0htNAcCVTVj7R2uiUWJyJFV+12znMMDoxrtnhQveFr6uJWpQpUQKLjbc5QcJMixHBQsgwAIgMB4BBJyrDMlXDCYhJjzjPWDehRFpoqVScsE5fFaU74xN6+qzdd4EuVYRcK81xq4SUIxv/xrJSIxcgIRTJXQe7KaW5Tj9oD2BJXOzp/62TsbD3Zy7KyXcyecHPOadqfldssSVp2VKi/eWaGDxErp2O/1cOe/MfBqoVF28V0/+Eoj4qK2nRaNkafCocvqwmP1LDqum5OUUOHCxmyxXhtk+8szSu4ZLoeTlttQkZucfiMcIg/HMgiAAAiAgCSQkmPOJDavpOiuL6mH8KwQaz8277JYWUZaRXjPk3xHWJ6Kkbt2xmkVfM8eNXJckGM2jzDn2CAtyTHpL6d1UjaqFJoR5XhAexwlZjILa8xbKezDefppvI/OfaDeVmGTJViFjRz7yRWV5Fh83a8t+fbfSJfpITyRKastee3PnYoR0MgRhdfG40gJGDJvODNJQmfVXyZ4Vp0ZxHR7hBxTjTIBupCo418cypOW2zOU6dLOuQ+ffu1c/ixMWrQBBEAABGaZQEaO/ctonGjhupRItJjUFbl5a2y+xgWLHIupYrwhF0EUe/J32fJ3GUKhiaXKTOnQmTJqZb6sr/iCMC0oNm7KC/rVDRNOq1BeGzxg1zG6zFkWdLZaG1YLT+5ekY/rmeQK/6x357he739xb5zsXz/pJArf53SXf1KpyYNzZ6OALumvGdwwKkw7+29tC4detzaaAGq3/HcUsrNRgV4LtRkLOx9yRgnJjioyk9yH6c/8zBiNcIjsMpZBAARAAAQkgSpyrGLD3hsqxAVapSN7r7aodCmXLai+3LyqNl/jSZTjfM6xmEhqGkRCI3NP5TwhQfE0OvKMUFn48GC9li33sBfvRtM4bk/Q4Kn/mTJj1QWXO8Hno4gNu6QL034OKpe7Q3Is0mOM9IsMCn6PW7vTMqnJYk22cE89TSauzeIN5Fh7s/e7MMHh3N9g7OjPxEedvXv3Dw7vf31rXTQv/LwkZT2RKBzMKP14qDc59aSqMGlN4ytG3L256n908TaJrmE9CIAACIBAFQKD5Jje1Obyj73rbJh/XKW+cfZpXlWbr/EkyrF+xUHqxV5nduTX3LE9aF2WEWIzf8hX+FgtuMFvRuSsl9abBAw+0MrWwPZ48589bForc2ZM7ZEvr9CubDOSgz+9PYt9oXwJO442Iq7XiKQLJ8dVIsf6pWn684kenV33MCVJrRloEuWjC7vBj4NQSDj+eKOc1cwcLcoXdvxXAarhe+uzQyXHBwc3XhejKStVy7tPxc9HU3XsvrRn8Na5MSatboNPsjgi7nIKOa4ICruBAAiAQAUCKTk2T+DprGKbamxuHuYJPPrxvIw0i9tMhRa46/ugnZtX1eZrnJ4cf/zddf9NbepP763Go+Ycmzhi8t1eJMQ2fTNWHPOaNs4tdjvIA4/OxA9RmSe3+MBrwffger2yLqVc6WLl+uqztKk9KdzrfuUu8Tt5ZL1mvTNjfZZRaJl/P8/mJQ8+c3U+sc4bUTFj84ie8GPzTJ6KGZudB2dWkMhS3rkaEfJR+3N3YqDVMEVfEeQHWkd8VbHKZakcN9BmmFKRY7XJHcuVunQI+5lKv3g7ihx7h3sv5xZ9URMy1Rf91GOViLs/WJDjQbePpk5Mf1zQKhAAgfkkkJLjWe1J86rafI3Tk+PJXtP9oONk68JdEATmlkDlHKTgKg05DoDgTxAAARAYgwDkuCRqkOPaJINu3hUezyoNR22NGeOEQRtAYHIE6Lm64cPGaj6rZIzklzOTay1KBgEQAIGTSgByXLIxyHGd856+ghdPdJXI11kvVBgE5oKAeB3e8POfQs765dNz0Vk0EgRAAARmmADkuKRokOPhb9Ilniowhvv3DF8O6h1ulDYMAWW343105EckcYrhFAMBEACB8QhAjksyBzke5u5eIolyQAAEQAAEQAAEQGAuCECOS0oHOZ6LSYxGggAIgAAIgAAIgEBdBCDHkOPOVD4D1DWDUQ4IgAAIgAAIgAAI1EgAcgw5hhyX5kCNJxuKAgEQAAEQAAEQmH0CkOOSGE0lpNp8pc3XOPsnBloIAiAAAiAAAiCwmAQgx5BjRI5Lc2AxrwvoNQiAAAiAAAgsLAHIcUmMphJSbb7S5muc0fPt7SeXHrxYO1+aEmO3XP3sc/hjzsEbZ9TvJ19TP6QcrJ/Kn+qHlNXPL89EY4YiMLGWq9/lfvfs/AEZih52BgEQAIEFJgA5Lt31p2KNzVfafI21iMWrn7y89OXhUo1n7+TlWHnV3a0Pym0ezupOP+xfe36hWwvSRCHDNaZ7NAmtp08LR2dKp+rYLR+m8NVzx3cHfcIpDzG2ggAIgAAIzDCBP3R7/W5vMzaMpdU+bVL/r55a8e89ayvqKP3v4vLSMPeVMVg073DN19hqTyHJYSrd9GfUKFMoKcdLN19cevAy9e/JqwPn3oTl+PLuG0/uvnFvdUBn9zd2n+/t3BnYWrPDZHzU1g45tijkwvbWk7tXftgeMJTjT3KUAAIgAAIg0DyBP5AEB3K8stwVxry86fnx0vpqr99dXdNtpcMb8uPmHa75GiHH1c+BpByLw785/+Dl9s0PxZpBKjNZOT77Q7Vw450L1573N/elihWWR4uqFgoMNkGOAyD8Z6UvAXjnISYhDgEBEAABEJg2gZQcKxv2fLd96mKXo8vKhrvrbdduMml25YneA5pX1eZrXDw5VgrLgd4o31fZKm/95Bszu84fbtuVciFMscjKsRddtsW2Oy1fjnk3GXKWrRXrVZNU45Wv6yaFjelQ2DiXUEGpEXvXntt/XpqEig27TXs6iSI6xOwj84OjfSo6Nwm3qDFbpk2Mpmi330hqj92h1e4o6bcd8TqY/dDiHWKP3bsmUyy8qmWxvtbzbjIkL8GK9ar7qsuu9iS3fHLFW58d3j84uPF6tl8TvU6icBAAARAAgTEJJOQ40l+TRLGiHspRy16WBcWVrTqP2Zry4c2ravM1Lpgck2s6Pf3mvHBKclOry8GeSjtGihx/uPbly0sPrNdSsbZSIcfajL3AM0m5XUMezOWwr/PWuLXqObz0U1zaRJ3V+WkSyvDEw3lRnJgEToid/dRaLtbuFi9Qjc4+fcW8c0GIctA2VZTfeFH4/sauKzNs2yCJjHrNFwpt/7b7JLtWZEXLtRlLU29RmXaNh1E3z2GnYt0A2dbSmH507rLoJjXsnVsHh/cPDr94f5vbaQ/BAgiAAAiAwBwQiOXYjwRTEsXKMjux+dN0zESUo0jzhG4Jzatq8zUulhyTU55/O3meKL9k16QdhLnqCTaKHEeFULT4pWmD3aoW/NoTLi5aqOXYWX4k7hRlTKWokt5J8fJEMHJNIXwEgQ63OugsrVxsErheGR0Y1iiPjWuPGuyaJA/UQVkrtd6mxNXDYyJ2jtum1nBc2W6lldaDdfnKhj1uouVajsWgRDubNuS+DUDkODGImZmAPUEABEBgBgmU5FhkU8RyLBwaclzrdb95I2++Rj4TKML6gN1UYrSealdGJj2CHHvhXlOycFxd6c2EGbfaYjdzIAWhtRAPbJt6fiv1KJ6UOV2sVbp2h+KdIlJr1kinFEpnQbU7rWKxDF9Ypj021lDRnvjAyBoz7bHl8wJ1TXYk1RjeWUd5XeCZ13vhXrNSNEC3fMMPvce7mTXiU0EEIeomtzY3rNzCmBjWgAAIgAAIzD6BrBz7yRWBHPOf+h4AOa71Xti8qjZfozgxdJ6DTtW1SRQdndXgEo45t1iGmUeUY5tEYUaNBF07LgWMdaWyItVaHRvmZriGjSfHsSNK4YucLIrURhqnwZaLFfBZ8uwEjgsM5Jh2cKnDe/n4qy3TLCht9Q6s/kaOuFVUZsTH5HWYF9vRJwRdYyjWcS9023S0OKouVRGhgxyHoxzNKOwAAiAAAnNIIJbjDr2Awr2PQt1KXTaF0uJur0/5x+Y6KALMk70yNu9wzde4WGkV8oQx9sl+HEeO5c60XKMcm/wNrpQCzEE8O44ci9k+auQ4tC4tbebrfhHL1H3Xtie+7qcIsRda1uJbLFY0O0KaiNFKOdbNEw0IK8rmHJMZizSGWN+HU3ZqeVS7n/TMLVe72VwL02URYK4AIVURYYQcx/SwBgRAAATmn0BCjltRJFjqrx9R7rTaIr9iwjiaV9Xma1xcOeborAnZRroZyxNFl/mRuMTcS+ks668rTa5xyzqezaauChdJFHFdUWtDcc/kHAfWpTWOf9EjkGP60z0lpuQsp5jFYlmOX7/1hXpu7N5bXncCa9SVGv+m6jwXDypqtYM2c12k9TJ8m2r59o2v1XNst/b4KNewoFW8A+uvG025xi17vaCdM+3UNVaOHOdyjtffP8ADeW5Q3DjywGENCIAACMw2gZQca9+172tTrixCxRRFti+soDBz8JrkSV0Bm1fV5mtcLDl++4l85I5k1/kohW/dn4l7rXLZ8LE5sVtKjrXjuswKkVMRvsqNNrn3WugXvWWqGyjH7fTbKqRukmjuyh+OJlfWibla5naOgghoJJ26+1GxO0d98coLuiRpgYtlVFRKj831d/V7zVTJVB0/2aaNM0ir0E/aeQKtDvRDzlTFtfCHToysH97/7B0xiPpiouuKc5RpvQtIU3zaBradHHO6hUzk8PriX7KqynHubRXG8qMPHn4ts31jiIYAjQcBEACBBSKgfyGPf+7Ova6Y4sH8M3gyiUJdNMmP+RfyGjLjxbHG5o28+RrtrdfPLQ7DwP7WxI9Fezs45dUncFKOOQbM2cPSzoP3HHOesRB0kmCXcEzvNlZ9GSzHufccs2KatxcrvRMRVrI9SodVShpJW/7lwYliVQlSyNKR446J/nqVOtkl7Tapw0dntD0Hv1ciqpZxbpJRnQH8dOP0kJFja7euau5Lpjqj8q7lRtDpBcbmWK3sLhOad4440+eWoJudVubbAFX43r37KiqPVx0v0K2UJyS6DAIgcBII/GGOTunmHa75GhfnM8AcTbyamqp+IS/9qmPprFieEwLqF/ISLznWdwV61fHXt9bnpC81zfCTcEcEChAAARBotTuQ49IFHXKMk6RGApSieiX1tuPSJKyxASiqNgLqUbzsUOqUlVTyNAYaBEAABEBgDghAjkuDBDmuTSYQQiMCKtyYfOEx+MwRgfwPR3NCRfCYY+kig1MMBEAABEBg1ghAjkv3LcjxrM3X+W+PeorrePfU/HekdOKc7N6pTzjvnj3ZfUTvQAAEQGCRCUCOS/d4yPEinxvoOwiAAAiAAAiAwAISgBxDjjtT+QywgCcbugwCIAACIAACIDD7BCDHkGPIcWkOzP45jBaCAAiAAAiAAAjUSAByXBKjqYRUm6+0+RprnMEoCgRAAARAAARAAARqJAA5hhwjclyaAzWebCgKBEAABEAABEBg9glAjktiNJWQavOVNl/j7J8YaCEIgAAIgAAIgMBiEoAcQ44ROS7NgcW8LqDXIAACIAACILCwBCDHJTGaSki1+Uqbr3Fhz7dCx1/95OWlB/zvk28Ke6Y2qd+mHvDbe8ubT/euPd04nTq8dBZMYv87F64972/uz9EPf8xGUxW3Pf53oVthaPBe7abndoVBQZNAAARmnQDkuDRCU7HG5ittvsZa7h/KJr88XJoNaxmzR2TGL9bOl2ZjvgolQE8+One5jOLMzvO93YfLFas4/bB/7Xkl/apYoLfbcHJMWn90xishT+PE7kZmXH0EmUPxl64XECO6DAIgAAIDCfyh2+t3e5uxYSyt9mmT+n/11EpY0NL6qjrw4vISX4LLN+Y6tjbvcM3X2GpPIclhKt0MZ9TwMyQtx+cPtx+8PP+2nJYfrn358tLQsVhZwqBlqtTFfXUAeIgavzn/YPQW0k9Sb30wCOD+xu7zvZ07g3bjcekeTTLMvIhyTIrv4r46ADzExw81IqN9XLm8+wZ+tJwn9qBzueoJgnJAAAROMoE/kAQHcryy3BXGvLzp+zFt7a4vnboIOZ7EBbd5VW2+xlq4zZAc8w116eaLSw+evMp/Vu6mkuPtmx9W3l9cklbPHQ9MqKD2zJSPzlRjRsE+9BC7IRvyU4o9cJyPK9W+WxijUw0zRHUgAAIgMFECKTlWNuyFhNvKg41AL62aQDKt9HabaEMXJ6TavKo2X6OYKhQ0Nbm2UV7B209cONYGYpNh2gecYlEhckwKm8vupTBzqj0svmKHKKmD97FCoxbUSrWn62nkwSU5powL09rowI4KG2cTKig1wqaoBnFHlWXB2au0QHkL0SFmH/ltPoUw5bHVwp8khaJGL+fYq/cpJ0ZTIoE4hCuVKRbePtVa0mp3QjuPMjdksbY9PG9layUZWn+h2xJB4ujYTlKOVXX+gbKPVG9BjuWIyPaIeZhNrti+8fXh/YN7b8GMQQAEQAAEmEBCjlUsubve5j1a7bUVlUHRX/GzFSHHfKcUdyAHbfSVzatq8zUyOvJFa73tb84L3VRO+cDqcrCnwjta5NgvVpmryMHwaon31KbOhurtrHtEh4SRY1r50vWFjJ8qFZ5tH8VTC36vLRP9qcDh6rTa6jm8491TzFPMOu1nThY9tSLzcxYV6xrtkMrBIKV+yvKqLTDSONEMPiOCAtWfQo7vXHCNaQVVtDuFWvY3dl3tYZcTzbCgggYEVUStFc1rk4kyWEJnt1pp5jXUF9dCohHTNrKu1N8wF8XaMoMPCV4VdkTowGtBjdRrNVWevHvWEjALr9/64uDw/sHhrb0SrvAoHlasBwEQAIETSSCWY8qaWF0zvaXc4pVl5cdB5jHkeEITonlVbb7G/8/e+b5IcWVx3z+nX/SzMNAM+2REw4wLT4+ByeywE0EwOor54exiXgSViZldMZCFZSCagJHACubXYsDNMGRZEEYU9LWLb3whBIKv/Rce7rm/zv3Z1d1Vt7qnvyBSU3XvPed+762qT50+dUtJF4nymju0QE+NobRTMKWhRrFnNDiO16KbfYC2TrKyZFxG0hEHghaEn0HFoGsUVHY6G/dHNsVEEOHAU3cWjWhmQ4cwDcTwyKggNo1WVMAnxS5VZ/Cqp7pD2GJn0JQuaTyhDW49bpGXD6wH1eNWZDxY82WqjNzvd9kxEahnZOyGcV9emLYdBwLFIi2IvhOOs0Fx/JHiRJrqyJHSpE5dC9TTzid+ZEDkmM89bEMBKAAFhAI5OGbZFIDjctOlPKqWt6jBhYKv/vtzJHWAwp2ApOOYGxTrdCOMG1vmwikmPeQmiHEZmGrm0H0RbqfhmIeTK8Ix+WPCxtKc2zt60Sr2Kl4YsLQUG8ITxzs5z6McJrmQAVyC87ggcjuMlfps6orpH42QYvx8DA2Fzsg9eROEqtG330KteIZGqG3Ez6iTeX/I59igkDLPTSCfZIy23+n2krPFFT+lGPZDASgABWZHgSQcu8kVgOPITa6hWVIeVctbZNIRAgY5vjLaahOOddZBPnArmnXxkQwF1BtNZWY5wRjm8vIAACAASURBVI5djaftwLGTRKF6Z2LMKdwJ8YhoT/5kHzBWCFgJGPUBLhlg9k+WuD88Mk0WnRzo4GgsVaDXkUkOOheZWohlgwT85/cl6DL5rDIZGH0K9Rw/5Z/K23bg2FOGPHeeYeTplpot7GT0Bw6HoAAUgAKzqUAIxz21iJvJrOj2Oiq5wrl0Iq2ioRlTHlXLW4xIR1BrEyfCyHHANzysaxusAse6KdGCXUMtYGhdTDY+OXBsnhBSuBMlP5XjG1AgcbObpWrDzPyUD4KmFJ+usrjYADiWZMxyA6L+ewhIg0KoyjA6NGQnhjualU1Qr+2qdoEITrOTA8eRJ4TUbElJhP1QAApAgZlVIALHnexqFUYpwLGRot6N8qha3mJcMc61fNvhD4trRKs8XYEOUUUTWyVDYRqDbYQTNt8OPSwOx5EkDb/LiZxjj/wk/iqK9eBYgqmbgpxATI8LPWrUkqoXvNzVDzzalkY11IaRTs9/GR5+7iYPiAEiOufQHPE86k+wWgVVdJ8Q7KxzOh74pjsuyheH41TOMXvSMDM5kXPce+9LvJDHBxHbUAAKQIFIznGv01UrGasFK2idY2+pik63Bzg2d516N8qjanmLSrEPn3GK9eiTwrrZHF/KjuAtyGapooVm98/Pl+7aQx2ZSmFSFwisU58L8dyLDroPrwRYwc4Q1sM98tok9lt/ItwfX62C4ybB3AX24WiKtkp4kqD8zmmzSILqVACdcj9BtgxJSl48/WjTB8rlv+3ei6x+wIxSIsTzjQt2tQoy91yxr2Jue9RAp/OiG+kjIVuDILlnF3yQPif8cfKnJRn/avvSf6TBXTRCVrR76s9EvLw8HPtPCHzo1Wgqyk+sVtG9tEPjde+7nWVVEvdFKAAFoMCsKyC/kKc/hmdTKeR3QNR+TsbExLo8LfEmPqTnLP3WlKblGa68xdlZzlneuQkc9ZLDwecz3KN6JWN2C3cK6ORgtZCFTlMO3r0j4tRHA7Z2jp5hLwuSrQSsS6rWbaqUZc3cVNEnctduCo57Ct91yyahwnBPIhyoEVOtbSzY1EZYCUYpcVZkphJO+b/Ca9Ck/FpNnzzB9/nxI97yZ8qlRKRWFnaMMgA1eCoJlYB+bYsNNDfNKFahoUwCfn78SKQvKX/UAhHUQeGJK5HEbp1ebKVTLhHr66PMnywcu22qxGWtrd9lKuzaFUaF7I4sdLG1A+o/G9jCiR8ZOt2efn5wg/2hFeyBAlAACsyMAofs1XPi+1weVctbnDU4nqLpN6Gu0hfy4ksdT/wZPaGSHkDd6At54SLHsqfy+eHLSxgOKAAFoAAUkAoAjnNxbsAxzpPJV0AEj+OrHefm9uT3Cx7WpQC9ihddD1vMEMo53r36NmYLFIACUAAKKAUAx7mpADiu6/aMdppUgOKCt2MLHh/AIGjuhG1S5Km1m/xwtE6oQLYxThMoAAWggKsA4Dh3zwMcgzamRAHxutXPJ3KTeUo6gi7Uq4B4cELWDSY/FIACUGAoBQDHuVsR4HioyYTCUAAKQAEoAAWgABSYdgUAx4DjXivPANN+5sB/KAAFoAAUgAJQ4EAqADgGHAOOc3PgQJ726BQUgAJQAApAASiQUgBwnAOjVkKq5Y2Wt5iajtgPBaAAFIACUAAKQIF2FQAcA44ROc7NgXbPT1iHAlAACkABKAAFCisAOM6BUSsh1fJGy1ssPMthDgpAASgABaAAFIACFRUAHAOOETnOzYGKJxKKQQEoAAWgABSAAgdDAcBxDoxaCamWN1reYpWT55tvt149VP+efpobpiqtocwEKSA+SxH5ZMnaD1duPb6y9deCY/3Xs7ceX7n1nz8dcZd/nyCtWndMSvRYDM2tx2fXBvpz9k9/V4XTwsoyoeziW+jJL/lhUKAAFIACxRQAHOfuxK1QY3mj5S0OMb831l883AIcD6HYQHxpt4AAoPhnKQDHEzfKRMZ//+roCI6J0QzxV869FBx3e/Qt9MiD0wgOoAoUgAJQYGQFDvVXN/qra3PB/XJucYMOif8XDy9wA93DJ82hfn+5G9TlhWvcLs9w5S12ui0kObTSTTExPj1nYsNmw+fgGBzLoDIreXRvT8SY2Z7cM0+NcxJNDamA+JLfs0+ORWsd+eovtx7/5YOz7tgRSI3GZ1Er2FldAXpcqRAtjt0CcnDcXd56fOXWD8sxT+hb6P9461yszVh5d7agFhSAAlCgDgUOEQR7cLww32fEPL/G+ViQsQXipYXVDfZns9ep8gxX3uIMwvEAok3D8atvj6ubJZUBHE8+Opy7cCqaUCE9BxxP2ghmAXfA1T5bNwPHvU76t4VJ0wf+QAEocFAViMGxoOGT83P22kehYg+g1VE65BRuTqnyqFreIuDYnz8ROBZx4hc3158+PPcNPSBevXmR/uSR4+NPdb7yK13MtHz15kUTqLaErZ41ecWLexv2LBDVnVC3sq6bVdFr2/LDrRc3ze/R/GjQbPYx940br8/cV/9ObH+uzfXE/rv79jeflf0T91+vfMgd/nzprqn729IKP9TrfPjMNHvmxvemWdr4fkVbPHP/2Ruueyl/goqBxa4IGz+5cNi15Xrl2hIlB0WOCallRmwQjJQ/35sUWLGhI9M8ldYLYYpaohjFTanlVHpA6G23l/SHnOEZ1SE+8rpBsPzoB//R3TS9UA5kDikBKWM4kjRs+/j4SmCRFIj0XaAtL0xu+wHmsHfVxz2ZXPH2zj939+99eal6UygJBaAAFBhBgQgci1iyjQ33Ol0KD69uLMxHbmOA4xFEz1cpT+TlLSoFiDWHjxxLOD76zbeSPo8TJaudomXiaQOmlINhQZbI2OLp1ZsXmQNExiYg3T3+dG/9qgGgjfUX9pCEXdMs/akLS/hONes5kJ8MRKIWT9+4YYlzABwTKzN6/nzphiVpCbiWpD98ZrepoqHwwIHXHJe5P50uIbXl7O9XOLt3ex3xHt7wr1vl4FhCocEyikcamHMqeiXNpYz2R+BYYKjmv2yY00wP2iBM1PxNoGxpeAAcSw953bM2w4TqshTeox/8YF4idNzzHPAfLc7+6e+ss0TGRr3e2g/KOmd0TdW+IFocoWTtcExT5fzPJ8wwqY3lv+3e292/t3vnPVf2/EmEo1AACkCBYRUI4ZhyKhaXVENzy4sCiwUfe5nHskAsK8O/og3rU6p8eYYrbxGRY3/0k5HjoyKOu7d+9dNzFP21cCxoWHMqtSaQ12Fl5yibrhFb7Kh3P+Zk71d0IJto2GB0r9MlkracnTbRpdCvxU2nZB6O/aPc+UiM2bYcVBTIq1k5508n22xHvms1Qi6pw7jWTzGyIvpraVLvUetd+MRGoWKLqkqQNBx7EGmYmysZbOfCpXk4DvvCGs8063ez6/Yo16xbkpkz52DCbuOR407qRwZEjmPDZMYLG1AACtSlQA6OWTZFAo4pHblvSLrh87Y8qpa3OINwzPMQXj20MV01xX3u7HW6Aj0pLnt0b+/iiz2zbQLJFoWpEQdGZVjXpWeDXAS1FV/s445xUBZnAcdxx7rsVIDvxgF/gwK3r4O0B1HMp1iHTTnR+m3Obf/Go7/upSSs6ABxxh8VOfZTO4x1etEq8Sqe64OpQhtpOPYCn9SI5Tb/aBwTY4CYp9jsVU7FXKMknW02gaFSCtupQKiI/05TZNR/hNBdIImCXBR9tNNtLa2i0x11tjDnA63ceYWSUAAKQIG0Akk4dpMrYnAsydhJwGj26lMeVctbnEE4ZukHsfnDGVTNYwPHPUG6KgysGZTKu8BNiyXzSC1PHeb7RfvUjspX9kldrpLBG9fOUy0dkHYTJxRw81piWxceeAsnlh0y59gBZV9Vn6r51YEq2lxkk3nMotcpf6gjmSznUXEnD8c+hrIcA6ciQaRfWAy3SORlQWLRiyzFDhwvimfr5GDecq7ZmBtmXIKKzAfqr5NUTaadnvIyNolCNqJonlrgmRLyqMPZxh9aa4IXDqLXYsol6vqzkfWFHxp1tlgneWvYhgJQAAoMp0AIxz3KlNhw4sEquYI1TXv6sTXgEhc7VnfU61d5VC1vEXDsz58sHLPCGo6dqO2AWadg1+djqqUg2/IxFbZ/ysxmDcceAbNiQyRR5L1V3KkzHIpFjlNe+f6wsejJFIsz922G9OixQIdxHWdi+MWCrJRHYVNmHV407cSoNIDRmCHTQnJD1OILlmWbzZpgnfIvnjH//TLaQyWIz8c0cNSOTbNWVRJe+f4Ajp3Jn9If+6EAFJgeBSJw3Bm4WkUbZDw71FieyMtbVPcSPxtB38X5+RPCcbhHlDdwbDZirfGWaTuX4eAYIvzlGM2OBlnFjumcCe3Pe1/u39vd/+ffTmTvskGGA3vjTQZ09Xt1VJIddZqldSp0ScfVTjbL2WlEeO744x8NotdiCYISOccyC7kiNcaKZSnW76Yeweh+By79Zimgq5Gd+NLNn7Ytk5O6pGfIMWGreMOq/4znlsijESkSjXtwTBWDj+cl6mpPBriaWtjk0g5eyBsgXUWFUQwKQIGcAjE47tI7eSZfgtIn7FIVLZEx4Ni7Kdb454GA455lUGJu8waeK9TRvT3+bpyLvJ+e47Xc7AhibrMqnE7MUJFj8SePFrunHGF0sGYcLyNv+fv3vttZdu587oIPhJsmckw0rEKzJtXBIq9cqc2mQ/DVKmTQl4V1+WoVVNFYcdXL+dP58Bmvxd1TjTS0WoWlRsJNnclQDc4iRDhGWsXRD/7D47KOPx3nyxd0yPlytdxjqx/5iq1WIYO+umsiG8SsVkHM7WeG6Fl05Ku/8HcQhSaWYpe3rHTxJfMSGnJYl2TMm1UTO1GXT/v0tpgqkdUqOpt3aLWKgY+R6Za1Mu7ERnkoAAWggKOA/EKe/hiefbVOfgdE7bdk3NVJF+K7euyfIekmLz3lGa68xdl5BhA3J42YPB83kahAecOSTVnIlt/hLBzr1dxYs5xcnRQITsOdLiUxJxdIZhX31q+6bgjrtmKQ5UzJHryA7qY6G5ORYzcJ2LIvnWjq9bj7csFj8S6dU8Cpy1DYq3s/eOHPqfjayY5wDznmuj3D6JS1bFeg08OUCgc6lyRdWO+U8Oem1bKEVwNnfK0xWVcDKKtrSJEwUWcG6wLqqB/iHSp91jHK/CSXWF+2/koroHE8lQnQ2plM3eAFO8forcdqvQ6ppNNTx5y3BLJTy9b1qqgrvLUo/BTsrrCeJzGbnBa/L4NuE+kfGU5c/U78xoKljv3TZJCkKA8FoMBQChwaqnS7hcujanmLswXHB+WCTmTM+Vtxv0fe7Z4+k2CdvpA3/FLHo8wTojcX7AgTU6kLmsVHsYW6tSpAX8gLFzmWE1gudbyzWatFDDoUgAJQwFUAcJy7yAKOJ4GoJt4HyrjwVp+guDLgOBg7ETweJfPYvWwFzQZnMcVovYBlNq83aGFYiyhfjwK0TkUyN50SkPzsI4wdFIACUKBmBQDHOUEBx4MppJ47Ym4UJt+HIHIsE5TdWDKEkgpQXPDZCAseDydgEDmWKQ1uLHnyp9aseZj8cHRXJVQMeml1uq8kszbc6C8UmFgFAMe5iyngeGIn7qQ55ucce4Hk4cAuNycnreOj+CNet1r/rHFNbF6sTH71AsmjeN64zwd96PMCigenMlk3s61zfhRwFApAgW4PcJy7SgKOARBQAApAASgABaAAFJgpBQDHgONeK88AM3WaobNQAApAASgABaDAtCgAOAYcA45zc2BazmT4CQWgABSAAlAACtSiAOA4B0athFTLGy1vsZa5i0agABSAAlAACkABKFC7AoBjwDEix7k5UPsphwahABSAAlAACkCBSVYAcJwDo1ZCquWNlrc4yacEfIMCUAAKQAEoAAVmWQHAMeAYkePcHJjlqwP6DgWgABSAAlBgBhUAHOfAqJWQanmj5S1mzrRjmzvb1y8di66zeOT9j67vfHTqD5nqtR/K+RN1ss2df/jjlZ3tK+/PV/XhnbPXd7avX/vjkdxZULukaBAKQAEoAAWgwCQrADjOYUEr1FjeaHmLyVNi5VKa1Yj8Nt9J1q1KhLkRDxof0mjO/6HsjlZYwO4QDw/0sJF8FGlCT7J4dmWE3g05EE04jzahABSAAlBgNhQ41F/d6K+uzQW9nVvcoEPi/8XDCxYa5tfMfrHRX+4GdW3hWg+VZ7jyFjvdFpIcWulmbJJQIDOBv/OnrqW52YOtCEhR9URAOjdLh8PNUa14/o/65+joOarFnHSxNkd/eBhuIGKzK+bPsP6jPBSAAlAACsyAAocIgj04XpjvM2ImGnb42OqytFCQj8szXHmLswzHWbIcho1i2RciO2KIfAMNUkPi5ohW7Aml7Y62Z3T0HM9uZW+zQ5z1YciBABxDASgABaAAFBhZgRgcCxo+OT9n71Xdwyf7sehyp9vLHBrZp1TF8qha3uLswnGMaM1MGC7xN8KINiZt+JXa3Nm+vrPtxapFddqv/ndScgnvgqN+FV2At0wd1C0PFcMm57lLrNnAH2pZ2Lr2xyMUQZeJFspDaVftj/S92+to9VjLQ3jLarGnEafvWpzrrIDA62g3matcAZMnrb3VU8X/0SDuT2Wa183aiyH2QAEoAAWgwIFXIALHIpbsJEtQeHh1Y2E+cocAHNc+RcoTeXmLoWiGWcNDHUKr6omqxEMuz1ELMhmXDF06e0Xn5hI1msaJmC0Nu01JULMt+z4zK14vJKJpK9ROxTA2uWfTiB0p0v6IWpfObu6cXemRk9c+uvL+vObI+VOX5Bt45JXtrPJZ19WBdvtc4XUq/NNvcOWS9dzgLyN720Kum+KyQ+NilTcV3QFShG2MDvInckEzLWMDCkABKAAFZlaBEI4pp2JxSSkyt7wosFjwcSSzgo5G9jcTmCnPcOUtzmjkmNhIs6OHLMOgpJh4sfKaC9VR5601AX8Kp2wx5QPH34DDyBBHvVQvgv1BU16XzZ/MN3lOMQ+DRpg/ZJEi4rRTxlnFTocvgxaEXdrJY7qs2QHn9aCSyYeHXDfpQkQtxx4n+ACJkuHDAx+gAf4b2bEBBaAAFIACM61ADo5ZVNiFY2Ji9VqewejmbzzlUbW8xZmE4yxUMRys9ggbiXQyCqSjDiMaMgsJjDsWNmsqqisIs+JcU6IA5+dyxE4fatCJ7DITOX9YRVtM7HT50neMfBA7r4uQs1bb76bebwrYDVnXBG79komhZN6qplg35Z6UD7Z3ypZrYoA/Mc19n1EGCkABKAAFZk+BJBy7yRUuHDOZ6H0+J0G5ubtLeVQtb3EG4TggIQtbMg81CVtsHtpZ58QOZVOMesPgpd0TEJg95IUkqVnBYRwiZQJDuMYwAZyTL+vUsp4H3Qng1e8IQ1iZK6xathWtGhz0mSx+YJWZkP7YFvi4pLapuuqsE6XWMWl/p0qZcKi9sg+Bb0TD3ETOn4zyOAQFoAAUgAKzrEAIxz3i3Y0+Dwmr5IroHTHJzbXLWh5Vy1ucOTjmABqlQyfKG52B7k43dkiTkFFvQLQ2bBknLQ2yfrOSunhYl/b4rKmoeji+VzoEDZLzKuSc80dUlBbZgwcTQbUf7vFzdoV6viFX7WDI1FlPYlYJVKtEF64b76ZsP+WDtz9mNOOPOpTqAvZDASgABaDArCoQgePOMKtVdLqA42q4UHmGlSfy8hYNl9gYZ6hPQKumVmbDwq5pkCEUg0U5agxAPXOStFKrIkiAc8A9ypox3DSODdhgvomS9GcqPdrxR3gig8pWXtEdjvKxWLifsyskCmKxVWd7Tmqn49luUsmgKeWDt59cDdYe0ba8wpkphENQAApAASgw4wrE4LhL7+SZBStonePoUhUdWTKxylvtypZnuPIWZytyTEjn5AZolIm/V2ePphGN2rSRWvdPC4uiKYmb5ld4wZQqLktk/NGVa/YNNrlHfrlatHnt7KaXwkutOekB0knPStrzoHcMTCVBXjLUK988U90kfz4yH46mP2k9ClGLlTE9JR9IGSn+/KlrahRsXeY8D+sGTqrT/Mj7YkEMe5SJqXey7jgisP1BN2Vd5iq/qhDvKuKnkWWLkFTwhzeFbSgABaAAFIACRgH5hTz9MTybSiG/A6L2czKmt/R0+egSFvpeaGzUtVEeVctbnCU4liSU+By0T2kOTg2YUcRSekVhHi4lizz918M+W1HUEuzFgI9QTK7RKyiTaIzjoIrFjmI3ecoQYpLDgnEJ0M2zRMQf6g7tlxwcCyFbW0wNrQOrKwUXLdgnDVs3NhxWPaFSrJbtjpuubfeH3ZRjTQCtF0jW3urHG9ovdrreDvYn1ot8H3EUCkABKAAFZkCBQwM4Y5IkKI+q5S3ODhwHHMZJxaWc2iZhQ81yz7ENBaAAFIACUAAKTLcCgOPc+AGOm3p24lkKAfuy39lzozO0b27kdejqgZ9oAQpAASgABaAAFDh4CgCOc/gFOD5QM178zs6zLHJDf6A6DqyHAlAACkABKAAFKisAOM4REuD4IDFiUwHpyifbQRITfYECUAAKQAEocFAVABwDjnutPAMc1DMK/YICUAAKQAEoAAWmWgHAMeAYcJybA1N9esN5KAAFoAAUgAJQYFgFAMc5MGolpFreaHmLw05TlIcCUAAKQAEoAAWgQBkFAMeAY0SOc3OgzHkIK1AACkABKAAFoMCEKAA4zoFRKyHV8kbLW5yQ2Q83oAAUgAJQAApAASjgKQA4BhwjcpybA94Jgz+hABSAAlAACkCBg60A4DgHRq2EVMsbLW9xhJPqm2+3Xu2tX62+btqn5149HLJK9cYPUsmV/RP3X698mDsRRhivVqq8ceP1mbv7c9VH58NnZ+4PWcVp/PCdf5x/cuGw7eziW09un7qzeBDEtJ1yuoyuQQEoAAUOvgKA49wYt0KN5Y2WtzjCfXci4Hhj/cXDraef5ubMCF1rucqQcDw0gBZEq6F9Gw+OP/vk/LPb65+5HYzubHmIXQ/hDBSAAlAACuQVONRf3eivroWxlrnFDTok/l88vBBrZWlB1E0drR8gyjNceYudbgtJDq10MzajcnNmaDgeDQgIf0XIWfy7uLfhugQ47vaGBlAxEN+v3H8tYrT83zAh3rnt36juszeywzqSb+4QZ9vnk/bchVPP4kFiEU5+9o+3zlVuijeLbSgABaAAFGhdgUMEwR4cL8z3GTHPr0UJ2NBzAp1HvOVkFCnPcOUtAo5TE6AEHFMmxoubR7UPR/f2zn3DEQdwPCIc66uBiNT+trSi/+Ta5rY/X7r7+sT2/sqg9I+CcHzs59tuQgX3XyRXpI/yktiGAlAACkCByVMgBseChk/Oz9kbWPfwyb4XXZ5bXlzdWJgXwWPAsWYpq9g4e8oTeXmLVp9spPbqzYs6iEuhXJVzfHRvb+vFzaMClx+KjY5MLzaBXvUnVfn2uLUlTr/jTykvgrVs8Fc0m0prlrYcZyi6zFMseBlG2D1yTwShWQFjlOZMzuHkpPJB0MmOEJHalQ97OuD6+sx9L+bqh3KdnGOZbKCivLoite+EfmUBJwAsKFaXiUFwGo5Fd3Rc+cT2586oCdOiNVHmxvfOoS7vI7Ug/VFVZDd1XZ5ezPvotcnNRfooRoTCxn5CBXcsnVxx4up3+/d277w3eTcD7j+2oQAUgAKzrEAEjkVIuL/ctddulT6xMG/u0xRaXlzqdAHHRpPaNsqjanmL+pQ7/pS9Y0fsaDMZ6E8LkeJPDsd7F1/cPCoYd+/ii4fnviHqdZC0S7Abg2PBuGo/B2LaFk2lhzIZORbMrd3rdSTxG9OGfSNGe4TpptfUjqmY8SSM4BK8asbV7KvIlZjVUCyVtADqVOx1VvZPWFiUsKv5mPzxodw6SUZ1XeLygI8TcExkbK28ccOpKJqSzovqtlhHisD2WN8IcE/c/W1phaLOd38TVB2xTh3UPqtpSYKcuf9aS+T0i8pQ4sQnx/Q0jk2YE+vPbp//+URw6O2df+7u39vd39kMDlklcQgKQAEoAAXaVCCEYwO+5FYsQswCyYDj+gevPKqWtxinCmJKBbgBhnpw/IooVgaAKXwbYmUajhmRUwsaiH2KDQY38Ep2xGmEEMdBXmqWgzsrL9zmh0yYOS4R4ycLgnKnw7jEc4aGuz3OhdmKQZcpwqqZWxz1q2uXiIY5uca4M4KnvU43VlI3K48qTnX6SBzvJlpY3yTgCuqlxiVAB32Jm7Z1lRq2WekVZU1EwNf63Ot0U3kXiBwHc8zRDUehABSAAu0rkIPjBARzIObbjXemPMOVtzjbOceWFBk+qnnlwzGFVxmDDgHHHEYDQzJ+LF/I09Bsbt5xOObhZ30W8JIExzwBw4KvOGTCxlSXVzR2Yxs+sTngKOBYBz6pWXs0c0g7z83Ziuqob1cVjgBupGQcjgm470dSJoRQwgETSHasBDjOwN26TVVs4NlbtM5pUI2LrZvosogKD1yvrUJ0meuMbSgABaAAFJgYBZJw7CZXWAhO7bf3+8b6Vh5Vy1ucNTgmNpUkqv6X5BowKyXssrQKmRfRABxrQNRRZAdq4+QaC1FTSUXhaTgOuy/Tmh2jiRPKR08H6TIEnDnEWFCn/8o84AqRY9GsSRq2Gzx67QawvSsGka5qgWO9R8D0p2Jl75AT1bZqAI71lE5MJG8g8CcUgAJQAAqEcNxTy1CIlGJ9VVXJFb2O/66ehWZb2NSqe6M8qpa3OFNwLNGQgeAkRI71nBezl6LRLAdDJhMzh2XhJByrkmk4rp5EEZ5fDcGxaNZGarOpC84JHgvBOgVIq0TkmPWO2rFhb/WnpW1CcEnPgGOmG5+32IYCUAAKQIGxFIjAcUDAPZNfobiZljc2qyDLjQJrVpRH1fIWZwmOw2wEC8c+NVIgVr/xZmG0wchxFI4jr/2J04/ccHIwnD0ZOI6Hor1TWmap+q9weXBMpGhyBvzwMONIn2KJhp2KzooQNgSrvGJNOX56/sS5bTAcj4itigAAIABJREFUuynIgXWVJWzTJEzGheJ49eqerUj9teVNT6XzvhrCbVtXddDv2lg5x733vsQLec7MiU+V8MkKe6AAFIACpRSIwXGX3skzC1bQOsdsqQp+XUPkmKtRz3Z5Ii9vUd4OaT0KnXEr8de+ncZziAma9y42DMfO0hkaeb3v4RGXR1a04N6q1SpsZnMGjrtyfTctQvS01+sb3PvyEscIglSeYCByEnT+gwvHRHsmV8GvePc39vloGanV79XRG2ysWZrhtNO0Zl0iKw5Yh92Jw/H3Kzz7gnkbBXHmP+VyqLUmqMt39boWFnAbgONuhXzi1GoV3Us7tFrFve92lkN9sAcKQAEoAAUmQAH5hTz9MTybSiG/A6L2J8i4h6XcLBnUN5blUbW8Ra2bZE3z9huLHHf1gmj6S3UiFlst55iY28ljfmW/+eya8IK+GtD1esZOMFj7TBysPqHH0Tm1X65zzEv6D1EUZmYO80QOMa/ikWO9kJlZ3FfQIYdjnoqg9yvTMlosCgiy5BXdr9nd3Z+zlGndJjzVGcaca4Mv4Wm7RLFeUjKvKMFaF9C1YmFdHdlVdG4riucE4Zhs1rodh2OrgDZqnwFsXSYX97biOseJj+Qt/233nuBjLHVsZ5Q+ubAHCkABKDARChyaoqtSeYYrb3GW0iom4gSYovk/jKsURvU+pVHf89swnhzUURYrtT1LLXWcz7uQPwW4vwNAUigABaAAFJgcBQDHuZs34HhyZio8GUYBwHHuvB5GyWQ79JG82Gc+ZNJFImzc6cqc492rbydbrsU9NAIFoAAUgAIjKwA4zt2iAMcjTyxUbFUBwHHuvK5raOgb0f6Cx+kPR/dUQgWyjfEjBhSAAlBgshUAHOduooDjujAC7ZRVAHCcO6/rGwvxZt6TC4dtgyKhwsdle3SybwbwEwpAASgABaQCgOPcTRRwjPMECkABKAAFoAAUgAIzpQDgGHDca+UZYKZOM3QWCkABKAAFoAAUmBYFAMeAY8Bxbg5My5kMP6EAFIACUAAKQIFaFAAc58ColZBqeaPlLdYyd9EIFIACUAAKQAEoAAVqVwBwDDhG5Dg3B2o/5dAgFIACUAAKQAEoMMkKAI5zYNRKSLW80fIWJ/mUgG9QAApAASgABaDALCsAOAYcI3KcmwOzfHVA36EAFIACUAAKzKACgOMcGLUSUi1vtLzFzJl2bHNn+/qlY9EVYY+8/9H1nY9O/SFTfbYP/eGPV3a2r7w/H1UvsvOds9d3tq9f++OR3Fkwy5LSbJzIKbdyafv6ztmVkgM37Owq6RtsQQEoAAXqVABwnFOzFWosb7S8xSRviVt+itXo3rz5TrJuBP5yg3sQ2xGwO8TDAz1sJB9FmtCTLI6EdK2MPhktzaCVJu38qWtDDNzosnNnhpxdTcwftAkFoAAUKKLAof7qRn91bS4wNre4QYfE/4uHFyxJzK+Z/XojUt2WD1oe+VB5hitvsdNtIcmhlW7GpgEFMhP4SzSQ4mZ+C6dthX072yIyqv4NQY31TdpYNwNv6zJXDwM15l6318k9/OTtgswcfURIu/pPBKPLzoxO/uyq6zxCO1AACsy8AocIgj26XZjvM2ImGrZ8LP48OT/HLpqlRCzPcOUtzjIcZ4NhQ7JRLTRQamLXBtAT3+vsEGcvKSAzZzYOF0cfXXZudOJnV23nEe81tqEAFJhJBWJwHOBv9/DJvokuB0eLXZLKo2p5i7MLx0Q/qeBuLhE5dt5maECH3NQv5iKu7Maqqa6ONzvBOR/QHSsCHUSqtMxSpXC1G+emDuowdiKpOtaXTpcC6jr+7TnseCvKUMvC1rU/HlF9FKoK9/TRbrLv4lzWDMRaHsJbVouFNp2+a22vswKi49FuMle5Aib3Rnurr0JUng1o3J+4zpbOWa1439ko+/NHe2Jb03t834zUXHY9UmawTDu+Ps7JosbXaityVyrJ7ijsZbwwHWTLcTV0B42r2IACUAAKTLcCETgWseT+ctfeP5YWROrFxsI8dRVwbJVpZOzLE3l5i+HdVDNrTFK6x3u37bAFvifTmji0ecnm5hJVmMaJBhjUrlyyCBK4wa3Iih9dMahEKKMpTUKGtkI44mB3rNdympF7CR8k1lhesf6IWpfObooXtmjntY+uvD8vdoquzZ+6JN/A8ztrLYq6+ld7pyNc5HDbb5CrJxpPN5XrphBH9CL2miZZtApIE0auQf4kZD/y/ln50ieNuGnN9NdzZv7UNT2yiQbVFUN0n7fmOE+jc3bzWlz2rD7kj520TrN52SU9O7PUtJOeXao7+c7iKBSAAlBgihUI4ZhyKhaX1J1gbnlRYLHgY5VZIeDYpiP3TUS5+StmeYYrb3FGI8d0708QxjAoqSZhGsJ00NQyioO8ZEuzgoEhtUH4whZ2cAoToBgy7nWkIdlU0LsAX1JXEB+neKwxaIT5QxYpIk47ZZxV7OQc2QtaEG7QTkPGbkcGnOPMgWjJBGt6RCvUjkode5wQsvP91Ucz6qG302nNjFEwKF6t1J9Ba9z5QHb5VCMXHgkscn34NpnmzQoxs7I7P5swD4O5MWhwU73GfigABaDAFCqQg2OWTcHg2OmkzE4ulIJcHlXLW5xJOM7ed4N7v8+szoQkgqF7vE5gUD80a/ImbuaM6LYvGdeiM2ucDnG45MgiGZQfNSzFKYe5l0JwZpEAxUTyRF2GLNQRpxHrD6toi4mdnCNlONbdo2O0fI0w2+xA5TPqxZBXScS85Xu4mCkfbO+Ub5VHc2Bf0g7LseYSKbfzbQbddKa9lE7PUtGg2EOjE1Tk04AacQbRaTbdi8QTiDo1AmEp6h89L/K9xlEoAAWgwDQqkIRjN7liyUaO2c1bdJhCy/Z1Pe9orX+WR9XyFmcQjunez0mIo0aKiniZYNslJOe0DKJogXWFPixDV7YfZQ5DSCFMGK/okJMva2qZMvENg0e6C4yEWJBPHRW9Vi3birZY4D+PbdvzlJmQO20LcSe1b/IoVVed9cc0kFo1aL1VblT2IfBNNMWffPQPBcFoVukLZ1CvPBtTB0y9Ys6ffjfJeY2bQZel59S4X5EdigTdnWaFAznZ3Wlpo8iBsDITmrO7O+5OT3EICkABKDDtCoRw3FOLuJnMCk3AKufY3kflBVFwc58X9gvUdt0sj6rlLc4cHAf3cn5GBaxTaS6laEC0HHBzQB7aBDnGQq0epksK1GHdECbMWZDtIO9ssE0meGyY8FcRjN8R7o/YltTFpPD8VxnAGs50r8MAoW/IlMxu+OqJwgmps92UMqZ88PbHjCpVM4fMSAUbCYdZx4UDPJeGHfJb87tJc9s8JhFt87G208avKDlVTQMqxpnVbXaQ7Cmy94RVzxh6tvtdy/Qah6AAFIACU6lABI47wSt3LL8i6CSlICe4OSg83lW1PKqWtzhrcJzjj+DGH+BjdIIRTCTu+gwWZd0AStgUdQp7zkgqMkFKHya4YyGV8qOZbY+K6E/zRpdn0fFHWJTAZOUV/rtw4/VIdjzYSbDlx4CrDISjnmjc647puLff7SZ5FTSl6nr7JRfa8CcbykwANd0XzzHjsLNhFXbNBc2604B0tt+7CWRnXfPccPXxKnrN5mRPPatQ73Kzy+l+0E0chQJQAAocBAVicNylTGKzYEUGfymnokzYeHaosTyRl7eo7qmEdDzuxe61BAEJxmXFwpMwx7s+ynC2OPK+WNLBIo7bDpVUcVZCB7awQPKXa/JT0swofMnAVBKSWGRDyRX4IxbKkP5bshG1mM+uD0x8u96CrSuFlXYrfJUwrx6pyrrjjBrbH3RTDgdzlQ89EaQifhrZS2dNfyv4w5uKbbMJcOT9j2RYd+WSA998FOzMcXqnW3Zbu75zdpO9H+nKTv3SA+2s1EH6XLn2kZkGfAEQOZl5s1nZPSvaT3Ke94t8s7NrQDejfcdOKAAFoMCUKSC/kKdXn7DZEfJNO7WfB4YpiqzLm/XdilwxyzNceYuz8wyQDiXSKeTignPnzk82uq8n3sYLUM+zIv60K8V6KQcSJkz2KtGYgmm+HXOV7LKWHcDKdYeIiioKZyT9rKhLTMQfAjjaLzlYVPdDyNYc80r/oM/qSiuiBU+HWAfNkCXVo1q2OyY92tsfdlOaI4DWjWtv1RSSwoqdrrfZ0Uz2wuojn3mkUftcwWQXhxKPdmqMHCvWHwH0XGqvTTdtWi+B50wD9iNAulltPSU772Cmm6LvQn8re6x3TDdtF8WgABSAAtOqwKEpupCVR9XyFmcHjjkcBJPQpRzcd6HAgVZg0MPVtN5dgvMaHYECUAAKTIcCgOPcOAGOm7q98d9tA+6hMKGN1TXlQ2AXhqBAGwoEP2hgZkIBKAAFoECrCgCOAce9Vp4B2qCQ3FjDHyjQkgL4nQQnJhSAAlBgshQAHOfGoxVqLG+0vMWWKCQ31nAJCrSjACUND5G73Go0pR2J0GUoAAWgQFkFAMc5YGqFGssbLW8Rt1goAAWgABSAAlAACkymAoBjwDHSKnJzYDLPW3gFBaAAFIACUAAKNKQA4DgHRq2EVMsbLW+xodmMZqEAFIACUAAKQAEoMKYCgGPAMSLHuTkw5gmG6lAACkABKAAFoMB0KQA4zoFRKyHV8kbLW5yukwTeQgEoAAWgABSAArOjAOAYcIzIcW4OzM61AD2FAlAACkABKAAFOt0e4DgHRq2EVMsbLW8R5x4UgAJQAApAASgABSZTAcAx4LjtyPHvf3pw+eWTyw+2E6sYbr/78okoQP/e/WLIE+nYz7fP/3wiN8rJBjfWXzzcevpp9bpH9/a2Xg1XpXrjk1Vy6/iFXzfWthJDlpR00sq/efrXzY+b68jX7wzZ+Ej+fPbJ+WefHBtH83MXTj27ff7Z7VN3Fidrmo3TKdSFAlAACoysAOA4dzNoJaRa3mh5i858zcIxkfH/bv0+N0xOaw5+Hb7zj/PP/vHWOWdn5aYmA46/+Xbr1d761dG60FgtgX3v9NPKR0QWPL15+usRXJpfe7758aM3I20O5UCk8EgwGmkn0akycNxZfOvJ7fNPLhyu7phT8sQ6sNgRJDGaKAMFoMDsKHCov7rRX12bCy4Hc4sbdEj8v3h4IVBkaUFUlP8i1YPyNdzYyjNceYudbgtx3Fa6WW2GfPHj5ZdPho4Wq8kmImq31z8L5nY1073O0HA84iQX+PtQ//v2uOfehMFx/9HmxyLaqv9VZ9ZJhOOR54ak6s0L/57PDfrQcDyyPwJwR/yFZPzAszdj8ScUgAJQYNoVOEQQ7NHtwnyfEfP8msfH3cMn+6sbC9m7QhO6lGe48hYBx+7MEXD8YPWiuzOHI7YkhdNGTKiQjFICjmUmxrlvDBV9eu7FzaO2F93eBMExRXApYCwQuToWy+4cJDimwPnavzc+fn78CB8sb7scHHd7oz4K0q8r42VleL3Gn1AACkCBaVcgBseChk/Oz1kEIRrWAD23vNgGGc8ONZYn8vIW1WmjEioomXjzp9MGEO3G6HAsWCGRUJGN1B5/aoK4tKFyjj899+rhuW8Il8VGV6UXv1KBXv2nqHJxb8OeO51u7+rNi5QXYVu2+CuaTaQ1K1s6omy84ikWThlG2NK9b4/L4LcMS1ujQt6cw6mLGtGtjJX2H8WDpjyubKKqfKcNObspFkf+vWEPGeIUcKlD1HzD4XIVxKWS1TM9BtXipo0/Whn1bCAECRKvSSXmtiogOvj8+BHZrGjQiz3n/GHmlBqx7JQRkysAx87ZqocYO6EAFJhpBSJwLGLJ/eWuBRSVQSFDxcHRcvKVZ7jyFmfnGYDfhERisQPHF29t6jfwzKt4YqN68rF4Dy+ahXn15kX7jp2ES5PJQH9aiKQ/GRxffLF37puuYNwXexdf3DwqqFeAMjsFBOzG4JhDMwdi2rYWeVN6OxU5JusWrIn4jWnDvnoPN0pd0FhP7B74zEfHbEvsE2AqQsiGfU33CYItnvYfueBI1WNU1+19/Q5rjTDR4dF0zjG1aep6DhjHMhsE5dZnVZIQ1rrquNftEdfS0UCHoKJ5IY/geOPC8+NHhM8bF56L9GvhsNPTbtQf6temSfKmMq62NEajZdgDjjPTA4egABSYUQVCOKacisUldUdUcWLBx5R5rI4OykhuRM3yqFreIuDYoBhtjBo5rvyOETGlAlwfQ3043iKKpQAwhW8JTzV9SpZNw7ElconXKncioFjNxEYH3ytVgBjdScAgx5xINgd3Wz5gevLBPCEEDhhPOgRzOoJr2VEVSCOsLJCBY2ai15GAyOEv2XIAlwKsDStXuQpFYTS607YmCFjxtOtA4KcoySLHMlhOOsikFKJeB82jpqkYEySlJC06MWySPeDYjqw7D7EfCkCB2VUgB8csm8LAsRNFFpeSICO5uetLeVQtbxFw7M6fEeG4OiUwUrT4qHzw4VhysGXQYeA4zqnKEIV1Y8kP4sIUh2MnEqyuX6wk8S5PwLDIG0FhVnHwpVCynURkJ71Bo7O70zaYQjp3xEV5xpRUPYBOVSVE4VRJ233rDzUShVFywEZqvSoCVU0fuathB9lRa4iKSYIfAo55gDk0pASp/ExoNR8/NT+pracb/oQCUAAKTI0CSTh20ydcODZxZbosuiUb7Hl5VC1vEXBsb9tidjUBx0S3JoVXbEhybQ+OFV7oKLILtXFyjYWoRUnVlwwch92ntGbXqDsK/kktmO+d02rZijDwqfJi/QhuEunoGfu5l1vMAqWUxWF51PhGDbLsXt2CIVdTMr1hmdUrwxvnYEo5FaxrlAQiLYYdnGg4JixO5eV7auBPKAAFoMBMKRDCcU+lTHACti/huUkXgGOFNT49jDOHyhN5eYuePkHOsdGzdjgmNGQgOBGRYzaLyB+bSZyNHLsZHU6MOQPHkcixNxyD/hRAKXlRwF80jYEiuN6hkB2VIVmYQTZjSpoJqXhwGDlmSg7qhZxjSTjW1akAywymLgdETs6HHWQdsYaoGCLH5hzHBhSAAlBg4hSIwDFlSiRXqwjixBFc1veVmntbnuHKW0Tk2J08I8JxJ/X7cpCNwODYp0YKxGpOtZFawmvK0K0trYIhXQjHzEN+QgVx7jCVmT0DcFXjoWjmgyi8eefe7v6973aWvf3iT8F5LFbKwqi8cEi0CZZlsKg6yJhS7hHpB074VhoKTXAH5PbbO//c3b+3e+e98JDYY5mVS+Ru8zIRTwiXKQPb66CEfp5zbBm6ETiunk3EOoicY35aYRsKQAEoIBSIwXGXeNcsWEFZxXZVY4oim8+CUF6yQ9LssluzxOVRtbxFwLE7f0aF425itQpKIzYLNUj81akIzroNAkn3LtrPRzcDx87SGYLV/MC2UIOAPlzRwkNzllOhV2pLwLFa3y37Bt57X+4LON7dvfp2eBbrpFsJfybi++Zpzq8h8srsCP0qG2uWMhN0XSJR/5POcmfwCqDMTo6GrjUKL/9tlzqyv7PJLOqjCTh219mgbir3PPyV7ZD/9LTAc4gJozfMWm+WsJkyvLx0zxZjJwI1xRZUphZCNbBaRXSIsRMKQAEoMLQC8gt5+lt3NpWC+Fh/A8+SsbwZEB8X/jze7FBjeSIvb1He+E+v/u+Js1KbWL7N/eTHyHBM30SIrnNMrGnefvPishqXtwigBarypdxoAeNY5Fgyt5PHbL/57JmQBGxg11qk6mY/YyNJ7XrBY4a81HJkv1rGmJXkrdE29YI5zBbToItILHIcZhRoolXXHYI2k3IQ0ptcBC1SgFd89GbwQp647BBHxrKKeV3xmiBPVu72OonIcdiXX9lrdorjA3NBSFt2nDGufGAQFUVsWPhWLXKc9acaHI/4ah0ix0PfNYOzCS1AAShw0BQ4NEXneXmGK29xdp4BGp94I34T4aCd4fXrLAKlMfC14Vho2IICma/eZOcA4LiFwcqOCPyBAlCgfQUAx7kxABxP9UWcPqh76s5iboinuoOtOM+ioRB2YhQQSfbnR/tYujhN8PloPNpBASgABZgCgOPc7Q1w3Ap+1WeUomK3h/0sQm5K1OcbrECBmhQY70cSeo0Pz5A1jQW7ueJaAQWgwPQqADjOXRMBx9M7s7Xn4s280SJquoXcDEEZKNC6AuOHfomPzz+7DUTGyQ4FoAAUEAoAjnPzAHDc+o0fDkABKAAFoAAUgAJQoKQCgGPAca+VZ4CSsxy2oAAUgAJQAApAAShQUQHAMeAYcJybAxVPJBSDAlAACkABKAAFDoYCgOMcGLUSUi1vtLzFVlasOxhnLHoBBaAAFIACUAAKNKoA4Bhw3E7kuBUib/RcQuNQAApAASgABaDAAVAAcAw4Bhzn5sABOMnRBSgABaAAFIACUKC6AoDjHBi1Et0sb7S8RaRVVD9FURIKQAEoAAWgABQoqQDgGHCMyHFuDjR9Nn7z7darh+rf009r8+SNG6/P3Ff/Vj6srVmuxunV/z3Z/Om0/9WD5a3HV249Prvm7x/RhyNf/aXG1rj/Yvvsn/7++Mqt//zpSE3e+u233ezc9m9n7j97o1E3/vzD+i8/9LiJcI89evHW5ssHqxcnTSj4AwWgABTgCgCOc/fsGQmpzkg3+byfuO2N9RcPt2qEY9XBlf0T9183AsfHHjy5/PLHY+Hpk4Tj0TB3tFpVx3ei4LiBwWocjle/fuuXR29dP+8Kfn7hX4/W//X17ywTs3mSnDmsTLQidkIBKAAFSilwqL+60V9dmwvszS1u0CHx/+LhBX3tW1oQ5YN//eVu0IKuUtslrzzDlbfYSr7BjHSz9glZZ4PTBce//+nB5VT87+gH/4nHYkfD3NFqVR4aQvkfliuXr+1qFrEYh+PPl+7aHwHMrwFi48b3kUbc63DDcHxt6ZdH67euxdzIHOqJ3xwu/+/W75sU09Uh5iGsQwEoAAWSChwiCPbgeGG+z4h5fs3lY68tgcuMnr2jdf5ZnuHKWwQcz+htbKrgePvdl7GECnmyA45HvejF4Zi19uGzM/d/W1phewYhYKNw/Lvr//UTKrg/Irni0dKfo96K5Ir0FIpWwU4oAAWgQDkFYnAsaPjk/Jx1onv4ZD8WXe50e3TIKdwc3JRH1fIWAcfNzR/W8tG9PZPpe3Fvw071Tvf4U50B/Oqhc0gkB397vEMUK7OEvSwInj384uZRZq6XaVYVS8Px1ZsXTVJy0Cz3PLad5K3vV3RGcoS3BIR50UqWt0ph41hCRcwBQUsy0eLKLZGLzP85eclrP9hDf//KqudFjlUxniX817O2WRYDFhVFMWudN+uOTsrzUfbzbG8lIwvxEq0qbU9sfy7diFQh/f18mCQcJ0fTg2Nl6O6++akw6k+n2xP7RTHbsvFWSydiw0FCBVdsxOSK977cv7e7e/Vt3hS2oQAUgAJFFYjAsYglO2kSKpViYT70jA4tLunLZVigzj3lUbW8RcBx43NJ0u3e+lUV5Tq6963e/vTcq4dbBkAllRoC1ux77huqSEctPdNRdajT7X3zrT3UyTar+puAY6dZKmPcqyRUFI6JfQ3rSDyyHEZH9Z/ERoylOl35m/iDbaXeECe4h7nMf+JXw7syD1hjLq8lyXjrr9YoHf3LB2flHidHgg5dufVYHyWG5nWZA7bBMXcSfeoHCVfnTrfnHKWhMaMg7EYHi+schWPXijea9KfyR5KxHlnR5Yw/sh374OTMCpJLBIb/u7Cak45Cy6kyX/x4+eWTd78IBL+0s7t/b3f/n387ERzK2UJhKAAFoECNCoRwTDkVhnfnlhdXNxbm47kTJcPGoMYaR91rakaeAWSvBW5aMua3Wwonf3uciUN7dGHiVIa8Ds6GdU3L4SGnWWXOaU3XDXYSkVsEZ67qKpyl4rxFOawsltnp0h5NwAKY9LaKIDo/5dMP4hGmSTjA/OGYyz0P93PkNUdp44pLt4KGnXiwIGBFw0H5oDDzjfszxrZ4lmC86wgbsi8nV2F0FDgeMJrGhIRdTsahOVNYjzt/ldPrWq93K/3KnRGWXtdLZFb0Usk5iByPMQMHn4ZoHApAgSoK5OCYZVNE4bho2BhwXGU4RyszS3AssibiwddYXJbDqE/VLrkSOlPehSEDuTGoWTVkbmtyJ7euiokgNAN0z1b4Z8hbYcBS/oauFvxyec45JO+7IuA32lJcBnPdWRrLUabgseRgWesDsaCbR8a9DkNh1WZQka0o1zwc+9o65MrRU3nrRYLDwfIG1CuveZrhuBgjbkhuL4kF3Tjp+sVCf3gjdNSDY0qZiL+Kx/ksl3pBr+WN8hOE8tYTB39CASgABepTIAnHbnJFBI4Lh40Bx83dEmYIjmMMqoSNHeK5E3k47nR7VFilMlv+HtRsxroCbpsDLRuvAY6dCKLCKf2ml/MDOqVVOGHmZuBYJ1EoNYhxZUhYBoApq1gnSOjLHztk85UNQwcs3jwce4kKjpIyh8HL5H5t8xY06XpD45z1CTj2qhDXqtGkbWlUj69WT2ZZBMnlvKLODxFVAMcc+rENBaDAAVcghOOeWsTNZFZ0ex2VXMG1KB02Bhw7t0l9h6tl5wzBMb1vZ8mVy5ikWJXGMBCO9VhQ1oSJTw9qVtWqWIw7XGU7DEaGeyKxRsZwDhn3Ot1ycMwjx2tdCjDrlAklWhg5Zpq0AccUKmbvMnJsDWKx/HJK27Gh0ZOKCgwBx4prtVHpmMPH+lDgBmkYHAUcx4VyBohNP+yHAlBgqhWIwHGnwmoV5cPGgOPm5tkswXEs31fd0hLJwToLuTIc9zpd3hTflvfXcE9PLoJhXv5TY10liWLzzr3d/Xvf7SxHb8wR3nJ+6ydDfI/HQCEQjJ5zHMmCIJ8Diu3xPWxbhH6dr+WxJIrw7GAVZS+GjRyfuPqdeDNsZzMUIbEnhFc+KPmjouQg8SMt8LGTXjl7GOOKxp2v5UVas/1iFeVO37fmco6X/7aLF/LC+Yw9UAAKlFQgBsddeifPLFhB6xy7S1WXs0I6AAAgAElEQVS0EDYGHDc3LWYJjnty7QixKJsCF3+1CkOoPKeCFqBw3+RzYr3Hn+r39kSzdMjGp2m1ilSzyg2nNcMohNEPc2/g0dtL6aWvInDc6wgqshmohEEmpuiglZbI+CM2Rk8VJZa95WVQiFEg6jX7WU5Fp+uAcvi1Z1q/wk+3kG6PDcdq2YTkgwcHX7kdVdsWI21zH3MeVCCKs7nRdPKP5Rt47G3LnLmBcNxparUK9Uxyb/fOe1Y6ZwZGpyV2QgEoAAVqVEB+IU9/8c6mUsjvgKj9LhnLtY03vJ01+pRqqjzDlbeIZ4DU6Ne5n0hULx7spvASyOpDDpUOiBw7bQYfgk42y5dVNksvB3Z52rHFeiKGeORYhglZdkQkamiO8tRStWaCm4pq0JksDr3OMSMbWk9NL0vM1zmWUWGVOsyXpPAZV7Vg61IBlnOsl4TzKxKCO0tbDGIvGcIcAo5VgooRljbY0h969TRWwM9acQaOZ2WI+R+FY7XftOmMps+4RNI8fuxnHmt//IqRqHbuZTs6W7Mv7YmPSCc+kienNJY6HjQ/67wkwhYUgAKuAoem6AQrj6rlLQKOp2hCHkBXKfbpfpc4El8Ui3BdnoF1Bt7e+efu/r0vL1UcaAJKG5IXtSJ6skcF91pc0crkFMsuY9zLhpbzyTkUs09lCk25aJMzfPAECkCBjAKA49y9CnCcmTpjHmpF2zF9PvjV3d/oZX+dT0VINKHgcewLDrmzadrUk7/vD/HjfkQo+YU5HY6dNgUGjqYIHq//6+vfRYCVDiXWeqPMnETYuNuTAfshUr0j1gd6jgJQAApAgZwCgOOcOq0AXHmj5S22EiA/cGiSm7ojdjaMdMof4kO8Ez+Lj7jg8Yi+FWSgERIq9ALDTuRYJi342REFO9K41PSZj3Ufgkf8cHRHJVQM8UDSeAcP0mChL1AAClRWAHCcI4wZocYZ6Sbuo5UUkHycWI+MtyDif5s/na58reF1D+q2zKxgGdtOBvDB7LV4M++HHp8G4R57VCRUjPYRmYOpnlUmdydC36EAFCisAOA4d0maEWqckW4WPrVgDgpAASgABaAAFJhGBQDHgOMe4HgaT134DAWgABSAAlAACjShAOAYcAw4zs2BJs46tAkFoAAUgAJQAApMrAKA4xwYzUhIdUa6ObEnIRyDAlAACkABKAAFJkcBwDHgGJHj3ByYnHMVnkABKAAFoAAUgAIFFAAc58BoRkKqM9LNAqcTTEABKAAFoAAUgALTrgDgGHCMyHFuDkz7GT60/+oLw/Q54nB54+ZXnoqvEHf2T39/fOWW/jR0qlNrP4Rl5Iep7eemdd0m1hQTH38+sf25NtHMvBIrTKc+TygWGH7r+nnmQLinGa+Gnhj0lZBfHgVrJE+Ie3ADCkCBmVYAcJwb/hkJqc5INxkx5AZ95GLffLv1am/96tCU0IgzI/dCV6SvRpeHY/q2yI/HAk0qwbHg4K2/enVTcNzrpGwNHsEUBKf2ey6N8Sd9mzC1TnDv1iN/yeGu/Izzo6U/j2F0sCDDNk5fCfE/HTJsIygPBaAAFGhKgUP91Y3+6tpccPmbW9ygQ+L/xcML+pZJfswtL4pa6p9/NGjKqTvG0fIMV95iK5+Om5Fu1jUPU+0AjlPKVN2fIz9i3B+WM00d+eovtx6HEeKjH/wnDCer62n+O8ZpWykITu2v6/L9xY+XX6a+2v276/9d/+W/C6sRW5lD6T5G2qmtsPiuXtzV2kyMcaOBD1AACkCBQwTBHhwvzPcZMc+vOXxMfy7M60und7TJS1J5hitvEXA8veck4HjMsdt+92X6k3sD4ZggOELPOTjudEVyRdqovsr5l7UUBKf2p9oZbj+hfCqhQmQpuAkVvPHs95z93vGK8e2sJ/EqztwQn9ADHFcQavihcXRGdSgABUZVIAbHgndPzs/ZU7d7+GRfR5cFTPeXu9YekfTiUoFzsjyqlrcIOG54Ih3d29t69e3xzsb6i4dbr+jfi5tHmdHjT/X+Vw8v7m3Ys8BnX2rh6ac93pRsUP3vpFiQXdUyb3agP9YB5qTYSV8qfvZGl/If5Nee7+47PwElsodFRVFSkJz80HEsTTaVVsHMRfNrE0aF85lD3V6HwsaRhAp7qUlKIRr/69lbj//ywdlsmWhTwyRXBF+H9gRUcMyK+Z+PZoec7OQ3brw+c+P7Dvt298qHXl9E2DiVUEGxYfcbzl5nBY/WmFxBMezL/7v1e8/Jan8Cjr3RwZ9QAApMmAIROA7wd2mBMihktDiINIujZTIryqNqeYuAYw8B6/7TQKom1E/PvXq4JRi32+vQtmHlqzcv2kPdXhKO9SntF9D7O10C7m+Py75Qs9p6N+uPbSHCHAazNNoS7OosYTr629KKrBgeElSn8IuYNUCxOBy/ccO0qWBXWxeGBOGZZomGTbMZf6QsYwYjY6/iRUSLTadcrkKsfK9DzxW847qYft5QTym+hqSPxmXiYNOIlO7MfXXUlYs6IiA+BaNVUnjpBbg603wp6H755SjPM4Dj7Kmtp1PFCYxiUAAK1K9ACMduJJjSixfmOQFLVpahZdp2Asn1u2iuFOVRtbxFwLEZ7mY2JIye+8benAS5EhDrIK49RHt0ANhnXxM51uX9Ano/0TC3yA1l/BlwKkk4NvSp2FRhmQphWg0FASuuDSr6DEe1ojs9l6iMCVcT7XF/rPWQJpk/VIxI690vWBXPVv7P6Kt4+Sr2aDadwxZjvgXyqrEmODaC2Og+NRLoQwOhaJjgmD14BIVzTooU3sFRYfG63r++/p2elqw7YR8V+D65/NL5t/nTabe68Codz06aABy7MiaFQjEoAAVaUiAHxyybgsOxuJJS/JheyCuSUCGvHeVRtbxFwHHD9wmHdx1bBLsmbCwPca712bcqHHMUVhTCmkr7M+iKEAkumio+evbk7/WSXDmTyW4KMmNIRzurwDGFinXFsFkrb9YfKpbLGbDtmA66G4lX8ULmi+8ZPmidg2MTDGapL3TN3P7NBIZVj5gs/hD4cJx9eKjGmoNTL1xVB8ouC5B6ydcEo40Mg+nxIYs2i51QAApAgboUSMKxm1zB4VhGjukdPrVshZOgXJdnYTvlUbW8RcBxOO617knDaAC7nW6Pp0AwoqUbdlDeL6BQgycxqyxnkZSsAtJpfwaRSgaO6ZBKh5VZxfL/GuCYoI23aajaxzvmf94fGt9x4Fi8cvf3r3ji+HBEVQaOKTYcDoqKFvvqTR0cJ1M+nLGgxeYGB7lrPeUdB9AyFIACUKCKAiEc66gwDwmr5Ipep+suZCHuf+UyK8qjanmLgOMqs3aMMmkYDWBXw7HKiPDZNyjvF1B0SBZ1wnHgedofBpdBLXG/z8AxvfrGfqN3m6KKOvOVDvlkJnbGIseSjHVas5vIYV4QjLEIC5FG+9LpjgHHI7+Kp2UpA8eh7FwKfwhahuNm0yoQOeZDj20oAAUmUIEIHHdyq1WEKBzicuzuqO9D40hQHlXLWwQcjzNDKtTNwGhIsc4ej30pqKzf5KPpzXMwuCdeRX6oI1/I02nN7iFzHp24+t3+vd39nU2zR2zk4NhHq7Aih+NokkAEjkOLDtIJAtYv+Xnne9Yf6nU2bcBrzf1zjFfxlCyJdN647ORtRBza7yvpAHH2CcFRsuukwchZkXCSulB/zrEzYaQDwf8KoPFCXqBMFfVQBgpAgYlWIAbHMjxsXrNzFzaW2cbeOsd9HmZ2b101XjjKo2p5i4DjGidMrKkMHKvVKtTKFW5OhY4iq1UmJBnztSyELXexC2udYsxi/bjIqZH1R5Z/e+efuwKO7315ibcQoio/KmBLv4HH92uqtnBMJe2funCM/wh/dU4tFbjPk5XlHhax/vCZeT8v44+0OHz4li6s9OW84Kt4Q11zE6tVJGSX3ia6k4VjteheKLXwVjSos7eFifBxYrJWqyDRqqVS6BnFBqVaknSkYuQMYs3iKBSAAlCgJgXkF/L05+4s48p4sNpvUZis2rfxaIm3Muu4gRqbu1XMyDMACTgIRglw9XLFfIkJcQ8WMWC5VrGI9YpkYkPScnQMNLOsYnnz9jOPdcVB/ogzLh7CzMOxhmCW5KrZiypG9ssuEPaxo7QWsmFcXnflwwDp9GpuKimZJWBk/FETe6R1jsd8FU+YTkJnXHblLV9e2q73nIdjMRN8ebVEg+E4m3ky+GW7Wnl0xCcZc9Oq1Rk9IqBkKAAFoEBtChyaoitLeYYrbxHPAFM0IafUVQLcePyy3R7RumCpL8BFL3njvoqnvpA3+hJyUa+a2klImlrqOL+McZWFkJtyOzKpAMfmOQEbUAAKTKQCgOPcLQFwHLmx1TSPW9G2ue5MUcsTC8fyI3lPqqNqPa/ipXAzd2VoabgpmSFYbFg6Q8Hj+EIQdGiSPtcskqQnyZ+armktzYoJnKhwCQpMvQKA49wQtgJw5Y2Wt9hKgBy3LqnA5MKxSnJIfiS55hEc5sPRNZsemcYo+ST1/EALpQXQKcK0cWhur1P5OHfumtyez/AKCkCBGVIAcJwb7BmhxhnpJm6rUoGJhuNuTyQPJIKjtY6gWGzhwerFWtvMXUxqMySYPpV8ItIn3rp+ntkK9xRxcjD9Ex//8mi9zi9aT0jX4AYUgAJTrwDgODeEM0KNM9JNRgy5QUcxKAAFoAAUgAJQYJYVABznOGlGqHFGujnL5zn6DgWgABSAAlAAClRUAHAMOO4BjiueLSgGBaAAFIACUAAKHHgFAMeA41mB41aeAQ78FQQdhAJQAApAAShwwBQAHAOOAce5OXDATnh0BwpAASgABaAAFMgrADjOgVErscbyRstbbGUpt1a6mT/9cBQKQAEoAAWgABSYNAUAx4BjRI5zc2DSzlj4AwWgABSAAlAACjSqAOA4B0atxBrLGy1vEZHjY5s729cvHYsuB3vk/Y+u73x06g+NnvkHrPH5U9e2r+9sb75TvV9UJTEE0XHBzgOsAJ10yVOy1Y7nrhUNOVb9ErRyafv6ztmV3G104CmpTt7rO8OewgNbLl1AzSLqSOryXsuQ1SF7aXFq6XjBRgDHubMa1Njc+VNe2/IWk+qJS9u1Px6Jzr0//PHKcJCXtFLwOlKPDzlZolrZnQQQwz1RiCpX3p8fUaUZHqYRFbOD1emOrt54o8Z9cLeJNsaYD25rNUhkGhxSqzFOInsWV25k/CdMOnNTF0MjwjRs0BQqE9QYX3Y71nXO1WkYpsr9PdRf3eivrs0FFeYWN+iQ+H/x8IIj5dzyoqhF//rL3aCuU7i+o+XhprzF2Qmplte2vMXEifDO2XSMk656FW8VkbvmVF804847wRgZklH/jxeviqiXGK/oFV8MYpkb4TBeRV2dwJ0jqzfmqE2gFANdGk6r+Ek05F24eiPjPqtUD1EP2YXiZw3NzNEftgdOA6fAuLJPuphOZ4sPpbJ+iCDYg+OF+T4j5vk1h4/pz4V5VT9WvamOlYeb8hYBx82dCa2MZtid7I1nmBth7L4y1RfNQc4LcYZKnAjFZ3uGkTq8l5D449F5U9dJ1sdJNTG6euONWjiOk79nSK0GnUSVpkTlRsZ9VqGLYcVYQCXPW5v8satxY86MK3tjjk32GA15ssfgWODvyfk528/u4ZN9FV1eWvACyRRF9kPLQzpRcajKw015i4DjipNhhGKtjKbvZ/YaKu5J1TPVIj99evhIf8pMvjAvkDwRSX7iX8XUW3NRti370dNEs9Q1fhekpqRX9HOk9oTFhr0EYmrZ51Fblzdur12dbo9MB8Fm1ZpyQ1ivFPVh5bWw5Dm37pTxHc5fG213uD/UoFAjKTtBhpaOd8SfJKYpkkgcFUPPJOId6XXi/jjy+jOcOpjwx1GGjTg3avuoCtA0YB7qbpL+XF5exp+WSdmtuUQVW2CY5FpRizfIHonNEFg1eEmhJ5dddJPrY2spfeRw+1W0Svwk4mX4JBHiBM3yiln1Pjr1Bzbc3pXEaZYPlpw2Ysh8T+TsSlcUvah/0gpP3FPMdyynnhwyPkzqHBnYbGbSMlU9ldTsYgU82QefodHTFju5AhE4FsFgJ1liaYEyKES0mFDYhI2pIQozLy7xRhvaLg835S0CjhuaPK0IG/YlfTPodaLwl7wt9djtVl8KqQV9o6Wbur3D/eGPV+wFVF5V9b2K7kPxW5RuWbkhSn60eekjjdrUjr0lZJt1cIFuCbaiEMpx3rNLf4qbk1ul+85Z1UGvs7o6tcmCzUwEc6uTLQy07g4E+W/1tAPttuMKor1ymzJ1XU14j6rIzpRZuaTnQDhJnFGQw/eRzXHnRiUxm2adQ8bn6IY3KzrMH1k+qR4NinE+PCP8lq2S5J6Zw9SOnt452Y9tqkFMuOT1ms0fazrWPk0D7oBoX7lHp9vmpbOJk8idBu4I+vNZuGflyp5EbrNuvwY2m+qsqHjt7OY13bVcs7Gxk1IEL9GSP6ZfVNG+8yfbqXvSkidXrpkrm3w+MSOYU4/EIa/CC0K+WZIrMWl9ufhJlJc9NVjYP6QCIRy7sKtoeEkHjM2GuSJQeQemzaGaN8qjanmLrTAcuhm9x9e/M3fPlpfR6u+HxcqL9jXN8G3vohC4kbiyh+cvXc31TV3ow60MalZYoTsBmbN3O6VzUN3TP+ukcMzcTXVFksg+HjjdobsdT9KItuBU0c3qMJu5q1l5SR/HYtVmqXd67KhB4aEyQc2mZM++3MYaob4Qdri3fC6CVSzrT0oWud82whTjVWJTV3Q50IrPLqNJ5FeOsMGgKTtG3BO77QslywcOJHpk21EF/Ipck2A0+aD4FekRRU0D3ghZ5BWtw8GZ1ZWEnZpdFZpNqCdPZD1LhUtMRuomPxest2TR+eFFxbnpFA4quhNDmHDSq6z/Y0za3KBkmlUKhH1JnbmeCM41RPigL2K2U+GUC2TPFQ6rY09FBXJwHM2moCRjm3RBZbxIc3ClSJxaFV00xcozXHmLgGMz3LVvtDKarBfZS1hwU2QVoydUeAuJBZkiJMFvYPYWy8KrUXOsJLug02Waxd7YIRn2c5t95+z1a388FV/7iTcV6zupx9vnVxV7y2HO5ySl1syDhEpXCAM/rDVuzr1bW28jFiPDZMvbNoO5IZrSd0rqHUcQTyuJC/q2yn0OrDseShGivc76Y93mtux22h9ZhkOArUWdcgDO62ZyjYtg9MkBp6mY5tZ0vuXKSUe2QXKAC8u6HIwmC5CT7M4kZwNBU8I82IgeOaMprAeKSZdYI3Ls+Oyq0GxKPTnQzCXmv+8bHfIuR6HpWKdUNpHi7Fg7akJmu5mftHJQOMrb8lWaDU40WT3T7KBJmzmJAtnZ7LJu29mYGj7szyuQhGM3uWJJR46F4sTHarWKxcNL4u09pFXUNynLM1x5i7PzDGBOv8R9S17Chr+6BddWdYPnd1a698jEREZOdB13Qx3s9pa9pAY3M3GZVhYrNUsiRCJbbswp6gO1H797RShBpxpzQOHNytbeF6vmCSlSxXgVth0RXxxlapjCwhAT3+x3N+RN1BkUxnY52WU7khiCvgR+0m3VdDYtad6fwde6hD+MGMIpF6hHjfD5nHgmkZNKJeBKDZ1artRx59PDFD+J8m3GcUp1ORhN9gt+4AYNhJw/4QXEHU3hUqAh+ZkdzSrNmouYuxEOkO04+abiwWpogpOXTLN5TkMT6wKXpZlJGw6KmSdZ9ZQgbJgcidLNVpi0JKa6JphzNvazFVkPTyjHE9MdbFRWIIRjzb6cdyOpxubqsMS5udHxKM9w5S3ODjWW17a8RXs6pK6edKKGNzlbMXUmi8uud1/htxBzeupbpvlRPutJ3m5wH7X3wsEZw/o1o49OvX82AqOsqWiXszeAwDHd6xQkmdZoww1vO9LFBYmIH7tpxcNgsfbTN9FYODCtleyO6bXnp3fUiBAKnvUnrknYiE6B1Y9PuuOeV6pi0CnywRmahMOjnD6et4mWeU8l7VVDEO9MpK7pszUkQut/4AY3KrbNyMa1DTSU3cyOZoVm9cB5ooXPKuQ/oTx5wr3164o2bcft0VhFPmECiewYZbtpi1lbtl/RC4iqUqXZRJlMs7G+W38cb6nLbOi92RUPDTgtxLqMAgMViMBxJ7daRTB+orC3ElxQpqaxKQ835S0CjgdO2ZELtDKa0lv/DsTPiMzlnhdzt8NbbPgbKxOKX0/59nCnqt8Ley+MJYy6DsvwmLlxBsHUQV7xG6TXciJg5nvLa7HWSMl4MJsJ6AiVuOeF9/UErHBP5HZ2DvgdcWR3HPNI2vNTtMOTNZkIfk+z/viFw+6wPZ4PnoesKU8r+tMLuiccDk2wZn194ocSLbuFB01R02tPPdG4/XXCH02OmF5F+tM8A3sV/dEU1hMees0aP2mjQrMJDYNmySUV4/SadZWUDXojznY6VO0Wy4xU4E/MaLwvOW8rNJuagZlmU1WiPjuFA3+47NHq2DmaAjE47rrv2LkLG3MzXv4xP9TEdnm4KW8RcNzEzJFttjKawjTdHRMxJ7r0OzeD+OXbl4XatIjp/nls06E9uraaMLPEDv47XTWL4Ytfzo0q2yy5Z6KArj+pm6LjVfYGwDV856wR09Wkc+T9s/qL3M7NhpBiuMwKajkcUGrWKJ8VxAUUlVVpPHeOUjv8J2ku+5H3P3JqCTyK6kz36Utnr9gcD1cER+2sP15J98+sP2oOJ9RjQyy7bNdzUBUJC+ycNyp5A232V97gE/LYpjpTsieR22vPEPeTBout5+CNJo2XHUE2fLKRK9fMzHSd3Nm+4owmSUSN29aMk54Vs19sBM2KFRsiInt9DH4VoXbM5JfN2j/9y5doTXgVGnLboR6xH5roaOraletmzAGjgzcoZr/cGNwsnVzhu9TZZjOTNn8S0YxiX1fNWglHDXsqKyC/kKc/d2dTKYiP9Wfw+Npt6g08eciW9+ZTI3+Wh5vyFgHH2avYWPOqldFMvusjT1H/SjdMB+nyqlMtDfvKFuRNxeT8ebcT76jFqaz4/s0suFHFmyXocU3QjZ/9UEg+y50qxy7WnchdX8tlpXAr2v3OT9L+zUwW4wA66AKqOiW9ZRXlrT2VZDlQXj2aYuA0NwySnffR1gqmgXDSacoXwe8yMYEaDu6P1twvr/fn/FFlEupZi6LvNB+8JxBHXj4fXKMm2poVXDssOuKaVl3z5rN3EvHq/jbzU9RiUltDcqz1KOsWbEfETBbt2G4yf4LRVD1NnkQZu5FmPdkTMnpt+vowEeSFyC0QG19pyKnITq5kUrWdip5L5iTS8tqSfI+o5Q+EUzLfLAno+kkdGdSsHWupD7t2uYe4byQOV3KQFacjvNfYHqDAocS8H1CtlVrl4aa8RcBxc1OrldEMrmX8zMJ1jauBbShw0BVIE2Fz170JbVnwH8PBKWY4XMYP5mkLOM6Nays4Vd5oeYuz8gxA90L+3M9vVBQ/4zGA3FTkFbENBaDAVCpwcIhw3IsVi6aP21TLMwFjOsUPNrm5BzjOqQNqbO66U17b8habUw8tQwEoMHUKZH9Hyt2Jpq6neYdl4kS15I3JlkXmsURyKibb7QOKs/lZN+xRwHFuEreCU+WNlrc4K5FjXIOgABSAAkoBSk61OcS5W8+wN/IpKW/zm6edjCXfi8RxkPEBPcEBx7krFKixuWtueW3LW2xOPbQMBaAAFIACUAAKNKQA4Bhw3GuFGssbLW+xoZMWzUIBKAAFoAAUgALNKQA4BhwDjnNzoLlzDy1DASgABaAAFIACE6gA4DgHRq3EGssbLW8ROccTeC2AS1AACkABKAAFoECn2wMcA44ROc7NAVwmoAAUgAJQAApAgZlSAHCcAyOEVJs7GcprW95ic+qhZSgABaAAFIACUKAhBQDHgGNEjnNzoKETD81CASgABaAAFIACk6kA4DgHRq3EGssbLW8ROcftXw5W9k/cf33m/rM3hlil8vuV+69PbH9ewfnDd/5x/smFw/GSxx48ufxgm9sN9/Cj7W2fXv3fk8svn1z+363f5y4U8W625zb8gQJQAApAgXEUABzn7nmgxnHmVr5ueW3LW8wrUMNRAtyVD3NzOGmlSTj+7JPzz26vfxalw9//9ODyywerF13HLt7afPlk86fT0Spt7RTIDiweaXa1NWSwCwWgABSoQ4FD/dWN/uraXKSthfn+Rn91Y/Hwgnsb63W6Swuilvx3cn6u0NWzPNyUtzg7IdXy2pa3GJw4dZ8pcTj+fOnu6zMiKhz8u/H9eC5Vihyfu3Dq2e1Tdxajnf3ix8svn7z7RcyNzKFoU43v3H435WrjpmP6wCgUgAJQAAoUUuDQ3GIEjruHT/ZXT87PLy+GcDwndvYXl+Tlm6oX4uPycFPeIuC4OSxoZTSb645oOQ7H7Nrx4bMz939bWmF7Io/B1Y9WgeNjP99OJlRQloKbUMH9EZHalz8eq+5PvqSg7SBEna/Cj1IwO87xvBi2oQAUgAJQ4KApEIPj+bV+f7nb7XWIg73IsaBheVTd1SjArFm5URQoDzflLQKOm5tCrYxmp9ub2/7tzN39ua4gSxnN9dN2BcLqKC8L7r5xQ+zkhc0euWFr6ep+ikUUjlVCBVkUjkUuasJn3SZzwIVj3Q43SmHjREJFdyCt1pxcoTKGRwRcwHFkYjR3eqJlKAAFoMDkKBCDY3OzjMCxSKhwcHl+LZ2YUfO1tTzclLcIOG7u3GhlNBUcC9DUEVxCYQOUhKH6kARoy8cyQUK/M0cVGaqOGzkWhB2BY2nUuNSb236mY88MjiUZ+9XFe3jPPjkWH8QKKbyEs7Wm+VI0eqRsZsBxzRfw+KwwtxtsQAEoAAUmRoEh4ZhweWFeXTQp+2JtTvBxicyK8nBT3iLguLk7aCujaeDY0HCHCFgzLsNNeVHwY70Ubxa4bDYYsoyXVhGHY98BZs56Ts74ZNzrLL715Pb5n0/wKnZbpPAOfOWOXgRf7AYAACAASURBVNermlkhwVesJuH886tTm/76GIMvwYBjO3bNnZVoGQpAASgwgQqMDMcsmwJwPPhGO8RtpjzDlbc4O88AGo519FdMFQbEIYmGvEsBY0py4I3QjAoLe1MxbJ8ViMJxdKe+cknP90V+SEjG3V7nxHr6VbyKrDkw9WKIU0m73etQRsdwS08MhelMVWZ0NFdRCwpAASgABVpWYDQ4dpMrAMe13hrLo2p5i4BjGTnmqb0mx/fM/dcszCwuEAJYg50CwuqHY8qpsHkd3uWJAsYyFzlaZtLhuNrqEzLSPDDIXetZD6SGAlAACkCByVFgSDjWi7iZzIpOt6eSK5q/VZRnuPIWZ4cay2tb3qI8z4mAedA3GzkOziOZlLxy4zebtWzK1A/HBOLRqLAwqj2XweyQjwvDcaNpFYgcm2mGDSgABaDAjCkwLBz3sFpF00825RmuvMXZeQYYkFYxkG6pAIWZKWrrY6um1dRla/i0CvcFwUjkmMe8dea0LlY45zjVa74fL+RxNbANBaAAFIACFRQYGo699d2iyyQ3hI/lGa68xdmhxvLalrc4OHKsUibs0hDuueMCMcVrXR51l7MIT/jh4Vi9+cc+Kx1frSKe7DFZq1VgKTd3OulnmHCeYA8UgAJQAAowBeQX8vTn7uRyxfIzH/YbeMGX8JwC0a/rNXIVLg835S0Cjpu7nbcymgMix3Qq+pnHKjwswdfJP5bJxy4fE0DrNYm9ZOVODI59c1TXbVOZlmnQ7JAXqFbFWIFeDescj7gscXjNGfPdvopvEIZ2sQcKQAEoAAWmW4FDzbFI7S2Xh5vyFgHHtU8b02Aro2msz8yG+EJeaqnjAcsYixSIWhc5ZmGA4fUHHE/3vW34EUd/oQAUgAJKAcBxbiq0glPljZa3ODvPADN4h6bgcWq1YxHNTax2TIdqCxvnzuuKgyIWZp4kfyq6jWJQAApAASgwpgKA49xNFNQ45vTKVC+vbXmLme4f7EOffXI+ueCxXCjNh04K007Y6mkD4txjhaVzl52DPTfQOygABaDA5CsAOM7dpVrBqfJGy1tE5HjyLw3jeSjezHty4XC8EZE+8WCbw2W4hx9tb1u90jdByR6561Vc7fbUgz9QAApAgSlVAHCcu9mAGpub1uW1LW+xOfXQMhSAAlAACkABKNCQAoBjwHGvFWosb7S8xYZOWjQLBaAAFIACUAAKNKcA4BhwDDjOzYHmzj20DAWgABSAAlAACkygAoDjHBi1Emssb7S8xdnJOW5F2wm80MAlKAAFoAAUgALTogDgGHCMyHFuDox5JgOOxxQQ1aEAFIACUAAKFFYAcJwDo1bIprzR8hYROS58nsMcFIACUAAKQAEoUFEBwDHgGJHj3ByoeCKlirXy4JFyBvuhABSAAlAACkCBgQoAjnNg1ArZlDda3iIixwPPzMYLbKy/eLj16uG5b0ZfB/fo3t7Wq2+PN+vqm6d/3fxY/Xun36yt6lJIrzbWtqpXaaPkGzden7mv/q18mLvWjSOssHJ3fy7SwfML/3r01vXzrPFwT1NeMaMwAQWgABQYTgHAcU4vUGNzN5jy2pa32MozQNUhmxY4Vsh15N8bH/9aEI6/fufjXzPsOyVwrCbDyv6J+6/Lw3Hv1qP1X37oedD85x/Wf3m09OfchbfqHPZaxp9QAApAgZoUONRf3eivrsUe+hfm+xv91Y3FwwuRS9Xc8qKoeHJ+rtw1rjzclLfYCk6hm5EZXtMJ1oq2zXXHbblI5FgNxITBcU3Tw9WzsWtpG3D8u+v/Xf/lvwurkU5lDhUSZLqGD95CAShQXIFDc4sROO4ePinAd14QcADHBM395TlZBnBc95iVx6nyFvEMcCAgAHAcIb9JHNkW4Pja0i9eQgXXSiRXrP/r69/VffGcRPHRRygABaZQgRgcz6/1+8vdbq9D4WEPjucWFS4rgAYc1z3q5VG1vEXAcYN3ccqXePopZxGxffXmRZVhrBIqtl493Hq1t37VncDffEtpxKyM15QoIJKV9T8n5/j4U7P/4cW9DfJhoD+uAwllkpHjreMXcknJmZRlfmjz9NfSjfm15ybFmW+YFAteK5bmkfJH7BeN9B/pZp8fP5LorDd2ny/dfX3mxvcdYlyZQ3xi+3NWlwqo3OLflla86j1ZMZpWwZOS3TZ7nQ+fmXzlM/efveEO09z2b+yon3NMseEgoYK3kEyuOHH1u/17u3fe44WxDQWgABQoq0AMjo0HMTg2V2TAsZGi3o3yqFreIuC43jnjtiYI9cXNo+5OgmMXhQXmuns63Z5mX/WiHiG1xtwuhYptFTdy/Om5V8wuVdwisK7qj+ew+2cUjmmn4VrJnYZiuz2RN7z58aM3NSy+edpuz689t2jrtSPKD8g57g7tj4bmC/+eJ38Isq0/5qob2TDsq8GXsFXD7vcr9wmdqSIxqy5mmopHjqmieZFOkveN75XsK/snzHZXOmD5mJDa/dO0I4xSYPjWNXcE9Sgor0RoeT0s8/bOP3f37+3u72x65fEnFIACUKCcAoDjnNagxuztLSfdwIrltS1vsZVngA4hrIJjAawKbVVI2ACT5GBLumo0CY4NDfc6PO7LWqPx5XDMt2VThqTFRhV/snMmBqOCLzVryn5x4qQYcDX67HV4RWpqFDjO+iPhmPkjQsjVgsc+m3a6gmtloJdo2HJqR4Ks5VoaixgcBxV7cbCWwnIcD1rzV6tY/fqtCq/cidf1IpkViByPdV3NnkRoGQpAgaoKAI5zSs0ITqGbzd1RWtHWcLAM3xKYhvBKQeIoHPOdDI5Fs/yQDCTLtAoq5oWrTSJHRX+yoxCBYwoM63QIBf2WOAlGvaPpkz0g6RHgeEh/rKvZjvcU7zqhWdMR4mYXhX1U7UbTKqii12ZAvdYxdiikat+iSJmIv4pnG+z2BqdeqDE1ncUGFIACUKCQAoDjnNCtkE15o+UtthJSnZFuqvRiQbFH9/Yu7t08R0sRs/CtZo4AdsW54O8cBo697GSTkiE2KvjDySnYTsAxS6KgKpTRS/kSg+hWJV3YfGWegDFSWkXMovUngPVa4JhSI/RKxjYJeDD1RqhapiabzGPKnbDLJJ/Ri8EBjoPJmbuJoDAUgALTqADgOHddmxGcQjebO3Vb0VaHbI8/3Vu/Kuj23DddkfjrwavPwQTN/s5x4VjkLlf0JzsKQ8Dxc3rRLYBR50ynKC9LyagrchyD9YQ/tcBxjHH1w4/Vk8V99c5YRVaMyJjlLrNDgGOtoTOjsBMKQIGDpADgOHeBa4VsyhstbxGR42YvIiI5+Nw3n9qY8dNPjz/VycfGtM/Bg+BYM64+ZegNPP2FvDBtg+2p5I9MNk29iRWBY0oUZoDblanDek+QRmw63pGv7tkX8nqdAI7zbN2JvpAXzzlW/gQNxuB488693f173+0sO4AbS4HQBfyUBr2fdTaaViEzjHmyMt/jvOQnmmJwTKtY+NzsfCFvrJzj3ntf4oU8fYpFRxM7oQAUaF4BwHHuMgRqdG6xtU7H8tqWt9jKM4AYMgr3vtKhYoLayJeih4Vj2axKLBYmLr7gn48mVjbBaTKqX+yr4o9epuDel5disy4Gx5JQbbDW5jBQC1SFv7FnV6uQh3RGMmG0s66F4uzMC3ND+1MFjiUX3tvdvfo2vy7l4Fit7+amHfsCcrS1Z7FLwFRG51SQRbN8m17TLbY+Br0aePc3B47HWa2ie2mHVqsInhC4INiGAlAACjSrgPxCnvgSnvi3uCSuqurrd3qnPKQ/hkcruHmHNtS6yPay24jT5eGmvMVWcArd9GGivpncirYdSqJQqxobVtbv0mlW1gsV08rE5l06n5hZWoVQSUaLRRWRLyEK83WO7VGPxeX6x2p5OMXu2h8tfjxyTPkPYkU2/o+t+SAxVx2VCQy6QXEVcqrzUDFbb1gsPxxEjjvdHuGstqsR3GlQe1XFnypw3Bk+ckyd9TOPHYr1M5J5tNipqGvJqzc7dHd/zsNr+pNSnEUIWSRauFnOg1+2S7+0t/y3XRE+x1LH9V2F+BmBbSgABaoocKhKoQkpU54zylsEHDc32WZkNJsTEC1DgcoKJJYxVsCXXQhZ/oYQ/wGhkbBL5U7BOhSAArOiAOA4N9IzglPoZnN3x1a0ba47aBkKVFSAgsePlv4cucDSoeRab5Rb4iWWRBqp6AaKQQEoAAVGUABwnLvstkI25Y2Wt4gA+QjnKqpAgelSQHzmI1zwOPnh6J5KqPDfR8xdoqdLEHgLBaDAtCgAOM5deUGNzc3j8tqWt9jKM0BzQ4aWocCQCoj0ibeun2e1wj25KzCriGJQAApAgXIKAI5zWs8ITqGbzd2DW9G2ue6gZSgABaAAFIACB14BwDHguNcKwJU3Wt4iIscH/gKKDkIBKAAFoMDBUwBwDDgGHOfmwME759EjKAAFoAAUgAJQIKMA4DgHRjMSa0Q3M2cIDkEBKAAFoAAUgAIzpQDgGHCMyHFuDszU5QCdhQJQAApAASgABQDHOTBCSLW5M6S8tuUtNqceWoYCUAAKQAEoAAUaUgBwDDhG5Dg3B+o48b748fLLJ5dfPnn3i0hri289uX3qzmLTPqB9KAAFoAAUgAJQoJICgOOcTK3EGssbLW+xlWUcWukmo2FC5Bgff/bJ+We31z9TX9bNTUjWGopBASgABaAAFIACjShwqL+60V9dm4vcmBfm+xv91Y3FwwveLbl7+CTVEkf7/eVupG4jvpaHm/IWZ4cay2tb3qJ34pxe/d+TzZ9OR86Xw3f+cf7ZP946FznUyKnkOYY/oQAUgAJQAApAAaPAobnFCBwT/p6cn19eDOBYHLJAvLRQkI/Lw015i4BjMzVr32hlNHkvBBxffrAdJWCRXHH+yYXDvDy2oQAUgAJQAApAgfIKxOB4fk3h71wEjj0XFUbPlYhvlYeb8hYBx94Eq/HPVkaT+5+D424vnVxx4up3+/d277wXpWrshAJQAApAASgABWpVIAbHxgDg+M3/93/m/i/nmwLb5RmuvMXZeQbgEyYPx50T689un//5RPCc+fbOP3f37+3u72wGh8ypig0oAAWgABSAAlCgJgXGheNoVgYHghq3yzNceYuzQ43ltS1v0Z/8xx4k0yrE+Xzs53hmBSLHeCqAAlAACkABKFBOgfHgeH5NvJO3uORDQE3k7jVbHm7KWwQce4Ne45+tjKbj/+9/enD55YPVi85Oe7LQa3mfHEscLXdRgANQAApAASgABWZZgTHgWJKxfTmv8Zt3ebgpbxFw3NzZ2Mpoht3ZfleseRxDZMBx49eQcDiwBwpAASgABaCAp8CocEzpyP34GnBN3eHKw015i4Bjb4LW+Gcro+n4T5HjH4+lThDAcUoZ7IcCUAAKQAEoUE6BkeC4DTIGNTqYZX+Lr2GutEKN5Y2Wt+gN2YAX8pI5x733vsQLeTXMc2848CcUgAJQAApAgagCw8NxS2QMOI6OXy07W6HG8kbLW/RGZwAcp1ar6F7aodUq7n23s1zrQ5HnHv6EAlAACkABKAAFOt2e/EIefevOvFqn8FfvFJ/Q2+ivnpynxYxpeQrvUKHv5JWHm/IW8QzQ3GnZymjy7uThWKxznPhI3vLfdu8JPsZSx4gfQwEoAAWgABRoXIFD/OY94dvl4aa8RcBxc5OwldHk3cnBMX0hL7LIsQwVy6WOv7zEW8M2FIACUAAKQAEo0IQCgOPc80crOFXeaHmLs/MMwE/aNBzTq3iJsHGnK3OOd6++nZur3BC2oQAUgAJQAApAgZEVABzngAPUOPLEGlixvLblLboifPHj5ZdP3v3C3SmmX/rD0T2VUIFsYyRbQwEoAAWgABQopQDgGHDca4Uayxstb1FzMGHx5ZdPNn86HZ7YIqHi1J3F3DzU7aAMFIACUAAKQAEo0LgCgOOcxK3gVHmj5S3OZloFGBcKQAEoAAWgABSYfAUAx4BjRI5zc2Dyz2F4CAWgABSAAlAACtSoAOA4B0YIqdY41bymymtb3qLXZfwJBaAAFIACUAAKTL4CgGPA8axEjif/bISHUAAKQAEoAAWgQOsKAI4Bx4Dj3Bxo/RSFA1AACkABKAAFoEBJBQDHOTBq5Yf48kbLW2zlhbyS5xVsQQEoAAWgABSAAlOqAOAYcIzIcW4OTOmJDbehABSAAlAACkCB0RQAHOfAaEZCqjPSTXmG/O76f9d/ebT+y38XViNDv/1u/Dsdo51djdZ648brM3f358KFk8M9xx48ufxgO9x/kPb8+Qca1kdLf44Ma6MDgcahABSAAlDggCkAOM7dSmeEGmekm/zUJUSO8fHvf3pw+eWD1Yu8cNPbc9u/nbn/7I0hUbUqHLfRo6YV89tf/fqtX4DFuUuZr9iQkw3VoQAUgAIzpcCh/upGf3UtFn9amO9v9Fc3Fg8vOIrMr1EVcUj86y93S11nyzNceYutJOPOSDedady9tpTCKRFnffnjsXKo0SQcJ79Z7apRrrNN2BWPOv/6+nelLkRNdAFtQgEoAAWgwOQocGhuMQLH3cMn+6sn5+eXF0M4du5ASwsF+bg8w5W3CDgudW4IOH7r+vmoOZFcUTAPoTk4Pr36v5IdiYpZZacQPPptbedqkyT43q1HgOMqOqMMFIACUAAKVFEgBsfzayoePDcQjnuE0dHAc/JOVsWtaJnyqFreIuA4OvQN7MzBcWfEVITvV+6/PqP+uWkSK/sn7KHfllbk2cHLm4qvgxQLXsw2q9IqWMsrH3onnQgbJ1NE5teeb378q/p3+muLoUf+vfHx8+NHOrzAO301BG+e/nVTFP76HVP3wr/nPbvD/0mCj8zxgOMGTpDhB9FOIdSFAlAACky3AjE4Ntc4wPGb/+//zP3fwjee8kRe3mIrzwDuOGbhuHvx1uaQscwPnwksvvG9tvL9Ct9mb84JqL1v+FhcPnKR43Sz1I5tKtKIyA/5363fR65QW8cv/Lr58aM35SFBw79urG2pE7//aPPj5xsXft1U1EuFne3nGx//qnBZFNbbEUNajSqHKAMk4XC+HcBxXh8chQJQAApAgaEUGA+OK9DzUN7kC5dnuPIWW6HGGemmO7vOL/wrmVbR6faGTEj4fOkuJ+MsC1Ks98T258afCNcqTs0160M2NcuDx8lcBRH9NWQsXCX81cFjFTBm8WBRXv2pAsYmkNwlsLZ/JjpOadxPLr/0/gWJ3fRMMnzCN+DYzCVsQAEoAAWgwPgKjATHxMTqhbzFpfGdqNhCeYYrbxFwXHEyjF9MENUvP/TM7yTeRjrsGjEdgGmkjG1fpElUguNssyqtwjTrFybQfPeL0BMBuDZO3FPpEwZwCZ1FWoVp2W4QClNaRexogoxt9UoFKOE7nQ0SaS3/I0Alo811By1DASgABaDA1CkwEhyz+xO9z3dyfq7EHag8qpa3CDguegrREmBxRB4KjkXyg5Mp4fWCYsM8q7gaHGebHRWOKRHCZhuL1GGdXyHOYp5E4fWi060xiSJ5xZBwXC3/WGBxfPjYNSroRdI0SkIBKAAFoAAU6HR748JxpysWrPCXe2vmzlQeVctbBBwXOy0H/BY/FBz7UVsHvyQZs4SHViPHlDWRCAwLt/24Mj+XqS4n6aqD1WxaBSLHznyrOih8ZLENBaAAFIACTAHAce6+Ajhu7kbbirasOwOIKplzvHnn3u7+ve92ltlZ1OnSghL2DTw+qShvmL2QJwvztIpOMkKcabY3KHLcS+Qc0/t28ayJXiefQ8ySj5mSvLPjbOOFvHHUQ10oAAWgABSoTYEx4Vh+KARLudU2HogcN0Bd0dHJw3FytYr3vtwXcLy7e/Vtp1kZHmbIa1ercN6coxjzGTfnuCN3xth6QLOcucPodTz4nc8bzqGz896e82zgSDHKCGIpt3r1RGtQAApAASgwhgLyC3n6c3fy7Tr+vp38DJ74XyUW08LGunyphAp5uy0fayxvEXA8ClqNcgJk4ZhYLVhLgRAwHjmmQ3LZtcg6xxQ8tvv9tArR5WTd5KGBkeNON7XOseRjs1AxW4stmziRy7gYZQgsUieC3LZAflYMyJAZz7e8aRyFAlAACkCBg6fAoSnqUnlULW8RcFxqQubgeExWK9WFwexIySHxpY4nx8nxPQEcj68hWoACUAAKQAGjAOA4RxiAYzNRat9oRVvWizQc09tj8bDx9MUgKZF3jC8zM8VyZ0q7xX53/b/4fHS7QwDrUAAKQIGDpADgOHfLbwXgyhstb7GVADk/bwVO/fLfhdVg9Ef8cHTQzuRgtEznjS14zAWZ7u0//7D+y6OlP0/wKEzOfIAnUAAKQAEoMEgBwHHuhjoj1Dgj3ZT8R1j8KMVSIqHi4HGkiIU/2B50LTgAfJwa1unu2sEeOPQOCkABKDB5CgCOAce9mYJjcBIUgAJQAApAASgABTIKAI4Bx4Dj3BzInDw4BAWgABSAAlAAChw8BQDHOTCakZDqjHTz4J296BEUgAJQAApAAShQuwKAY8DxrESOW3kGqP2MRYNQAApAASgABaBAowoAjgHHgOPcHGj09EPjUAAKQAEoAAWgwKQpADjOgVErscbyRstbbGUpt1a6OWknPPyBAlAACkABKAAF8goAjgHHiBzn5kD+/MFRKAAFoAAUgAJQ4IApADjOgVErscbyRstbROS4zevIxvqLh1uv5L+99auTt8BkA+IcvvOP808uHPZbPvunvz++cus/fzoyEyLkrnW+MlKQv569VVqfox/858qtx1e2/jq8t+MMouzpY2H61uOzaxWbkvMnLM9b+2E5rm0VE9T+UFKs/dCGelX64pb57JPzzz45NroybmtoBwrUrgDgOHcJBjXWPuFMg+W1LW/RdHYyN775duvVbMCxuBPfXv8svKEWh2PBLlPE4k3A8QDgawOOqZt//+ro0OdpCo7VTKO+AI7D867b6yy+9eR27Hk1Whg7oUBxBQ71Vzf6q2tzEcML8/2N/urG4uGFxCVjaUHUzRTIcWeizVyV8nBT3uLshFTLa1ve4giTvGSVGYHjcxdOPbt96s5i9NqyvPX4yi0PXxTxyCCi+H8UbIpcUYUDUwbHiV6MNUsHwHF0mJrdSdHWytHiITRpAY6PfPWXW4//8sHZZhUbawIYAU+sP7t9/ucT0+Cq8RkbM6PAobnFCBx3D5/sr56cn19eTLMvVQQc139il2e48hZn5xmgnrtIM9ej2YDjYz/nAlRJODa/ZRNt1MbHgOPOZMJxI+F8wPGA+2PyJ51mrniTfDWGb5OmQAyO59f6/eVut9eZS8MxHVqYF8HjdGh5wIkxrBblGa68xdmhxvLalrfozPBPz6k034dbr749zg9dvXkxfkgkB1/c2+gJio2mCPPs4YfnvnHvKMlmdbE0HB9/apKSg2a558H250t3X5+5L//9trRirgC0/8b3nZX9E+ro6xPbn+vq36/cpz8/fKbrvl750NTt8Vpn7j97Q/vf6eabFS1Q2DiWUGEbYYbkTp/eCKAdeKI9Kj+VR+nEfh5mJrCmkGQQjabcVi/FgjdbNZApTAjfbF3ugIpVK1d5jJy4zelUT2Krqj4oa5airTa4LrpjAvBOZ60+kSrkmH4OIZciqpoBsn10g6Ni/9Zfe/IxZrikYRrxzBOL47PpYFdpFRtE422v003CMXPVmTB0RvBuRhKIZV0tGjfX2Pb82vPNj39V/05/bc+dI//e+Pj58SMdXuCdvjqv3zz966Yo/PU7pu6Ff8+7TqaTK977cv/e7u7Vt93y1jT2Q4FmFYjBsZl/STimjIvFpU4XcFz/8JRnuPIWZ+cZQN4nJN0+/VTPlk/P6e2je3tbryyAEpWaPGDNvi9uymxIOmrAmo7qQ73OxvoLc6ibbVaf4HE4dpslz33s1lCru6MaFIx75sb38ujc9m9n7hs+NtCs9xAHawKmigKaFfjyurRtWfmNG68rN9vrdMV7eEO/9xOFYwNGbn6qSyoCazib0lEHc5McRkZNXWIyp2JCc0OEmkHJPUNOR776i9mW7GsQlnzTtWgEQ29TeOe45wrS6S5vMeamko6VwZFj0aBbpdvruFZC2Rmdx7hfz3kuo2xEAa55fmAjmFHPtJMcUGExDseOeu64O88nGsHtCJo2+aNIrGvGvfE3to5f+HXz40dvypNd0PCvG2v/v71va5Hj2NLVz6mHOhsaisbjFtKhWw9TbYPd01gIBL60hIy3NUIvgyXakuzDNmyBEdiyQCMMFvg6yGAsGosNgjY2SM8y+8UPgoGNn/0XDrHitiJiRVRmdWVkdecHQmRnRqzLFysyvly1MnLXKJ3+cvG//rnz7v9eNKyXGgfH/9z5r/81dFk1tsfu1kEz9OOXz8devHfr4f6Dh/tffHjm4C5AAhCYA4F5yDEVXegyZZBjN8kXdlCfqtbXOCxyTHTTsuEwTlQ6WeWG/dSlBLNprMmxp7yUQnbUOe3rFpj0Ehdrm4nkODmpGLmn4LavN9ieIRYrpXVVA02O+VWbLVZXiRx/ue/ffKAEM1Fn3kyjRI0NBS+LNS/9tC5qDMkxURm3eUJKdzgVm58cJxwrFpUCrs+ENHGiuCmjd1GvEi2TmVzqb6qCI8AiWQdGRP5kwhf2EshxagZXqlzmrzlKLD9UYYNW45OALzcO0LMSin1Ts03KmfNdbm0sLQzFzIjL1kZDP+efKvvrmLFSRPTXJo9Nwpjlg1V786dJGLtE8piItf/TmJ37bQeZ4zmHzEYmuh8QgTnIMSfE/LjLKUrjXZ/D1dc4HNZYH9v6GvXkpPIGOfkq5WUZGU1YdcBcNXWOuDXNlBli7d0zkGZOMu3mDCWhGUHP3HFshYMVPhpPVJbXUF66yukva2bIsU05B/KDBLO5wzQWOxmpN35yr+Ll71fESFhCkWVwU6o31rlb3SYmppz3aL9i9mNwiDvmko4BONQ3UZGK8p5GjQNjJB4mmxGDIFFAP76JhwezxwAAIABJREFUPbIibyQlicPMcaxRNWa+xCrYJSbWmxSfDHDINxPFFvsKyAhC/MNA7MjsLHve2jRU5jijCK7PE09M+YQjuESd//nSCUkyUWEqq5CusiGYb5J27PgMm6F9AAi0JsfqPTxdkazQATlmk3xB4VKfw9XXOJxngNE4TPeGQZKjp6YouUyOlSgqtDD1wZ5/zxBrbRCaGcJtS5xd5fFsckwJXVtP7EqHF0GObSWGNZsqK3QSusy5D0SOdW6PqAyrlJCIHbXRZC4mNykTkrkUiWV03NbyuloO63u6ZicqIhvUn6FkxvU9LSOuycohrCKB3tk6ZiuHCh6SVGig1JWLKLEShlYd3U6ZVea81KUV7IH8BEx5UFSzInokJ99XLqtQ7eMRuWrLSKKxa4BV4kvZ05ZXqRDCVxur0mFbX6FGihdRJJLFIgppuQQ57nYQJcyhsQECLcnx6rbaxWLFwQ1y7KBY2EF9qlpf46DI8YzMsSuTMNOV5W5nk2MbdVQ14WqXBdZLNDqqjmjYLFn2rNLg/iJkjlnHMovllRKhcJU5lshxo4T0AsixSZ26rzxkWdrCM8chDgHUwaUiOSZuxyhvvrEiwQGFNRpFckwnGcNLmTE7057wtSDHTWFnoRigp89nCO5M9JSoTF+tRUAvGQJuT3us8oFRdrnRVaqayCSGldlxXpkbQ305k85qBDnmuOF4aRBoR47d9m20O7Lax839q7BnRX0OV1/jcFhjfWzrazTrgVTvyy6lNcf2THNyPJ6MeJ0xP9b3mvSMnNJuUkRx5trX6l2ZWxf5us6LKILz5Om85JjKkdm+FqZA2Z4pi11MzXH4KlhKd/iZiNxoEmkzrDQQGW7EhaTolc4kApkNck43sefRaycU6Q8rGcwSJRmWkle/nlF7RselGmhmoe/IfBTkp2bwM7HABBMmXNIoE9wG6M1BjoWiEW8Sd0rZrNPM7ElDnSTvXBH8DNcCSnrx/oOH+w++vrXpNZa70/t2ctXEZJSpITYaWfFxYEOiOldzvPnhQ7yQV4YOVztFoB05TkxB5rh8c5nnan0OV1/jcJ4BaMrovSMs5SUia9/Po0s+eUxlEq6GoUiOr92+bIWoMFNpYL/rRVGsXZ+kzLEm2cU38F699QW9SP7gs/eCG4Lepk0sHdYv5M1Rczye0Ht+PnnMairse35ZsYvarYIoi0seh5yJmIqjldTSUEPdK/kWMXUXcrS583awAqjZyYQIMqZIeW63PYVmWvG3kYkW7357yTULFcV0TV2V0ueuF2mxgGgD4hcEQzyZL0aIgsJKcFdLsDOXqX2CyYz7sEyOm6DXPnMc/xbhHPSWG9+VF48u3Yy/pG3jqkHJjRsUfaDpZvpYGzVjf5brhkvUOXhvL/SRybczVNitwjyBP3h4/+1S9xkjG+pCYyDQAgH9hTybAFa7s5ntjV1K2B7wagqnAOTYQbGwg/pUtb7GgZFjFRtEXm0tr6O/6r6vqbO5FFQ+FMlxLNMzbB2KWbHB/se2qjjV67dejt/5kzPHtA7Flcd2s7ZyijdfVkHrIvFju31yQIXLYhUOubxUadVMyV/EXOlPWzkaJGJ5lapiwKpl1MBk/kx3nmS1VNJKTgiixBISIhgyRWbqzTsnk8a2LjZmYCZnaS0xZbIuhUlywtpZ74hlb6ru4ty2vHuGMtIJN2Jj96mBF2t2c7O9OKqhy8G7eo1uyzI5tvvHaY0RegIC7BnAPod4H++GCMcNGNP1l9RJ5ZqDXQetVh2dLMWzDxuzP1r0m0+xr+bHbqNithdbsXCiVHHh7Sn+tqPz3NjqmMOF44oIHCtOjEZ3lmoS6nO4+hqHwxrrY1tfY7WpAUV5BNQX8lpvdVzxFpy3fLluv85OgZyFSVbXEgfLhsCy7Y+mvpAnpI115BOVb1EEsqTzZdliAPY0RADkuDSjeqFT9ZXW1zicZ4CG8xDNukOAkscXWu92DH6cQYBSmzxxa3d1YOnP7kYTkudHgHKxS/RZDfUqXnZi6iKQNknu0lI+P2iZWQCBRx4BkOPSjAJr7G4C1Me2vsbu0IPkVgioBNUcGx5jXZQQSDPHuhJgrh/6S7ffVkOMxkUE5iio6Hho8h+OHpmCClQbdzwE0uwuRtGw7AE5Lo13L3SqvtL6GpE5xj2oLgLqK7VP3j1eV2np3nKoLUkqbqNE8pF1/FCP2lIZr55X3z+1VCbBGCDAEQA5Lt3HwRp5rCz2uD629TUuFjFIAwJAAAgAASAABCogAHIMcjzphTXWV1pfY4UJDBVAAAgAASAABIDAYhEAOQY5BjkuxcBi5xukAQEgAASAABAAAkuOAMhxiRj1kmusr7S+RtQcL/l9AeYBASAABIAAEBgsAiDHIMfIHJdiYLC3BjgOBIAAEAACQGCYCIAcl4gRUqrdzYr62NbX2B16kAwEgAAQAAJAAAh0hADIMcgxMselGOho4kEsEAACQAAIAAEgsJwIgByXiFEvucb6SutrRM2xux18/tXuHz+bf0+vl6LRdcFBTQTUB/aEL9xu7v569e6vVff31d/auHnnZD33Pzh399erdx+9dqLq9wJOvvPoqtJL/5r7m8GHS7v0zrn5p5iS3zUU+kPc2veudVUd0wzs3N9fDzQ6syaFmrDNY2mWtIw7dSDVs1IHSfJZSj0L9NyZ47s8egtzASj1OcPTH9VxcDm0gByXohyssbt7RH1s62tsgd7O6d9/3gU5boFYnRto9gu3R4QczyB8PZBjzWXneerIkGN7h1e+HIh+zcBqoQFZU1dvk04z44TedWPPESLHJtJopuTQI2wXSY7H6jtKUprAzq+Fxn83MdDO1GPTrZ3p1vaK4Nja6nRnurWzfnwtMHR1m7qoS/af2L2dHYEKwRglrT65qa8RbjaJhPna9DKaytTr511u2B3EPFgixzqpzFqe3NtTOWZ2ZvGzbD5sj2avwhdux7Qyhbk98904fnLeJaoanktHwggxIXGVWRRaAAVyfHAMFyqB5suBHldajP4Y5LjZYkHPwxlWferHewP6ruGxlXWBHI+Pn51unV1d3VyXyfHZ1ZVmQC90LtUnN/U1ghy3ud+1C8JeRlO5Q+R4BqPNk+M/vnrJYEJtQI67i5BIsvrCrVBQoaMuR44v3Xx01S8tIMdtl4DuEAM5bjsWHbcncjzPTwTRPG32J8hxs+WyRI4no+wvac2EdxxRzSKhqakSOV7dnk43x+PJaAXk+N//z8q/LRbxmdLqc7j6GofzDKCGe05yrPLEv98+/fTn85/TPeXa7cv0J88cv/TU1iv/YZu5ALt2+7JLVHuGbW5PvOPlvZ3wfhGkuo12K9Zkr73kn3d/v+2qYPnVRGzxzrhy419v/fCn/nfmxt+tugmdf/bi+O8bX5qrb325b3/popOffjN6Zf+M1Hc0/uYVe/6tH/618Yp3syiWmlHa+MczvoszKXdgMmF3zt11v3XGVE/XDCTVtNKCREUChjrQsenlmbfDk7S4Il068Ak53jcyLOxC8l3am0wyDZw7TuN4YtLkSeGjOq+E6LITJbNdGjhGjOEfuOkdHI0n3EcBH212lhx7U9Mi8sDNhZRfKy+U8d5mhzmDV12Vzo9K45KJLi02QC+hpCWxbAiYhSMTA+e29a8oUp00Ry8NA7qaWKKlfbs5YgZHfUtiWa9wNA05Zn1T1ZKnCplz20Ysc9ZPiizsSld2LsRkPUEjK9bef6iBNyM0ngwO5gINcYQkBWEzHMzQ54srXr31xcP9B5+9Z80L7Qkj51C0kcixcwPk+P+CHHcV4vUZeX2N5hZwIHJ88vOvNPt8iViyZsxERimR7Igp1WB4IkvM2NPTa7cvs9Q1MWOXkB6/9HTv9DU363dO/+4vabLrxNKftrEm3zmxkQHlu+GLn/751g/PXtQ2ENN1/NiRZnuG+O6n35BAx5gt8f3rs7d++POVv1LQ0rHtpUm2vTQ2f771w5+2AReruqv38Fq+gELL26V3zm3uutrWcIna/pZRumCtIn4WrHPx2qn8DaUZSOmkXfP0gupXuxN3LvkFklp6fkxoZ0mYiQdxAY60kPGWyVnyYT0lN70NLsziAxKiCVbwv/Nlc9eqsGzYqnCiRHzcVWWJ3MWipwmr0yj9yWwoh3T2qh6FX6/agUiHXoWfOC42wPQ9Oe6Yjy4TOc5NFUgs2Mpis46wByQrOTApIF48SikkhAczY5KOrqt+sMIQyoq1E8QaQ157N22AmREUA1sDG/5PYXPz0bltXZjx6NLNOycJMRMnBdiLc0HZ4031TxpGe0GsHZGiC8JcoPZBAAfjZcWG7rvpYw/oxvj6/fW42eaHDx883H/w8P7btmVDgUvbbD5y7KqNhZKM7lytT27qaxxOSrU+tvU1mrlwMHKsEs97p69dP0/ZX0+OFRu2PJUUKcobcOXgKruXSSUc2WnLjY87BiSb2LCj0ZPRmJi059nMgOjuSWzYMFq6ZNO6qosmx/yqYtImeazJsWXVqq/iuMR3bVLZ66IzNutcFDsZ6bdP3j+VhcWL9X45knHijlpBVV9hiXLtg7UqWPLHE0oQykwuIpp8nVYaQyYR2R9ryZAw1ktagIkuBNs+MKWaEDAjYxLAhDso2EEJsbgZ5xZKbLlvarbgPrM2kabQC7gFs0eKB9lTEmuZsZIQjyCJknQx27Q6ySOrNIguOZyMza3EBi4nY804fYJe6mZ6howny4N9YJiFZbElQJQQPnwZ7YGDyh6KbYo0L4H6JtNT4RnATs1YkVVQ98ycooEo2hOIDYbYs//Q8gQoG2nM7BJcoTQTKnQy95MaMsd2YDR2+qW9SiXI9clNfY0gx2GA5acon67NjnsZTeVOUKWgd23zOV3jb8w7J6Oxop6Ulz25t3f59z137BLJngqTkICM6rRuyJ4dmERqG77Yxw3jRFlhzul4oF07ldB3Z0BwwKmwQUMlfU0ymK7axHA80AHfNX11mzD9rC9xRUWxk9FYvXry5N3jgcxYe+BFuPZs7urVXVqinMyAAIUtg0tOb9hGy1EtOZMoLnjpAiwrchrdb9z+TJxPJTP8Sp+o8Jec46UDyUepvSS23FdAJhVCLIQIR+IIY34MDcm2ODCCNqmRgmGSrrRZKooZFowstfS5WNZM4M1FsdwXgoiRLSY2RS9VJLRREkQiaCAVunBYCm4GxFRJE0Qx+72bXr6KFv1UQ31lxznsiQoeb/x4tj1crLXNx6o9wwJPHEQ66R4pJZlMgoiGOjnPvVGwMCu/iQ012rTPHEcuiaUXUZsF/Vmf3NTXCHLc3SzqZTSVOzGnlCY256BmvjhyPFFM16SBLQel9rzw1xzzTC0n5fy8kk9yTL1yzNT1LhlcuK2doF42IR0WThjCzXupY9u4MKxUU2HriZMS4SKLnUGOeb7ZJqGbcO45FwC+ZG5/S7+ZRkuUWbxN9bD6ZdlnIvlSpxZOlny1ARNJ03ESLHgpsaAVXS5UUGJnLZDcKmOG1IW0yJwyJgGFSFCXRB/JU4KXQRf+Kl3uq656lhPgmft9P2E2M7GyYs38zfyZOpgaJo1L6r623McJSQ7c8dE1GbEqcP40NVts3h3qm+eIQdTpgQsapwhTbKQx7JFUsTdDLA94XyGj3Xe8cJHkOA974iCfC/xYORg3zosllOxTRJvMcTjflQE+ePKjbNW5UQA5zr2QF4O4sba1M13fSBB0UC7soD65qa8R5Li7QOplNJU7BybHDBNLjoOs7YwpZshuzI+plyHZnh9TY//nKGDtEQNmzZoXUcQ3EPfKnezFosmxqcEoil0AOVYk79FrJzgT0qsdW8wilulXR8WW+LpukeHSHIyqMWMMKR9iZ7wK2z2ygUWaVtqCHGvmkaiISUCiwnqnTRJ9NNSBr+WS2Exfo1HgoJIQi0ziSM/kWCD31lTl4Kzo8rCbgLEBJsASjgjXEh4TRAHfdVpS9Nwld5BpUyLHmS6SwZGbHWWOi7An1vJ448fK/qBxUawFUJib9lL+IdMNtzqwMRAOqxcinwc5bkiOadvjtVUpOmVk529Zn9zU1whyPGtmHqb4Mb7MR44DVuq8duTYHbhLpYNShUOgiOgvp9HsalJVHGgsqbC3grc/23/wcP+LD88Eo8yKKILz1KvIYvOZY727hXlvT9tJje2ZotiD1hyTFyffeXTpnQ9eu2nTM7T4BUwiIaZqvdz9gEgY49AeE4H8FRdI4gc8ORQswARvesarUw0k+W59tcPKeVsiMCYBofwghNQlwUdrBmP5aSIw39eqSM0WvZOccsJZpp/EahLTimQkDiZhoCQLJ5OOHMkG0WVxiJLoRbFcRXqcKvVtBLSZAaXYK5FjHmlelxuy6CCwIY7DJFBj84x8L0RJiMoqUgT4wCUquA382Ea4DaSyWOu4NDcdAtlhVb1u3jmp7BRvMk5C7iBXczx+79bQX8jjkFFNRZ20MVijnRKZOczHpeUxngG6w1ZJXiQ5nngOSmLdG3ihCyf39vi7cSHlvX6e9wqrI4hzu13hSIXfWVn9ybPFYSgSjU72jONt9N1z/8HXtzaDECXa6narCC7pvHL7muPxZMR3rjAv9nk5s8jxQXarsC5/cO7uo0uOHNO67t5Pp4UtKKtQvWjFOuc3uwihEIkjX4zDGIiziaqlyjGH6SK19jurrOVer7gA00lPVT1piBNgSk5EAlIV4ZnMok7G20cLaiOYnelrYPEsh2ksuc/9Ii8e6Z254u6CJR5A1lifjIwkA/gDjLZWHNYAhEhF4EgcXcGmJTrMWBiUxEZawj9TDsciUNsQBpvQPW0QRVcEYEls0c04DhPmGimyf/qw8fHgHZ8FezjduA3cTe0Um5tFsRZk6pUjuFGYMeTJeLYZCLtkJVvfpUu53SpGF+/TbhVJ7kMS0kRR7230F/Ls7hO6OkJTXv8BPH3VvHVH3wex7bd26uSMNUz1OVx9jXgG6G5K9DKayh1LMXk9rq3ijQoV9Ot6xGtZypZj4snxeKJrHphYzlwDyZwNj8ZUxJzdIJl13Dt9LTRDafcd6ZinmanYgzewbpq7rZw5prtnXHncKMVbyByTRuLHdvtkvqlFmXNT32yCJLty+CXTrAe0mtrMsSWOpgTCZIg9xSSxtCjG6cmgWtRVUDhWYbTw4gpPtrRAqruItqByQWUXS5Js7SHC5HR5m20vt5yrS8VSTk4IstBZsbnMsUutaUvsvlp6S5AyPpZJc3wChOMGloLbNDZ1VCcVUBYfa7DBgSNgL2WcLaiz1SOBqQK8bFyYPXwc0+gKBpT10tbyvkp70kB0inoxuBIaFCi1aVcnirq7MHZwEaRFAwpig0uBkDgOM9qdGfZAzSDtI000IqPccTr2E0QZYPUmKiIbSKCdm/Tw7NEoiA18tCVVdsp7mSyKvFgFvo5Aa6QbjmYHtM+xvI3PmWtfqx8Gj8xWx8eaIWIDJYn+mt3rk5v6GkGOu4uoXkazO3fqSyZmzPm34f0R865vWEca1RfyWm513JElebG0FobrHK2dJcqSl7YU9/nDZZ4mMZaaNACQqEmL9r2uuYdrLGBtIwQoAls8zvEIVF/IEzY51nr1Vse3LjaYBVzmsh6DHJcGshc6VV9pfY3DeQZodLda1rtDaDxVXES7T1Be+aiS4xElj5/JaZLSfSPErcuW0jpHdA3kuEvY3YTVSbjcT9uuGT8AOeZo4Lg6Akk+u/lMUa/i5e+HVDUXl8w1F750LUGOS0MC1tjdMl8f2/oau0OvF8lJ5lgXKIe55Or3+m6hUJmS1hsed2tSgHCSOdZ0LcwlV7SndDs9Wma0L6jQAwdyHATwcAJmOTylOqu5frjIfzh6bAoq4jetD/lAgxyXQrYXOlVfaX2NyBwfUqIQ1xxHieRDfjcUB0W9gPLxy+eX17W4ynDOH0yX18HSLVocsqU+CXKMSOsDAVfEPBcznoxUmuD0R31Y3td0Bjku3XnBGruLy/rY1tfYHXqQDASAABAAAkAACHSEAMgxyPGkF9ZYX2l9jR1NWogFAkAACAABIAAEukMA5BjkeCjkuLtZBMlAAAgAASAABIDAkUEA5BjkGOS4FANHZqrDESAABIAAEAACQKAJAiDHJWLUyw/x9ZXW19jLC3lN5gPaAAEgAASAABAAAgNHAOQY5BiZ41IMDPwGAfeBABAAAkAACAwNAZDjEjEaSEp1IG7quf2Xv/3j9E+/nP7pH2tbwtDfeOP5kzc+GdpdAP4CASAABIAAEAACDgGQY4EhOXQGwhoH4qYb1tF4QhRZ4scvfP/4yvPHW5d5YxwDASAABIAAEAACw0Hg2HRrZ7q1vSLs7by2Ot2Zbu2sH1+T4NhYUx31P7F7iXRKAme3r8/h6mvspRh3IG6GUff/Nn76ZeM/pag79fjJleffnZIuCdMEzYAAEAACQAAIAIEjhcCxlXWBHI+Pn51unV1d3VyXyDFd3VlbrQ1EfQ5XXyPIcUhhu4sxRY5f/tsFUZ0qrrjy+AaoMBAAAkAACAABIDA8BCRyvLo9nW6Ox5PRikSO6WR9ZgzWKNK4hZwcyDNAiFWJHI8KxRUX7z94uH/EPiIfItPdAwkkAwEgAASAABA4BAhI5Ng9IkjkWGWaNXV2zWod1Odw9TXiGaAWUSuS4/HluxefP7n4/ZtJbL/92f6Dh/sPvr61mVyqZfkhuK0ACiAABIAAEAAChxeBtuSYCpHXN6gYw9QcZ4qSF7+E16eq9TWCHNeaSxfW/idbVjEaT97c+k2urEDmGE8FQAAIAAEgAASONAJtybF5D8+XVaxu51/aWzA/rk9V62sEOa5FjieTu7+c/unbSW56q9fyfrv7woJjuJp3UAQEgAAQAAJAAAjMh8Bc5Hh9gyurVmhRn6rW1whyzEOr8+Ot/35Z7XksUWSQ49xjA84DASAABIAAEDjSCLQlx6asgrMWkGOOxsGP6zPy+hp7eQaIhkZljv/nv/+Sm94gxzlkcB4IAAEgAASAwJFGoC05niRUWKDLEQtZ1J/1OVx9jb2wxoG4GcZh+YW8fM3xq7e+wAt5R/qeGMYJ6mqAABAAAkBgcAi0JsfR/m5mR+SVGsDV53D1NYIc16ImZXKc3a1i88OHareKh/u3LtaI+VpowBcgAASAABAAAkDAIKC/kGe/daeLiWkHN/v1O3tp6+yqY8BBg0qfxwNr7I4nDeQZIASwSI5pn+PMR/Leu0XkGFsdh3jilgoEgAAQAAJA4IggcOwQrXD1OVx9jXgGqBWQJXKsvpAnbXKsbaOtjh9ee/WI3AJqAQ64gAAQAAJAAAgcDgRAjkvjBHLcHXPqBVvmTp4cq1fxnmfSxpORrjn+7D0mqhRCaAYEgAAQAAJAAAgcLgRAjkvMphcCV19pfY29JMj5zPzL3/5x+qd/rG0lo1/4cPTYFFSg2pgjiWMgAASAABAAAkcMAZDjhB6xN/EHwhoH4qaeukSLfzn90y8b/ykMvSqoeOOTIzbJ4Q4QAAJAAAgAASDQHAGQY4EhOfgGwhoH4qYbVhwAASAABIAAEAACQCCHAMgxyPEE5Dg3PXAeCAABIAAEgAAQGBoCIMcgxyDHpRgY2h0B/gIBIAAEgAAQGDgCIMclYjSQlGovbg584sF9IAAEgAAQAAJAYDkRADkGOe4nc7yc8wFWAQEgAASAABAAAgNHAOQY5BjkuBQDA79BwH0gAASAABAAAkNDAOS4RIx6qTeor7S+xqFNM/gLBIAAEAACQAAIHBYEQI5BjnvMHJ/68d6FZ/cuPHv/1CInDH3i7smV5+pf9U2Lz7/7uvLo3uv310uhtUh/2c7cEAsEgAAQAAJAAAgcEAGQ4xKD6SWlWl9pfY1h1BJFXiw/Vnzx8t2L1cnxmdOgxeHgluYXWgIBIAAEgAAQWEIEjk23dqZb2ytC8mltdboz3dpZP77G7N5YU+2Tf9PNsSBhwetifQ5XX2Mv31XuxU0WVBOVbf345fMLDqEeyPFH7y86C75gTBY8Jfkg4hgIAAEgAASAwNFA4NjKukCOx8fPTrfOrq5ursfkOF1cFV0OCXTaZjFn6nO4+hqHS47vnf5owUSwPjk+fv9jkOPFTPajcXuFF0AACAABIHAYEZDI8er2VGeCV2aTY0OjV2qsiPWpan2NIMfNZ9GbW7+ZwuIrzx9vXU46Zskx75gUJVMvXa985be7L7QKbJDjVnChMRAAAkAACACBZURAIscugTebHFOVxfpGwks6cbU+Va2vEeS4YSzdeOP5kyuPb+hYfeH7xwI/lskxMWPPet/c+u27Uy5cP/mOvcMXtWxgGMixQxIHQAAIAAEgAAQOKwIHIsc108bDYY31GXl9jTHRVO+xtSmrIDbMSO2EiKzlyubpTibHilVf/P5N9wTIDhIhsoTYeC8B5Piw3gfzYwqPgAAQAAJAYHAIHIQcV00bgxx3t373T47XX35y78KTd4839DFhsZOR2r7N54NJjkxtqa/Ij4X2BSYtmEpe/HhmcDcRAQr/wAA0gAAQAAJAAAgcMgTmJ8eV08Ygx91RkP7JMXEptdVDM4pMNRW0jbEpDtbHjcixglHeCJlqKgKBJDaTZg6Gg2hxBxtuHLK7SYAJ+DEQAAJAAAgAgcOJwNzkuHbaGOS4O+bRPzlumXMVMsfC9BMywRGGhmSbD4XMbh91j/9s6UXcXXAB5BgIAAEgAASAABCojcCc5Lh+2hjkuDsu1Ts5pq/Ktak5Fooo0pnTiOzywgl+PBfaqDlORwFngAAQAAJAAAgcMgTmI8c9pI1Bjueia43C8fCRY/31O7dbhZxzFcnx5bsX+Xt7wfYUI3rPL9ncrRGGNDogx82xQksgAASAABAAAkuKgP5Cnv3ind6UjXZwSz6Dd3bVbmZMaeOdtdXaLtXncPU1DucZgHP91pljYsNx5bGpjpjE56mMmG1tEdQWJxskB1efXHnOOs4MeJDjmRChARAAAkAACACBZUfgGOcoS36z4oAhAAAWaUlEQVRcn6rW1whyvORBWDQP5HjZ73fF4YPxQAAIAAEgAAQUAiDHpTgAOa5DJubLHNexrZUWteHG+6dadUFjIAAEgAAQAAJAYKkQADkGOZ708gzApsGpH+8dEU5JLP/1++uloGKOoxkQAAJAAAgAASCwdAiAHJeGpBfWWF9pfY2WIBItvnfhKO0QTPz4wrN7oMilmWUDAG2AABAAAkAACCwdAiDHpSHphTXWV1pfI7gREAACQAAIAAEgAASWEwGQY5Dj3ssqSkOwnNMGVgEBIAAEgAAQAAJHFQGQ4xIz6yWlWl9pfY1HdTrBLyAABIAAEAACQOCwIwByDHLcT+YYjPyw3ztgPxAAAkAACACBI4kAyDHIMchxKQaO5LSHU0AACAABIAAEgEAOAZDjEjHqJbtZX2l9jb186yQ3B3AeCAABIAAEgAAQAAIOAZBjkGNkjksx4KYKDoAAEAACQAAIAIEhIAByXCJGA0mpDsTN2fN55/TvP+/+of/tnb42LsXGbGnovngEPvnuyvPvTsXjcuLOpbu/Xr1552S9QTn32s1fr9799dz24n2Mvavn1HL5cvKdR1fvfru5DO5vf3v1rhpu+tfcpA/OqS6PXjsRAEt+GWmX3jk3/3Arq2Lh80uTcTZxTo53rStAaS5HNOBth6mhXnk057KzocYDNNMRO8ctMXsvPfX4yZXHNw5gkhxgSywQ5LgU3ANhjQNxs/nk/Pyr3T9AjpfutnX57sXnTy5+/2ZiWPaGnrRsHgMzWlYnx+TjPFx87o4zEOgOWyO5HTnuzk3iGXOx2DKdUlfnEmuRr0GO+9B14MBrFzlN1ZVH0wLVVFrH7RdPjsfZ2++SuLxwM45Nt3amW9srwlCtrU53pls768fXYq0rm+uql/knNBCklThoLD/TvT6Hq6+xl2LcgbhJYXZyb8/mhvNJYoEc66QyZ8zXz6scMz+TiduG4Y1mZQRuvPE8m7qgdWv3g+gms7n767KkHsuuNbk6N/mbu2MTq7ps047idOZmZ1EEctzVDbNd5HQZw9Ed6TD8Kd9LteXqh7snb3wyEMSOrawL5Hh8/Ox06+zqqiLBMfdd3Z5u7ayt2mGmP+M23QR9fQ5XXyPIcccTj8jxLEabJcc/X97bMZGv2oAcdzPThRh44fvHUkGFaSnf0DujNdW8ZormJn9zdxRGgdnT/dV2FKczN1UUzfHz9Gx8QI67Cqd2kTN7pLqy05KopZIv30utqaq4QihsO5IYSuR4dXs63RyPJyPKEEfEV5FpfdWMKCWY1zcqoFOfqtbXCHLccSDNS45Vnvj83u3Lv9/Wha0vPaU/eeb42u3Lpl75513bzN5Txi89dYlqxrC1s7zjH1+9FCIQpLpjsTp77SXv/vHz+c/drZZfjcU6w8SDb1754c+3zL9nLzqBY3X+zI2/j/76zF7985W/Wgnq5L82Xpm8+KnYd7Jy41+u11uffsPcLIol7SptLBVUMCHWDG/tLHLM6ynj6mFaX12ZKR0YhsR7xVWYSuPuBxMiarpEtU0hBJfs7SEvQkuo+JVJDjq6X+pndaRePN0e/0wfiGXqPMIp5tp33liZ4cilUvHt5ohJ5gaMxhP9c7Bc4Mt6sYKEWW6StWxEvDHF4HGuBfYHXWR7qCMxjBk1yllyzGPPjaaxhzsiFTQ7s5sfKAdnBm0cGz4GOP583CejMXckhZ13jN0cNQHQ2xA5myXHAXpR7XgwmnryWqsKxqheqpmP2/ieENkW/Ol7Cb9xBejpWHLzKMDH3yuUcC4zmlzKfWWeR94LzIIZGDwqFFe8euuLh/sPPnsvmCNNxUZaluJPiRw7f3LkOCjD2FhLs8tOwkIP6lPV+hpBjjueWgcix5+r4grFPq9plkyMWZNRSiRbYko1GIzIEjP29PSlpyx1TczYJ6Sv3b789Lq/NXz+lb80IrLrxdKftjGpyIqNDPDyBbRf2T+jGTBNXmK6jh870mzOEN9VhFjJcYzZEN+/b3z551tf7lPJFh3/EMoxlyYj4tzEmyWxygz1c97jrcuCtaU7DK0B0RJo2+tl0i0etKLYtVAv6naRi1o6G1QX28aetKuOUUrLW9wmAz6tzX6tOvfazdByMiMiH1rU5i5TETqiGmQ7kkaHgFlWnahZ9liXY3cSdQoT55dduQ3U1FiG3VArD8K8bhq6YKGL/LLxkLgjUBMiKM7aGfaQwCxLU1dlchwEbYiP5j3WEe2XG6+sI/EAJZ7aoDWi5KCVon2iH3LCweXmOay0sz4MRpqfZQY39DoAJDFe9E6EXQ+oM4/EOvSCqIhaOhWSWOrI3gZuYe2JO5f87NNyPCCky5pHgKgHGON+cHPIWEsCfRcKDy3HP1gS6Y/azET4za3fnlz57e4L1hgbeJsfPnzwcP/Bw/tv2zMzRS15g9bkeDRWbFgVXaxMzHGQSI4hW6D/9alqfY0gxwsMGEnUwcjxWHV/ev3k3h5xVkeOiQ1bnqqmAFHegCvzq9wwoYQje3MJjI86hiRbsWFPo8cTItaMZ2dVUN7X01bDXFW2WHUhcsyvEpM2yWMix7alAoGoM/Fdm1T2jlNjm3Uuih1PRuq3POF27KXJ7hQWKnXJLeokhzWO1xV2iSmS6AK1tEtaiZgyOcYLmSr52yktbG5p9+djEMh47lq2Y+wmcS9n/Cx7Yr3Wo0RdAHXC3dnVWKPERayWiJaVoE7cTCzMg6nUMQud9vQggZ3wKboQ+6vMSGxjEhJHpAgs+yJejYNWZO2iruRkAStyxEVX4gsLp0SIBBRrnzrFQHMjlQpRZwzjjGFnl5giSSw5wvdUSTBJzZPPqI4uBxzjQ2PkqXMoQbQ2lqC6kJuMZDeMbYehPshVuCFzrGOFKpXphbwqBRVaaX2qWl8jyDG7GYW3gGiKzvkn8cugDmE3qWSYRLzTkF2dl71+/o+9y7+7Y5tIDuoZYjJKidufd0V+bGoqWNK3gAAzLCDKMR1XrD2kwgl9z2ixFQ4eXkr6mmQwsdigIoKNUcB32fmxLrRwaWN9iSsqih1PKFcxxy5C+RVFWk78qhZfTVZrAse391jFLeNF17cM8FFjoVfZ/PYFjUU1tiFZPgOPZtmTiZ+U3gX2BCoUGp5wFC5JugKxduEXHh4E3NT4sqRmYVDUpViRZEyumfdO6CWYIbR3sKSOuEuC8BlO8fBLHEwCI/5VwQhPOrLRTE0KrVV9HTcNGqewSPYEXWJnMzA66pnYr2zjV1MbVBdBrJ62PPkauslxnnEcjK8yoDGLFfGRTgYqlEfpCM4wkmCf73e8JpKXq83cmWPa4MJsW6GzyJ07Vp+q1tcIcly86x08xmJOKapjHNRoVBTW8FfFdA3NtRxUtY8It/qT01NOyvl5kk8FEkaCr76gS0RqA+GORlMvS7iDwglDuBOTbOM8jJQJ9pXBrvL44OSY55vVfZkTYn4s2NYNOY7pEVsgaRW0WS5aUeLGDelCshoJ3rEINIyBfr6PeV5BFF3SVZLm/wVkju3aqYsdA+qgLmX/JXYGC3BCHTzhKFzS6uZzk4Y1ACesjsg6Yn0M7LcnVa+yPdTSe8c7mmOBgfEAYDZTKCbAhpn+/IgIqoPGiYMSr0pGxz3OMTt1ZbxLcJIcGz/UzM4pD44ppvfzK0VVS+AEdJZHAuyC/UQNTdKXTLWzJpj+TJcg9mDkOB1uN+sDGwgTD1FUWCzjIw1iEkLJ0AeBkZsaIMfyC3l6fze+9RtVWVSprKhPVetrBDlmN6Pc5DzI+YOTY6bdkmMio7aIonx/MWQ34cfUy5Bsx491Y/fnOEhpxwyYNWteRJGgzRO6zFPjVJHFljPHEjm2NRhFsV1ljoPFJiS70aIVt9Sg5ZZbu8Qq9JLVKIVUOkN5o4iP5kTR+VKSKdexxbou2ZNEjnEkURcswAlonnAULlkk53EzsUcCvDRnA/ud1zNhp5beO9fRHwjkuNQ+dSRBrK1run3ioMSrJF1JRw6jZsaOKBcqpHVLl8sXYGnrlwDjDPtNhFuiH5B4p10Q22IScXDUsUKPv7QQji9d9a/hBrcg5YuDy/7oFD88SIMYqkDm2I2sfNA2c5xS4ZQuy5r8TSGOkqbt61PV+hpBjg8eJ0UJc5LjNJestFhy7A+axHaxwoErIvob0Gh2Nakq5qqLKgw+ukQsfn+CF1GkE7PIYvPkmN7Vs+/taTtVY3emKLZizbHmtckSkuKgzsxYbsnNhqKEiE0pQnpGqaAFO1jLE8oidzSZP7amxqt1YFVOCI860WXV0Zd3x6CxJTzGijraas4DuNnY8sBf71eCZ0PYXTNGEAMVkmExPt6M5AU+zSmDobfxEPwiL0cvsyR2MB4IskEyTCKL1mASklC62FprGwuDlG4yU217qyVzSTIsRdufkdoLKqRm3PIsUJLZSjt/2AsepMUhsM7SPOVBldigWkonE7Hx0FsVksEOkFzN8fi9WwN/IU9XG0f7HE+rVB7Xp6r1NYIcN5qfbqK2PlgoOfYcVFdNZJLH18/zd+NCyntyb4/3CqojiHO79+q0CvfZEfqTZ4tDKCgJHRDrCFj7cvH+rYvhrZA4rs3phpeCWojoktmtwr5jF13lO1dENRXpn1Hf7nar8Iu3Wvtd0aFfNVNL/BmJLsSLTbIa+e7RcASvrkcbLOiRpdXOkkUvhyy3jug2jIwqLZmOJndlVllacVkqa7Y9Ybx5d/iqT8d5ckxswxEmstPk3dXxpZvs89EHcJO0uMHNmZ09H4+p9nS2PUqgRKecIjHMsoNlc41svG4+0jtz+WAwY8rG0Y+L0xsfhA7yUWAtpWhP96BgltDQ219R9BCwROkH5+wl1SVi0gG2zIYGvmgDRNjppAs2XlMhP+gyX4wNkliCiz1his/Mqah4VpLLDW9BGkxbgGGnGLdBAZUYZnG2HZVT4dA3gzq3W8Xo4n3arWL/iw/PNB4pCZlmZlRQob+QZz93pzlu+AE8+yU8X1js38ajj+RFGyF3Z3R9qlpfI8hxd/FDki3F5PW4too3LlSgNprXspQtm8+eHKuTxEdZ8TFjrqFkzoYno2ALZEeFjRbe8en1oKxiRNqDcuSgylnvmMHssW4ahOXMMemNK4+bpXgLmWN1v9O7uZktkEPyPStzPJ7Mv8+x/2mSfjNlGRdakuUfUu1aZa+yXUiDXla4XenjxaY5OY7rCP0qzuLNLoRUZegWOb1YalPPbYsLntzRrtDkhdnplukNQGDnZ85QBtG5bSKIFh+iDhY05QUbDiXW26m8Uwb4Bgdw0zxsCKM505c8gSjZE0Bn/TX0RdNfe1IXjPKf1z3BtW087/F91eOQwjkZFwN+cj7vqQpaYwYdeHVSXTV/1FEyvUlaiH1OC/vufhCzRhYkjBRaYhReZazaNhDdKcGuOvIh879mkKgYBJ7WLYlNOKhq3BB8H+3KGHLZTepkpgSThVn76LUTgQ3skh9WIzZSkY9tds+JAaePSMsfyTtz7et9xY+PylbHx8QgW86T9alqfY0gx8sZe0tnlWbGjH+PaJu5eNOM+NZWuOst9yX6La/9VsfzOEVroV/j1dDTMuYY3tIFw+EZ5RbU4fA4tVzxoNmqf6iYOQUUnRp2bBOhDBmtcBOoGJCC9iW5BRV31dS/RsY/RVbEbbEzEeS4dO8AOV5stHFpvWDLDTjcx8FWFSaGKXUdpaVL4X24EFDJ43l2O26LAKWXwpVSp8eGTSDawii3BznueNLp5KhPQDZQN3hyTI8T0eymJGv4hFyP5C3tLUjtU/FEThtPRrrm+Otbm/WAkm8yDWK+UUeQ4xJMvRC4+krra+wlQb6oObMUctLMMdHldM/mpbB2MbdL+kXvyhwbHpfmeIpPkrbRhKOvlbKd8ak7S3UG5Li74TClCNFz3eypN3hynGwcYWpFWiO5sKm6lLcguv1e/P5NIaJMQcWRqTbWkxTkuBTQA2GNA3Gzu2WpH8lJzfHsbYyF+1op/vvxq2SkSl18d6pzm2lxYoWY/S2TyzcEBwIf5Hj5BhTk2L7s6It0+68zWbpbkCqo6DwxsVSzA+S4dK8fCGsciJtLNfFgDBAAAkAACAABILCcCIAcgxxPQI6Xc3LCKiAABIAAEAACQKA+AiDHIMcgx6UYqD8noREIAAEgAASAABDoEQGQ4xIxGkhKtRc3ewx6qAYCQAAIAAEgAASAQA4BkGOQ434yx7mIxHkgAASAABAAAkAACPSIAMgxyDHIcSkGepycUA0EgAAQAAJAAAjURwDkuESMeqk3qK+0vsb6gQ6NQAAIAAEgAASAABBoggDIMchxj5njUz/eu/Ds3oVn759qEqxoAwSAABAAAkAACACBrhEAOQY57pEca/CJIoMflz5+UYrSru8RkA8EgAAQAAJAYFAIHJtu7Uy3tleEhXltdboz3dpZP74WI7Kyua560b/p5ljo28laXv/X//oae/muci9u8qA6/+7rzz5++XytQOKqcQwEgAAQAAJAAAgAAY7AsZV1gRyPj5+dbp1dXVUkOCbHq9vTrZ21VUN/xe5cwQKP63O4+hqHS47vnf4I5BgIAAEgAASAABAAAn0jIJHj1e2pzgdThjgkxxtrEV0W2nSSNh4Oa6zPyOtrjB6ZVOYY5Ljve0E0KPgTCAABIAAEgMAwEZDIsVukU+JLZ1zamCCj6ov1jQrw1edw9TUO5xmABwzIMUcDx0AACAABIAAEgECPCLQkx+Mkczwmclyl8rg+Va2vcZjkeHTmNDLHPd4FoBoIAAEgAASAABBwCLQlxxMqMj67umJqJ6g6eceUYbiUczcH9alqfY0DJcfrLz+5d+HJu8ddXOIACAABIAAEgAAQAAK9INCaHI/Gmh+b3SrWj2+oTS1QVrG454H6jLy+RjHWP3pf7XkMiiyCg5NAAAgAASAABIBAHQTmIcehZWmhBV7IOxAC9alqfY1hCE1GlDn+8cyBcItlLu5xBZKBABAAAkAACACB4SBwYHKsdnYTt0lePNGpz+HqaxxmWQVeyBvOHQeeAgEgAASAABBYcgQORI6j+uOuXa1PVetrBDnuOoogHwgAASAABIAAEAACBQT0F/Ls5+506TDt12Y+gOe+hLdlXsIzb+Dp81VKjZ319alqfY0gx264cQAEgAAQAAJAAAgAgfoIHKuvcm6N9alqfY0gx3OHBzoCASAABIAAEAACQODgCIAcl2qjQY4PHmFNJKDmuAlKaAMEgAAQAAJAAAhUQADkGOR40sszAAvuUz/eu/Ds/VPsTGlQ0AwIAAEgAASAABAAAt0hAHJc4mG9sMb6SutrtAFNtPjehWcfv3weO68BASAABIAAEAACQGAJEAA5BjnuPXNcGgJLo9EGCAABIAAEgAAQAAI1EAA5LqHcS0q1vtL6GkF5gQAQAAJAAAgAASCwnAiAHIMclxBYzqiFVUAACAABIAAEgAAQ6AiBYydO/Qf+AQEgAASAABAAAkAACAABIHDi1H8cpsxxR88HEAsEgAAQAAJAAAgAASAABDQCIMcoKgACQAAIAAEgAASAABAAAgYBkGOEAhAAAkAACAABIAAEgAAQMAiAHCMUgAAQAAJAAAgAASAABICAQQDkGKEABIAAEAACQAAIAAEgAAQMAiDHCAUgAASAABAAAkAACAABIGAQADlGKAABIAAEgAAQAAJAAAgAAYPA/we18e1Lhkk78gAAAABJRU5ErkJggg==;" vertex="1" parent="1">
          <mxGeometry x="397.52" y="20" width="600.93" height="490" as="geometry" />
        </mxCell>
      </root>
    </mxGraphModel>
  </diagram>
</mxfile>
